<svg width="505" height="353" viewBox="0 0 505 353" fill="none" xmlns="http://www.w3.org/2000/svg">
<path fill-rule="evenodd" clip-rule="evenodd" d="M156.683 113.46C158.959 110.687 161.235 107.914 163.511 105.141C165.548 102.66 167.729 98.7792 170.319 96.9242C169.319 97.0662 168.319 97.2092 167.32 97.3512C171.928 99.5112 176.458 105.923 179.546 109.783C183.17 114.314 189.106 106.748 186.155 103.059C182.043 97.9192 176.944 90.8502 170.875 88.0042C170.006 87.5972 168.62 87.8982 167.876 88.4302C164.897 90.5632 162.803 93.7962 160.495 96.6082C157.805 99.8862 155.115 103.163 152.424 106.44C150.945 108.243 149.804 111.124 151.249 113.312C152.509 115.219 155.228 115.232 156.683 113.46Z" fill="#231F20"/>
<path fill-rule="evenodd" clip-rule="evenodd" d="M315.954 195.349C319.715 193.092 323.476 190.835 327.237 188.578C330.143 186.833 334.225 185.22 335.151 181.573C336.004 178.217 333.694 174.806 332.429 171.826C330.551 167.404 328.673 162.982 326.796 158.561C324.531 153.23 317.061 159.376 318.911 163.73C320.288 166.973 321.665 170.215 323.042 173.458C324.236 176.269 326.606 179.857 327.077 182.832C327.692 181.298 328.308 179.764 328.924 178.229C327.049 180.051 323.61 181.387 321.342 182.748C318.655 184.361 315.969 185.973 313.282 187.586C308.829 190.258 310.349 198.713 315.954 195.349Z" fill="#231F20"/>
<path fill-rule="evenodd" clip-rule="evenodd" d="M140.008 245.727C136.365 252.954 133.349 260.435 130.934 268.16C130.548 269.394 130.927 271.2 132.199 271.815C137.274 274.27 142.085 277.099 146.697 280.338C150.595 283.076 157.399 275.863 153.002 272.775C148.39 269.535 143.578 266.706 138.504 264.252C138.926 265.47 139.348 266.689 139.769 267.908C141.955 260.914 144.692 254.196 147.989 247.653C150.931 241.816 142.341 241.097 140.008 245.727Z" fill="#231F20"/>
<path fill-rule="evenodd" clip-rule="evenodd" d="M217.482 216.337C204.204 202.571 193.128 185.956 185.813 168.222C206.314 166.583 226.925 166.99 247.372 169.279C240.956 185.74 231.148 200.794 219.543 214.12C218.862 214.866 218.176 215.607 217.482 216.337ZM407.663 234.885C404.232 213.373 381.155 198.15 363.772 188.416C358.402 185.408 350.911 198.403 356.272 201.406C371.006 209.658 388.818 220.954 395.487 237.37C397.01 241.12 397.611 245.559 396.749 248.837C396.462 249.648 396.116 250.435 395.717 251.2C393.77 254.169 389.161 257.283 384.971 259.254C370.328 266.146 352.585 266.733 336.725 265.994C324.081 265.405 311.205 263.766 298.667 260.901V242.417C298.667 241.129 297.665 240.485 296.665 240.485C295.664 240.483 294.663 241.127 294.663 242.417V259.94C287.391 258.112 280.253 255.867 273.371 253.143C255.459 246.055 238.635 235.716 224.256 222.843C224.282 222.815 224.311 222.785 224.336 222.756C224.472 222.613 224.608 222.454 224.742 222.286C226.459 220.327 228.145 218.331 229.792 216.296C239.919 203.993 248.477 190.212 254.696 175.625C254.743 175.515 254.789 175.404 254.836 175.295C255.325 174.138 255.806 172.98 256.266 171.814C256.44 171.375 256.604 170.933 256.774 170.492C276.803 173.416 296.721 178.117 315.998 184.396C315.504 184.692 315.011 184.988 314.518 185.284C311.528 187.079 309.031 190.882 309.215 194.47C309.374 197.558 311.85 199.378 314.726 197.652C319.025 195.072 323.324 192.492 327.622 189.913C331.129 187.808 334.481 185.852 335.987 181.76C337.495 177.668 335.645 174.528 334.071 170.822C332.068 166.106 330.065 161.39 328.063 156.673C325.028 149.528 315.448 160.428 317.653 165.619L319.563 170.118C300.542 164.095 280.963 159.518 261.264 156.677C268.425 130.286 269.772 101.69 265.327 74.3497H314.743H314.747C317.32 74.3497 317.325 70.3497 314.747 70.3497H314.743H264.634C262.812 60.4567 260.228 50.7507 256.873 41.4007C249.258 20.1897 229.8 -12.1163 203.135 4.66269C200.52 6.30869 198.101 8.20769 195.858 10.3057C190.74 14.8077 186.629 20.5827 183.274 26.8587C178.178 35.9897 174.597 46.1387 171.901 55.5387C171.184 58.0347 170.524 62.2717 174.075 62.8427C175.678 63.1017 177.339 62.1287 178.688 60.7667C179.215 60.5197 179.676 60.0127 180.013 59.1767C180.681 58.2247 181.176 57.2397 181.41 56.4247C186.691 38.0157 202.441 -0.364313 227.165 19.2097C236.535 26.6277 242.227 38.7427 246.227 49.6917C248.687 56.4247 250.641 63.3387 252.176 70.3497H234.287H234.283C231.71 70.3497 231.705 74.3497 234.283 74.3497H234.287H253.007C254.617 82.5857 255.667 90.9357 256.276 99.2737C257.666 118.31 256.572 137.1 251.801 155.479C228.338 152.919 204.753 152.933 181.272 155.385C176.699 139.686 174.754 123.838 174.772 107.745C176.008 109.274 177.159 110.781 178.202 112.087C182.404 117.339 191.142 105.302 187.506 100.756C184.311 96.7607 180.204 91.1597 175.638 87.8607C175.384 85.1397 172.487 84.3257 170.133 85.4917C169.196 85.9557 168.407 86.6167 167.729 87.3857C167.696 87.4097 167.663 87.4327 167.629 87.4567C164.54 89.6687 162.253 93.3167 159.867 96.2227C157.176 99.4997 154.487 102.777 151.796 106.054C149.952 108.302 147.822 112.89 149.906 115.615C152.026 118.389 155.738 115.773 157.319 113.847C159.59 111.08 161.861 108.313 164.132 105.546C163.419 122.905 164.787 140.067 168.885 156.952C153.773 159.173 138.812 162.424 124.174 166.776V108.435C124.174 107.148 123.173 106.503 122.172 106.504C121.172 106.502 120.17 107.145 120.17 108.435V167.997C114.275 169.84 108.433 171.858 102.661 174.072C93.211 177.695 83.42 181.518 74.705 186.748H74.704C58.401 195.387 37.992 208.434 28.526 226.111C26.085 230.303 24.313 234.84 23.819 239.603C23.699 240.318 23.59 241.037 23.507 241.763C21.018 263.689 42.201 273.92 60.463 277.572C76.393 280.757 92.836 280.278 108.908 278.552C110.739 278.356 112.477 276.734 113.713 274.68C114.658 274.028 115.022 273.092 114.913 272.117C116.185 268.428 115.651 264.613 111.45 265.065C96.058 266.717 80.172 266.872 64.952 263.715C55.089 261.67 43.582 257.876 37.415 249.33C34.483 245.267 33.777 240.983 34.548 236.799C35.813 232.25 38.329 227.897 41.16 224.231C41.504 223.785 41.866 223.354 42.22 222.918C51.045 212.743 63.199 205.323 74.907 199.118C74.908 199.117 74.91 199.117 74.911 199.116C83.104 194.2 92.273 190.53 101.172 187.159C107.431 184.788 113.77 182.644 120.17 180.707V202.809C120.17 204.096 121.172 204.741 122.172 204.74C123.173 204.742 124.174 204.099 124.174 202.809V179.523C140.002 174.968 156.192 171.69 172.532 169.593C179.669 190.387 191.723 210.166 206.86 226.27C188.383 241.9 166.828 252.905 143.375 259.148C144.725 255.681 146.22 252.273 147.9 248.941C149.071 246.617 150.786 241.946 147.753 240.195C144.897 238.547 141.239 242.192 140.106 244.441C136.332 251.928 133.104 259.585 130.601 267.591C130.008 269.487 129.17 273.352 131.606 274.529C136.68 276.984 141.492 279.813 146.104 283.052C150.99 286.484 158.744 273.672 153.604 270.062C153.176 269.761 152.737 269.482 152.306 269.189C175.032 261.527 196 249.39 213.84 233.18C236.838 254.225 264.758 267.91 294.663 274.75V320.361V322.894C294.663 324.181 295.664 324.826 296.665 324.825C297.665 324.827 298.667 324.184 298.667 322.894V320.361V275.623C310.219 278.016 322.044 279.41 333.978 279.815C351.948 280.424 371.868 279.065 387.951 270.214C400.687 263.205 410.056 249.895 407.663 234.885Z" fill="#231F20"/>
<path fill-rule="evenodd" clip-rule="evenodd" d="M119.288 94.2312C119.517 95.3482 118.993 96.9032 119.108 97.2912C119.273 99.1202 120.446 99.0232 121.629 99.8112C122.686 99.7182 123.093 99.3202 123.788 98.9112C123.695 95.8362 123.022 93.0482 123.248 90.4512C124.421 91.2332 125.208 92.5282 126.309 93.3312C126.917 93.7752 127.516 93.9662 128.108 94.4112C128.768 95.0712 129.429 95.7312 130.089 96.3912C130.37 96.5892 130.78 96.4962 130.988 96.7512C131.966 97.9492 132.84 100.14 134.589 99.9912C136.014 99.9132 135.964 99.1872 136.748 98.5512C136.699 97.1352 136.297 96.5112 136.028 95.1312L136.389 92.2512C136.157 89.2542 136.161 84.8192 135.849 82.1712C135.743 81.2792 134.325 80.8282 133.868 80.1912H131.889C131.687 80.5072 131.437 80.8392 131.169 81.0912C131.142 82.2802 132.343 84.4122 132.248 86.3112C132.155 88.1852 132.05 91.2602 131.889 93.3312C131.074 93.0392 130.713 92.3472 130.089 91.8912C127.139 89.7372 125.451 87.5802 123.248 84.6912C122.782 84.0792 121.645 83.9642 121.089 83.4312C119.906 83.5252 118.828 84.0832 118.568 85.0512C118.688 85.7712 118.809 86.4912 118.929 87.2112C119.136 89.4942 118.855 92.1122 119.288 94.2312Z" fill="#231F20"/>
<path fill-rule="evenodd" clip-rule="evenodd" d="M77.5289 87.031C77.8509 91.107 78.4689 94.315 78.4289 98.731C78.8589 99.152 79.0379 99.99 79.5089 100.351C79.9429 100.683 80.4219 100.66 80.7689 101.071C81.5819 101.081 82.1409 101.055 82.5689 100.711C83.6199 99.833 83.1219 98.037 82.7489 96.571C81.9219 93.31 82.2999 89.961 81.4889 86.671C81.6339 86.486 81.5549 86.627 81.6699 86.311C83.4679 86.325 85.9639 86.078 87.0689 85.951C88.5079 85.785 89.7549 86.458 90.6699 85.771C91.0869 85.637 91.0709 85.584 91.3889 85.411C91.4299 84.994 91.4249 84.904 91.5689 84.691C91.4629 82.038 88.7159 81.957 86.3489 82.351C84.8709 82.597 81.9469 82.836 79.6889 82.711C79.2409 82.686 78.5409 82.286 78.2489 82.351C78.0089 82.404 77.0929 83.143 76.8089 83.251C75.2169 83.855 73.6839 83.258 71.9489 83.791C71.6089 83.896 71.1859 84.215 70.6889 84.331C70.5419 84.905 70.2559 85.321 70.5089 85.771C71.4389 88.316 74.9599 87.205 77.5289 87.031Z" fill="#231F20"/>
<path fill-rule="evenodd" clip-rule="evenodd" d="M62.9487 90.4509H62.5897C62.6487 90.0909 62.7097 89.7309 62.7687 89.3709H63.3087C63.3687 89.5509 63.4287 89.7309 63.4887 89.9109L63.6697 90.0909C63.4427 90.1909 63.1257 90.3069 62.9487 90.4509ZM69.4287 92.9709C70.6477 92.9669 71.1517 92.7639 71.9487 92.4309C72.2287 91.7729 72.4367 91.0919 71.9487 90.4509C71.1937 88.7909 68.9977 89.1289 67.2687 89.3709C67.1547 88.7109 64.9547 83.6659 64.7487 83.4309C64.3497 82.5329 62.1217 81.7059 61.1487 82.5309C60.1197 83.0729 60.7097 84.4849 60.2487 85.5909C59.5237 87.3359 57.8337 89.8729 57.1887 91.7109C56.6387 93.2789 56.7197 95.3969 55.7487 96.5709C55.7307 98.2399 56.0787 98.5259 56.6487 99.4509C58.6907 99.9389 58.7187 100.152 60.2487 99.0909C60.3427 97.8869 61.1597 96.0939 60.7887 95.1309C60.8467 94.7159 60.8727 94.6839 60.9697 94.4109C62.2727 94.4249 63.9167 94.4249 64.7487 93.8709C66.1217 94.0079 68.0117 98.8289 67.4487 100.351C68.0957 100.998 69.8177 103.216 71.2287 102.331C72.2267 102.232 72.1557 101.934 72.6697 101.431C72.5377 98.4489 69.7917 95.8999 69.4287 92.9709Z" fill="#231F20"/>
<path fill-rule="evenodd" clip-rule="evenodd" d="M34.148 89.9109C34.589 91.3959 34.41 93.1849 34.688 94.5909C34.913 95.7249 34.365 98.2059 34.508 98.9109C34.616 100.432 37.56 102.919 39.728 102.331C43.025 101.437 46.29 99.4939 49.268 98.1909C50.536 97.6359 52.015 97.7259 53.048 97.1109C53.068 95.7359 52.852 95.1849 52.508 94.4109C51.545 94.3699 50.963 93.7649 50.169 93.8709C49.337 93.9819 48.898 94.6499 48.368 94.9509C47.136 95.6499 45.737 95.5979 44.408 96.2109C42.727 96.9869 40.734 98.2659 38.648 98.5509C38.528 97.8909 38.408 97.2309 38.288 96.5709C40.901 95.5729 43.378 94.0859 46.028 93.1509C48.026 92.4469 50.293 92.2829 51.968 91.3509C51.973 90.8269 51.977 90.3699 51.788 90.0909C51.498 89.0369 50.393 89.2069 49.808 88.4709C45.757 89.4219 41.879 91.4319 37.928 92.2509C37.706 91.6239 37.595 90.6849 37.388 90.0909C38.524 89.5609 39.838 89.4939 41.169 89.0109C42.799 88.4199 44.682 87.5959 46.388 87.0309C47.824 86.5569 49.372 87.0089 50.528 86.3109C51.338 86.2279 51.297 86.0779 51.788 85.7709C51.846 84.8489 51.845 84.7129 51.788 83.7909C50.933 83.3789 50.328 83.3669 49.628 82.7109C46.985 82.9879 43.943 84.3019 41.528 85.0509C40.261 85.4439 38.723 85.4169 37.748 86.1309C36.407 86.0699 36.051 85.0359 35.588 84.1509C34.638 84.1379 34.139 84.2249 33.608 84.5109C33.669 85.1109 33.728 85.7109 33.788 86.3109C33.608 86.9109 33.428 87.5109 33.248 88.1109C33.329 88.6939 33.992 89.3849 34.148 89.9109Z" fill="#231F20"/>
<path fill-rule="evenodd" clip-rule="evenodd" d="M94.2686 98.9109C94.4746 100.41 95.3496 100.698 96.0686 101.611C97.8546 101.707 98.2566 101.528 99.4886 100.891C99.3416 98.8249 98.7476 96.1819 99.1286 94.4109C99.4486 92.9269 99.5196 91.7909 99.3086 90.6309C98.8276 87.9879 100.045 85.2659 98.5886 83.7909C97.8676 83.1899 96.6436 83.0199 95.1686 83.0709C94.9496 83.4389 95.0526 83.4119 94.6286 83.6109C94.4996 84.9529 94.8776 85.7009 95.1686 86.8509C95.6226 88.6489 95.1956 93.7559 94.9886 94.7709C94.6866 96.2509 95.0806 97.9829 94.2686 98.9109Z" fill="#231F20"/>
<path fill-rule="evenodd" clip-rule="evenodd" d="M0.848661 93.8709C0.908661 95.7309 0.968661 97.5909 1.02866 99.4509C0.866661 100.13 0.690661 100.888 0.668661 101.791C0.968661 102.091 1.26866 102.391 1.56866 102.691C2.57666 103.473 3.77866 103.088 4.98866 102.871C5.14366 102.404 5.41066 101.954 5.70866 101.611C5.53666 100.315 5.04166 98.4979 4.80866 96.9309C4.49966 94.8619 4.79566 90.6579 4.44866 88.8309C4.20566 87.5559 4.69366 85.5199 4.08866 84.5109C3.69766 83.6729 2.42066 83.5839 1.38866 83.4309C1.15566 83.5919 0.403661 83.7039 0.128661 83.7909C-0.271339 85.7209 0.343661 88.4279 0.848661 90.6309V93.8709Z" fill="#231F20"/>
<path fill-rule="evenodd" clip-rule="evenodd" d="M110.109 94.9509C109.809 95.2509 109.509 95.5509 109.21 95.8509C108.544 96.1949 108.381 95.8809 107.949 96.3909C107.37 96.2339 107.671 96.4889 107.409 96.0309C106.375 93.8429 109.088 91.0379 110.109 90.0909C111.433 90.2289 112.116 90.9609 112.989 91.5309C112.222 93.4839 111.741 93.9089 110.109 94.9509ZM114.789 88.4709C114.112 88.1129 111.914 87.6969 111.549 87.2109C111.489 86.7909 111.429 86.3709 111.369 85.9509C111.094 85.5189 109.405 84.7929 108.849 84.6909C108.517 84.9619 108.198 85.0259 107.589 85.0509C106.151 87.8319 101.006 93.1079 103.809 97.6509C106.875 102.62 113.525 98.4789 116.049 95.6709C116.723 94.9209 116.734 93.8639 117.309 92.9709C117.305 91.1779 115.881 89.0489 114.789 88.4709Z" fill="#231F20"/>
<path fill-rule="evenodd" clip-rule="evenodd" d="M23.8891 93.1511C21.4941 94.9891 20.0331 96.9201 15.969 96.7511C15.8561 94.2531 15.6231 91.2771 15.7881 89.3711C17.8231 88.3841 23.3811 87.5301 25.328 89.5511C26.3691 91.0521 24.7911 92.4581 23.8891 93.1511ZM29.288 89.5511C28.956 86.1121 22.019 84.7471 17.769 84.8711C17.146 85.2931 12.549 85.5911 12.549 85.5911C11.979 85.6931 12.0261 85.7491 11.6491 85.9511C11.4701 86.8691 11.6401 87.6081 11.8281 88.2911C12.2351 89.7581 11.794 93.5211 12.009 94.7711C12.234 96.0841 11.8681 97.7681 12.1891 98.3711C12.1561 100.874 12.9311 100.798 13.8091 102.151C15.906 102.05 17.2301 100.707 18.6691 99.9911C19.2691 99.8711 19.8681 99.7511 20.4691 99.6311C23.2591 98.3131 26.0511 96.9171 27.8491 94.5911C28.5161 93.7281 30.6621 91.1541 29.288 89.5511Z" fill="#231F20"/>
<mask id="mask0" mask-type="alpha" maskUnits="userSpaceOnUse" x="487" y="56" width="18" height="21">
<path d="M487.854 56.4309H504.864V76.7709H487.854V56.4309Z" fill="white"/>
</mask>
<g mask="url(#mask0)">
<path fill-rule="evenodd" clip-rule="evenodd" d="M489.654 74.4309C489.837 74.7339 490.223 74.7799 490.554 74.9709C492.252 75.9519 493.08 75.1089 494.154 74.0709C493.921 72.6999 492.24 67.2549 492.715 66.1509C492.774 66.0909 492.835 66.0309 492.894 65.9709C493.503 66.8919 494.359 67.4639 495.234 68.1309C496.707 69.2539 497.98 71.0379 499.194 72.4509C499.374 72.5109 499.554 72.5709 499.734 72.6309C499.866 72.9689 499.321 73.5109 499.554 74.0709C500.042 75.2409 501.166 75.9869 502.074 76.7709C502.762 76.7559 503.299 76.7039 503.694 76.4109C505.045 75.8969 505.047 73.4069 504.594 71.5509C503.861 68.5489 504.012 64.2559 503.335 60.5709C503.17 59.6769 503.836 58.5769 503.335 57.6909C502.854 56.8439 501.238 56.4329 499.914 56.4309C499.72 56.5679 499.748 56.5439 499.374 56.6109C499.049 57.9069 499.379 65.8019 500.274 67.2309V68.1309C497.281 66.6909 495.444 62.2819 492.534 60.5709C491.75 60.1099 489.953 58.8379 488.934 59.3109H488.034C487.382 61.9099 488.674 67.5239 489.295 70.4709C489.658 72.1979 488.985 73.3189 489.654 74.4309Z" fill="#231F20"/>
</g>
<path fill-rule="evenodd" clip-rule="evenodd" d="M458.335 62.3714C459.738 62.2264 459.886 61.4374 460.675 60.7514C460.641 59.2764 458.911 57.7584 457.435 58.0514C456.723 58.1924 455.907 58.7764 455.274 58.9514H453.475C451.636 59.3884 449.165 59.6174 447.355 60.0314C446.218 60.2904 445.005 59.8434 444.295 60.0314C441.83 60.6824 438.834 61.7714 435.835 62.0114C435.742 62.2654 435.621 62.8774 435.475 63.0914C435.522 64.4964 436.532 65.3034 437.635 65.6114C438.149 65.9154 442.302 64.9144 442.855 64.5314C443.41 64.5394 443.777 64.5934 444.114 64.7114C444.628 67.1294 446.164 72.7454 445.374 74.4314C445.86 75.9334 446.897 76.3044 448.074 77.1314C449.481 76.8844 449.414 76.0644 450.234 75.3314C449.617 71.1844 448.199 67.1814 448.255 63.4514C450.197 63.3574 452.481 62.9544 454.194 62.5514C455.532 62.2364 457.554 62.7374 458.335 62.3714Z" fill="#231F20"/>
<path fill-rule="evenodd" clip-rule="evenodd" d="M464.993 77.491C466.068 77.389 466.234 76.976 466.973 76.591C467.593 73.869 466.52 69.442 467.334 65.791C467.666 64.298 466.774 62.983 467.334 62.011C467.347 60.19 466.07 59.452 464.273 59.491C463.884 59.746 462.829 59.857 462.473 60.031C462.555 63.784 463.558 66.981 462.834 70.291C462.508 71.777 463.148 73.533 462.473 74.611C462.651 76.344 464.001 76.593 464.993 77.491Z" fill="#231F20"/>
<path fill-rule="evenodd" clip-rule="evenodd" d="M481.913 67.5911C481.505 69.2321 478.363 70.2131 476.873 70.8311C476.754 70.7111 476.634 70.5911 476.514 70.4711C476.514 69.4491 476.613 68.4021 477.054 67.7711C477.363 67.0111 478.313 66.6991 478.853 66.1511C480.113 66.1441 481.186 66.1941 482.094 66.5111C482.089 67.0021 482.086 67.3361 481.913 67.5911ZM480.653 62.5511C479.795 60.4601 478.505 60.4681 476.514 60.0311C475.188 61.4411 471.194 67.2611 472.373 70.8311C472.611 71.5511 473.33 73.2231 474.174 73.8911C474.584 74.2161 474.926 74.2101 475.254 74.6111C478.845 74.8751 484.414 72.1131 485.873 69.7511C488.338 65.7641 483.785 62.4661 480.653 62.5511Z" fill="#231F20"/>
<path fill-rule="evenodd" clip-rule="evenodd" d="M388.314 64.3513C387.155 65.1743 386.534 66.6963 385.434 67.5913C384.741 68.1553 383.734 68.2503 383.094 68.8513C382.638 68.8323 382.427 68.8293 382.194 68.6713C381.682 67.9253 381.952 66.6993 381.654 66.1513C381.726 65.7813 381.699 65.8043 381.835 65.6113C382.788 64.8123 386.693 63.8763 388.314 63.8113V64.3513ZM388.134 60.3913C387.366 60.8843 385.892 60.5163 384.894 60.7513C383.555 61.0663 382.193 61.5383 380.934 61.8313C379.807 62.0933 378.167 61.5223 376.794 61.6513C376.588 62.2143 375.849 63.9203 375.894 64.3513C375.999 65.3653 377.163 65.8933 377.514 66.6913C378.411 68.7263 378.739 74.1543 378.594 75.5113C378.743 76.4273 380.482 78.0103 381.294 77.4913C382.964 77.5013 382.723 76.8723 383.454 76.0513C383.413 75.1843 383.164 74.0783 382.734 73.5313C382.839 71.3833 385.679 71.5463 387.054 70.6513C389.012 69.3763 391.025 67.4083 392.274 65.4313C392.735 64.7013 392.84 63.7873 393.354 63.0913C393.187 60.4753 390.106 60.6193 388.134 60.3913Z" fill="#231F20"/>
<path fill-rule="evenodd" clip-rule="evenodd" d="M352.674 65.2512C352.758 64.7462 352.294 63.6362 352.493 63.2712C352.508 61.6252 352.043 61.7782 351.413 60.9312C350.514 60.8712 349.613 60.8112 348.714 60.7512C348.51 60.9652 348.256 61.1372 347.993 61.2912C347.785 63.3092 348.518 66.7732 349.254 68.6712H349.073V68.8512C347.028 68.0972 345.321 65.4622 343.854 63.9912C343.495 63.6322 342.95 63.4512 342.594 63.0912C342.297 62.7922 342.239 62.2382 341.873 62.0112C340.924 61.4222 339.03 60.8922 338.094 61.2912C337.194 61.3832 337.052 61.6622 336.474 62.0112C336.99 64.4922 337.186 67.3192 337.194 70.1112C337.196 71.1582 337.612 72.5072 337.194 73.1712V75.5112C337.523 75.9872 339.523 76.7612 340.073 76.4112C341.157 76.3322 341.059 75.9582 341.694 75.5112C341.719 73.5972 341.299 72.3962 340.974 70.4712C340.793 69.4042 341.614 67.8912 340.974 66.8712V66.6912C342.117 66.9972 342.196 67.7232 342.953 68.3112C344.369 69.4112 345.668 70.4752 347.094 71.5512C347.69 72.0012 347.975 72.8822 348.533 73.3512C348.99 73.7352 349.844 73.9322 350.153 74.4312C350.496 74.9842 350.197 75.5122 350.153 76.0512C350.871 76.4322 351.171 77.0422 351.953 77.3112V77.4912C354.164 77.5682 354.316 76.8472 355.014 75.5112C355.049 75.2412 354.625 74.7102 354.474 74.2512V72.4512C353.895 70.4772 352.349 67.2052 352.674 65.2512Z" fill="#231F20"/>
<path fill-rule="evenodd" clip-rule="evenodd" d="M363.113 75.511C362.456 74.358 361.831 74.537 361.134 73.711C360.271 73.694 359.607 73.707 359.153 74.071C358.493 74.534 358.515 75.191 358.254 76.051C358.447 76.242 358.424 76.571 358.613 76.771C359.214 77.408 360.208 77.719 360.773 78.391C365.445 78.449 368.199 77.304 371.033 75.151C371.475 74.815 371.635 74.227 372.113 73.891C372.134 72.667 371.992 72.112 371.393 71.551C370.276 70.645 366.402 69.517 364.913 68.851C364.929 68.159 364.973 67.783 365.273 67.411C365.802 65.848 369.325 64.756 370.674 64.351C370.789 63.845 370.989 63.192 370.674 62.731C370.396 62.006 369.394 61.562 368.513 61.471C367.547 62.054 366.251 61.858 365.273 62.371C363.089 63.517 359.031 66.948 361.674 70.471C362.845 72.034 365.119 71.822 366.714 72.991H367.073C366.717 74.44 364.481 75.027 363.113 75.511Z" fill="#231F20"/>
<path fill-rule="evenodd" clip-rule="evenodd" d="M429.533 69.031C428.708 69.019 427.757 69.017 427.193 69.211V69.031C426.934 68.567 427.814 67.31 428.094 66.691C428.947 66.994 429.142 67.744 429.714 68.311C429.655 68.726 429.63 68.758 429.533 69.031ZM411.174 66.871C409.828 67.989 408.755 69.147 407.033 69.931L406.853 69.751C406.842 68.926 406.84 67.974 407.033 67.411C408 67.164 410.15 66.927 410.813 66.511H411.174V66.871ZM440.334 76.591C440.067 75.469 437.18 72.624 436.373 71.371C437.115 71.087 437.971 70.913 438.353 70.291C438.679 69.763 438.175 69.901 438.714 69.571C438.667 68.495 438.395 68.393 437.993 67.771C437.374 67.537 435.034 66.698 434.214 67.771C431.869 67.221 431.665 62.555 428.993 61.651C428.063 61.028 425.991 61.752 425.393 62.191C424.415 62.912 424.466 64.785 423.953 65.971C423.103 67.938 421.92 70.168 421.073 72.091C420.765 72.791 420.763 73.347 420.353 73.891C420.183 74.255 419.392 73.115 419.094 72.991H417.473C415.794 72.531 413.421 72.44 412.073 71.551L411.893 71.371C413.217 70.694 414.905 69.191 415.674 67.951C416.005 67.416 416.002 66.774 416.393 66.331C416.335 62.36 410.226 62.971 407.033 63.451C405.985 63.609 404.168 62.518 403.254 63.091C402.303 63.342 402.571 63.984 401.993 64.531C402.106 65.715 402.64 66.824 402.893 67.771C403.099 68.542 402.682 69.406 402.714 69.931C402.777 71.013 403.034 72.798 403.254 73.891C403.524 75.243 402.693 76.037 402.893 76.771C403.153 78.438 404.362 78.326 405.233 79.291C406.844 79.278 407.222 78.354 407.754 77.311C408.005 76.954 407.229 74.766 407.214 73.711C408.76 73.867 410.161 74.497 411.353 74.971C412.909 75.589 414.601 75.164 416.033 75.871C416.521 76.112 417.054 76.796 417.653 76.951C418.531 77.178 419.064 76.594 419.634 76.411C420.146 77.862 420.652 78.838 422.513 78.931C424.19 77.271 425.665 76.371 425.214 72.991C426.871 72.855 430.217 73.074 431.693 72.091C433.478 72.282 435.689 77.068 436.554 78.571C437.025 78.776 437.518 79.052 437.993 78.751C439.308 78.769 439.682 78.445 440.153 77.671C440.318 77.43 440.374 76.776 440.334 76.591Z" fill="#231F20"/>
<path fill-rule="evenodd" clip-rule="evenodd" d="M394.613 78.2112C394.995 78.5732 395.173 79.0632 395.513 79.4712C396.191 80.0282 397.123 80.1262 397.853 80.1912C398.334 79.7112 398.813 79.2312 399.294 78.7512C399.315 73.6142 400.307 65.3702 398.573 62.7312C397.686 62.5292 396.912 62.3492 395.693 62.3712C395.439 62.7262 395.457 62.7512 394.973 62.9112C394.692 64.2312 394.963 65.4532 395.334 67.0512V69.7512C395.334 73.2182 395.157 75.3352 394.613 78.2112Z" fill="#231F20"/>
<path fill-rule="evenodd" clip-rule="evenodd" d="M327.294 62.551C327.022 62.871 326.722 63.361 326.394 63.631C327.339 65.891 327.034 68.592 327.653 71.371C327.906 72.506 327.393 74.389 327.653 74.971C327.668 76.238 327.973 76.366 328.373 77.131C329.035 77.308 329.828 77.784 330.354 77.491C331.723 77.424 331.842 76.758 332.514 76.051C332.356 74.934 331.839 74.274 331.613 73.171C331.331 71.786 331.626 69.269 331.254 67.591C330.906 66.025 331.517 64.34 330.894 63.451C330.382 62.489 328.83 62.479 327.294 62.551Z" fill="#231F20"/>
<path fill-rule="evenodd" clip-rule="evenodd" d="M346.733 72.2713H346.373C346.558 72.4163 346.418 72.3373 346.733 72.4513V72.2713Z" fill="#231F20"/>
<path fill-rule="evenodd" clip-rule="evenodd" d="M262.524 316.724C262.704 316.875 262.566 316.792 262.878 316.915L262.883 316.735L262.524 316.724Z" fill="#231F20"/>
<path fill-rule="evenodd" clip-rule="evenodd" d="M420.754 335.837L420.719 336.917C419.335 335.96 418.143 334.617 416.68 333.726C415.742 333.154 414.114 332.81 413.493 332.003L413.516 331.283C413.176 330.885 412.121 330.862 411.739 330.506C410.834 330.469 410.442 330.552 409.929 330.808C409.656 333.562 410.061 336.379 410.564 339.112C410.815 340.476 410.023 342.055 410.083 342.879C410.163 343.975 410.87 344.783 411.256 345.618C411.79 345.815 412.324 346.012 412.858 346.21C413.39 345.76 414.212 345.697 414.518 345.002C415.167 343.523 414.332 337.964 414.248 336.529C415.977 336.867 418.108 338.923 418.811 340.277C419.114 340.863 419.059 341.62 419.473 342.099C419.993 342.702 421.082 342.813 421.591 343.428C421.7 343.625 421.358 344.403 421.539 345.047C421.794 345.95 422.649 346.491 423.089 347.257C423.591 347.389 424.238 347.611 424.709 347.31C425.441 347.27 425.608 347.18 425.985 346.81C426.642 345.912 426.105 343.509 425.77 342.301C424.882 339.1 424.57 335.264 423.753 332.151C423.463 331.045 423.671 329.789 423.137 328.89C422.856 328.168 421.118 326.573 420.131 327.172C419.117 327.26 418.549 327.803 418.808 329.111C418.962 329.892 420.392 335.348 420.754 335.837Z" fill="#231F20"/>
<path fill-rule="evenodd" clip-rule="evenodd" d="M376.304 329.191C374.351 329.199 372.114 329.449 370.703 329.733C367.394 330.397 364.172 329.817 361.483 330.878C361.357 331.185 361.442 331.053 361.291 331.232C361.206 332.93 362.075 333.827 363.358 334.179C363.762 334.385 366.385 333.967 366.979 333.575L368.239 333.615C368.415 334.587 368.606 335.428 368.866 336.517C369.119 337.582 369.598 339.664 369.97 341.415C370.401 343.449 369.606 344.96 370.533 346.295C371.049 347.038 372.494 347.336 373.401 346.747L373.76 346.759C374.886 342.097 372.493 338.02 372.574 333.214C375.363 333.126 379.217 332.582 382.486 332.991C382.736 332.683 383.053 332.488 383.408 332.3C383.526 331.812 383.62 331.375 383.64 330.687C383.284 330.319 383.119 329.781 382.781 329.399C381.016 328.108 378.914 329.18 376.304 329.191Z" fill="#231F20"/>
<path fill-rule="evenodd" clip-rule="evenodd" d="M392.352 334.207C392.12 332.724 392.868 331.949 392.27 331.143C391.851 330.107 390.579 329.618 389.078 329.6C388.842 329.791 388.427 329.978 388.161 330.111C387.759 331.935 388.407 333.657 388.331 336.06L388.146 341.816C387.745 343.413 387.5 344.408 387.474 345.937C388.066 346.598 388.348 347.378 389.215 347.794C389.523 348.01 389.792 348.025 390.115 347.823C393.155 347.876 391.564 345.007 392.081 342.663C392.467 340.911 392.672 336.249 392.352 334.207Z" fill="#231F20"/>
<path fill-rule="evenodd" clip-rule="evenodd" d="M399.312 341.814L398.952 341.802C398.512 339.15 400.041 337.542 401.469 336.3C402.234 336.364 403.018 336.503 403.431 336.903L403.791 336.915C403.294 339.55 400.733 340.183 399.312 341.814ZM403.024 332.748C401.523 332.227 399.278 332.674 398.352 332.418C395.688 334.965 393.396 340.042 395.993 344.229C396.493 345.034 396.555 345.557 397.56 345.9C398.899 346.816 400.484 345.649 401.181 345.295C403.036 344.355 405.594 342.77 406.717 341.15C407.255 340.374 407.325 339.41 407.877 338.666C408.043 335.184 405.558 333.628 403.024 332.748Z" fill="#231F20"/>
<path fill-rule="evenodd" clip-rule="evenodd" d="M258.72 328.669L258.709 329.029C259.032 328.871 258.911 328.974 258.72 328.669Z" fill="#231F20"/>
<path fill-rule="evenodd" clip-rule="evenodd" d="M341.838 331.329C340.055 332.558 333.368 332.518 331.38 331.715C330.857 332.183 330.516 332.116 330.26 332.939C329.01 332.824 327.103 331.735 325.954 332.441C325.337 332.682 325.558 332.867 325.205 333.318C325.298 335.805 328.059 336.738 330.859 336.741C331.393 338.407 331.19 344.7 330.57 345.736C330.589 347.3 331.678 347.459 332.283 348.492C333.334 348.546 333.941 348.499 334.46 348.022C335.046 347.797 334.961 347.492 335.388 347.151C335.427 345.727 335.238 337.936 335.148 337.778C335.151 337.185 335.147 336.489 335.379 336.165C337.526 334.841 343.09 336.171 344.78 335.025C345.246 334.674 345.334 334.035 345.727 333.615C345.514 331.906 343.874 331.322 341.838 331.329Z" fill="#231F20"/>
<path fill-rule="evenodd" clip-rule="evenodd" d="M316.043 338.248C314.739 337.213 312.151 335.469 311.313 334.134C310.576 332.964 311.022 331.767 309.606 331.198C308.467 330.358 307.294 331.043 306.35 331.634C306.44 334.688 306.704 337.159 306.984 339.939C307.063 340.717 306.863 342.378 307.055 343.363C307.385 345.068 306.395 347.542 307.416 348.957C307.999 349.766 309.253 350.059 310.434 350.314C310.865 349.968 311.297 349.622 311.728 349.275C311.899 347.353 311.481 343.925 311.07 341.69C310.915 340.846 311.314 339.767 310.971 339.166L310.977 338.986C312.201 339.349 313.153 340.61 313.96 341.423C315.22 342.691 316.944 343.504 318.175 344.799C318.731 345.386 318.697 346.322 319.185 346.993C319.925 348.012 321.03 348.59 321.988 349.424C323.749 349.477 323.656 348.802 324.553 348.065C324.385 346.603 323.8 345.006 323.432 343.707C322.957 342.029 323.018 340.158 322.693 338.641C322.049 335.618 322.86 334.355 321.468 331.938C320.803 331.821 319.229 331.484 318.583 332.026L318.224 332.015C317.855 334.775 318.618 337.913 318.847 340.679C317.553 340.313 316.967 338.981 316.043 338.248Z" fill="#231F20"/>
<path fill-rule="evenodd" clip-rule="evenodd" d="M353.261 340.159C352.684 340.536 351.359 340.59 350.719 340.798C350.665 340.617 350.611 340.434 350.557 340.253C351.139 339.691 351.544 338.536 351.897 337.774C352.794 338.174 352.74 339.232 353.452 339.805C353.326 340.112 353.412 339.98 353.261 340.159ZM364.723 342.147C364.892 341.825 365.047 341.503 365.291 341.264C365.292 340.273 365.092 339.641 364.641 339.083C364.387 338.755 364.022 338.66 363.765 338.334C362.774 338.399 359.359 338.635 358.333 339.241C356.346 339.11 355.708 335.38 354.902 333.909C354.469 333.118 353.335 332.9 352.795 332.22C351.851 332.196 350.985 332.277 350.439 332.685C349.034 333.086 348.799 334.772 348.17 336.034C347.127 338.13 345.783 340.648 344.887 342.952C344.488 343.982 343.751 346.505 344.215 347.073C344.25 348.514 345 348.435 345.585 349.278C346.625 349.324 347.3 349.256 347.936 348.993C348.488 347.793 348.946 346.636 348.968 344.884C351.14 344.684 353.089 344.382 354.945 343.815C355.902 345.493 357.809 347.715 357.808 350.03C358.658 350.187 359.078 350.493 359.392 351.161C361.795 351.316 361.528 350.698 362.508 349.46C362.36 347.845 361.13 347.244 360.453 346.152C359.832 345.152 359.625 343.965 358.932 343.042L358.938 342.862C360.962 342.507 362.837 342.304 364.723 342.147Z" fill="#231F20"/>
<path fill-rule="evenodd" clip-rule="evenodd" d="M297.924 336.047C298.56 335.846 298.611 335.561 299.032 335.182C298.973 334.81 298.999 334.834 298.87 334.637C298.813 333.824 298.662 333.86 298.37 333.36C297.509 333.128 297.074 332.81 296.049 332.745C295.26 333.277 294.267 332.922 293.153 333.193C291.232 333.661 288.795 334.306 286.979 334.796C286.479 334.931 285.758 334.617 285.545 334.57C284.437 334.325 283.824 334.781 283.189 335.035C283.183 336.347 284.056 339.86 284.455 340.479C284.404 341.731 283.945 341.701 283.145 342.057C283.375 343.342 283.768 344.133 284.862 344.633C285.037 345.575 285.251 346.977 284.95 347.518C285.129 348.549 285.779 348.724 286.332 349.363C289.487 353.009 295.453 349.49 299.157 348.153C300.734 347.584 303.199 347.915 304.23 347.235C304.757 347.02 305.153 346.579 305.349 346.01C305.592 345.549 305.263 344.756 304.861 344.373C304.519 344.075 302.933 343.307 302.371 343.393C300 343.755 296.287 345.474 293.632 346.355C292.586 346.702 291.53 346.592 290.725 347.162C290.235 347.143 289.901 347.129 289.652 346.948C289.423 346.613 289.38 345.995 289.152 345.672C289.315 343.799 290.842 344.256 292.1 343.605C294.015 342.612 296.572 341.568 298.668 340.933C299.591 340.654 300.922 340.93 301.744 340.492C302.747 340.415 302.762 340.044 303.392 339.644C303.459 337.999 302.989 338.137 302.387 337.271C301.573 337.228 301.132 336.819 300.6 336.853C297.398 337.055 293.872 338.673 291.32 339.798C290.573 340.128 289.909 340.027 289.319 340.454C288.853 340.403 288.71 340.355 288.425 340.245C288.402 339.63 288.301 339.46 288.46 339.166C288.834 336.747 296.015 337.294 297.924 336.047Z" fill="#231F20"/>
<path fill-rule="evenodd" clip-rule="evenodd" d="M260.74 333.055C260.748 334.448 261.052 334.575 261.38 335.597C261.88 337.157 261.212 338.709 261.584 340.466C261.89 341.911 262.11 344.704 261.951 345.88C261.832 346.758 262.398 348.135 261.853 348.939C262.024 350.367 263.934 352.556 265.91 351.59C266.153 351.471 266.417 350.737 266.664 350.534C266.768 348.511 266.326 346.968 265.943 344.928C265.703 343.649 266.26 342.108 265.704 341.138L265.727 340.418C266.521 340.742 266.456 341.167 266.946 341.718C268.643 343.624 269.849 345.341 272.577 345.86C272.948 345.512 273.32 345.164 273.691 344.815C274.336 343.859 274.569 341.322 275.825 340.021L275.831 339.841C276.34 340.597 275.859 341.609 276.098 342.731C276.661 345.364 276.638 348.522 276.745 350.676C277.891 350.989 279.469 352.89 281.034 351.714C281.895 351.296 282.03 349.679 281.666 348.853C279.721 344.439 280.796 337.886 278.552 333.625C276.372 333.053 276.692 333.208 274.594 333.498C273.917 335.06 271.961 339.079 270.782 340.04C270.72 340.098 270.658 340.156 270.596 340.214C269.912 338.992 268.737 338.191 267.996 337.069C267.215 335.887 266.73 334.877 265.94 333.762C265.598 333.28 264.895 333.119 264.536 332.636C263.298 332.538 262.159 332.245 261.286 332.892C261.104 332.947 260.923 333.001 260.74 333.055Z" fill="#231F20"/>
<path fill-rule="evenodd" clip-rule="evenodd" d="M255.417 347.472C255.434 346.066 254.966 346.203 254.4 345.458C253.443 345.368 252.485 345.277 251.527 345.186C251.226 345.317 250.739 346.07 250.414 346.231C249.279 346.793 247.194 347.288 246.044 347.712C244.844 348.155 243.478 347.95 242.592 348.682C242.179 348.611 242.147 348.584 241.878 348.479C241.873 348.023 241.877 347.812 241.727 347.574L241.813 344.875C242.06 344.551 244.647 344.094 245.266 343.906C248.316 342.975 251.691 341.37 255.433 341.349C255.7 340.86 255.906 340.579 256.367 340.299C256.275 339.365 255.996 339.034 255.716 338.117C254.761 337.966 253.805 337.815 252.85 337.665C249.487 338.354 245.056 340.801 241.58 340.906C241.484 340.122 241.39 339.339 241.295 338.555C243.17 337.617 246.432 337.258 248.92 336.639C249.965 336.378 251.307 336.68 252.176 336.202C252.988 336.145 252.952 335.994 253.452 335.703C253.636 330.846 244.321 334.184 241.781 334.609C240.653 334.798 239.249 332.471 237.486 333.751C236.384 334.195 237.256 335.103 235.612 336.033C235.575 336.587 235.483 336.756 235.584 336.932C235.798 338.139 236.819 338.281 237.313 339.148C237.546 339.555 237.394 340.398 237.622 340.779C237.433 341.574 236.924 341.706 236.322 341.998C236.584 343.136 237.39 343.726 237.681 344.563C238.113 345.808 237.266 348.596 236.817 349.037C236.846 351.584 239.784 353.063 242.471 352.46C246.839 351.48 251.369 349.859 255.388 348.371C255.46 347.799 255.566 347.801 255.417 347.472Z" fill="#231F20"/>
<path fill-rule="evenodd" clip-rule="evenodd" d="M212.387 335.829C211.847 337.379 209.007 339.237 207.229 339.446C207.222 338.356 207.134 337.904 206.77 336.91C207.82 336.424 210.116 336.112 210.774 335.598L212.574 335.655C212.511 335.713 212.449 335.771 212.387 335.829ZM202.179 334.061C201.947 334.482 201.821 334.688 201.43 334.938C201.615 336.927 202.516 336.495 202.963 337.688C203.183 338.276 202.988 338.866 203.271 339.319C203.188 339.686 203.215 339.664 203.074 339.853C202.704 340.147 202.215 340.3 201.617 340.347C201.606 340.838 201.598 341.171 201.763 341.432C201.732 343.051 202.734 343.51 203.841 344.02C204.247 346.847 203.482 350.018 205.961 350.932L205.955 351.111C207.094 351.182 207.769 351.177 208.311 350.646C209.503 349.246 208.38 347.683 208.09 346.317C207.891 345.382 208.222 344.609 207.805 343.967C207.975 342.219 209.809 342.419 211.112 341.912C212.864 341.23 214.138 339.54 215.719 338.637L215.737 338.098C216.684 337.875 216.672 336.944 217.234 336.345C217.51 328.87 205.792 333.759 202.179 334.061Z" fill="#231F20"/>
<path fill-rule="evenodd" clip-rule="evenodd" d="M233.072 342.255C230.188 342.532 228.172 343.941 225.958 345.089C225.172 345.497 224.925 346.147 223.759 346.279C223.84 343.251 224.181 339.343 224.581 337.481C224.776 336.567 224.583 335.905 225.009 335.334C225.049 333.691 224.316 333.821 223.645 332.949C222.27 332.915 221.686 333.183 220.575 333.211C219.57 335.411 221.19 335.461 220.414 338.248C219.82 340.378 218.933 347.464 219.708 349.031C220.179 349.983 221.248 350.537 221.978 351.265C225.731 351.369 228.318 347.981 231.129 346.695C232.638 346.005 234.181 346.267 234.622 344.466C235.136 343.466 233.586 342.873 233.072 342.255Z" fill="#231F20"/>
<path fill-rule="evenodd" clip-rule="evenodd" d="M197.122 345.786C197.027 345.118 196.474 343.365 196.5 342.704C196.51 342.468 196.73 341.414 196.563 340.725C196.293 339.61 195.117 334.247 194.804 333.826C194.548 333.482 194.321 333.776 194.101 333.263C193.275 333.272 191.951 333.161 191.205 333.71C189.917 334.175 187.129 338.358 186.86 340.055C184.995 339.402 182.26 336.018 180.545 334.81C179.669 334.193 177.548 334.29 176.761 334.869C175.616 335.483 177.036 337.034 177 338.658C176.919 342.281 177.589 346.085 177.379 349.296C178.018 349.952 178.77 350.962 179.283 351.698C180.674 351.777 181.029 351.546 181.651 350.873C182.434 349.903 181.502 347.921 181.244 346.718C180.769 344.509 180.916 341.861 181.102 339.87C183.549 341.441 184.76 343.979 186.855 345.817C187.432 346.304 188.578 346.19 189.183 346.252C189.434 345.765 189.974 345.086 190.134 344.661C190.226 343.644 190.319 342.626 190.412 341.609C190.728 340.926 191.331 340.155 191.566 339.305L192.106 339.322C192.266 342.264 193.484 346.595 192.688 349.245C192.725 349.333 193.853 351.423 193.879 351.445C194.54 352.006 194.631 351.208 194.935 352.199C196.145 352.238 196.705 352.065 197.472 351.74C198.36 349.67 197.233 348.654 196.913 346.68C196.982 346.382 197.052 346.084 197.122 345.786Z" fill="#231F20"/>
<path fill-rule="evenodd" clip-rule="evenodd" d="M170.563 342.775C170.82 341.677 170.318 339.969 170.858 339.183C170.929 337.417 171.3 334.874 170.863 333.42C169.988 333.208 169.026 333.007 167.996 332.968C167.76 333.159 167.345 333.346 167.079 333.479C167.743 336.673 166.159 341.212 166.727 344.453C166.981 345.9 165.974 347.512 166.595 348.591C166.781 349.765 167.644 349.952 168.331 350.628C169.996 350.68 170.079 350.031 170.895 349.269C170.753 346.816 169.993 345.216 170.563 342.775Z" fill="#231F20"/>
</svg>
