<svg width="280" height="196" viewBox="0 0 280 196" fill="none" xmlns="http://www.w3.org/2000/svg">
<path fill-rule="evenodd" clip-rule="evenodd" d="M86.897 62.9256C88.1593 61.3877 89.4215 59.8497 90.6838 58.3118C91.8135 56.9359 93.0231 54.7834 94.4596 53.7546C93.905 53.8334 93.3504 53.9127 92.7963 53.9915C95.3519 55.1894 97.8643 58.7455 99.5769 60.8863C101.587 63.3992 104.879 59.2031 103.242 57.1571C100.962 54.3065 98.1338 50.386 94.7679 48.8076C94.286 48.5818 93.5173 48.7488 93.1047 49.0438C91.4525 50.2268 90.2912 52.0198 89.0111 53.5794C87.5192 55.3974 86.0274 57.2148 84.5349 59.0323C83.7147 60.0322 83.0818 61.63 83.8833 62.8435C84.5821 63.9011 86.09 63.9083 86.897 62.9256Z" fill="#231F20"/>
<path fill-rule="evenodd" clip-rule="evenodd" d="M175.23 108.342C177.316 107.09 179.401 105.838 181.487 104.587C183.099 103.619 185.363 102.724 185.876 100.702C186.35 98.8403 185.068 96.9485 184.367 95.2958C183.325 92.8433 182.284 90.3908 181.243 87.9389C179.987 84.9823 175.844 88.3909 176.87 90.8057C177.633 92.6043 178.397 94.4023 179.161 96.2009C179.823 97.7599 181.137 99.7498 181.399 101.4C181.74 100.549 182.081 99.6982 182.423 98.8469C181.383 99.8574 179.476 100.598 178.218 101.353C176.728 102.248 175.238 103.142 173.748 104.036C171.278 105.518 172.121 110.207 175.23 108.342Z" fill="#231F20"/>
<path fill-rule="evenodd" clip-rule="evenodd" d="M77.6491 136.282C75.6287 140.29 73.956 144.439 72.6167 148.723C72.4026 149.407 72.6128 150.409 73.3182 150.75C76.1328 152.112 78.8011 153.681 81.3589 155.477C83.5207 156.996 87.2943 152.995 84.8557 151.283C82.2978 149.486 79.6291 147.917 76.815 146.556C77.0491 147.231 77.2831 147.907 77.5166 148.583C78.729 144.704 80.2469 140.979 82.0754 137.35C83.7071 134.113 78.943 133.714 77.6491 136.282Z" fill="#231F20"/>
<path fill-rule="evenodd" clip-rule="evenodd" d="M120.616 119.981C113.252 112.347 107.109 103.132 103.052 93.2966C114.422 92.3876 125.853 92.6133 137.193 93.8828C133.635 103.012 128.196 111.361 121.759 118.752C121.382 119.166 121.001 119.577 120.616 119.981ZM226.092 130.268C224.189 118.338 211.39 109.895 201.749 104.496C198.771 102.828 194.617 110.035 197.59 111.701C205.761 116.277 215.64 122.542 219.339 131.646C220.183 133.726 220.517 136.188 220.039 138.006C219.88 138.456 219.688 138.892 219.466 139.317C218.387 140.963 215.83 142.69 213.507 143.783C205.385 147.606 195.545 147.931 186.749 147.521C179.737 147.195 172.596 146.286 165.642 144.697V134.446C165.642 133.731 165.086 133.374 164.532 133.374C163.976 133.373 163.421 133.73 163.421 134.446V144.164C159.388 143.15 155.429 141.905 151.613 140.394C141.679 136.463 132.348 130.729 124.373 123.59C124.388 123.574 124.404 123.558 124.418 123.541C124.493 123.462 124.568 123.374 124.643 123.281C125.595 122.194 126.53 121.087 127.443 119.959C133.06 113.135 137.806 105.492 141.255 97.4024C141.281 97.3413 141.307 97.2798 141.333 97.2193C141.604 96.5777 141.871 95.9354 142.126 95.2887C142.223 95.0453 142.314 94.8001 142.408 94.5556C153.516 96.1772 164.563 98.7844 175.254 102.267C174.98 102.431 174.706 102.595 174.433 102.759C172.775 103.755 171.39 105.864 171.492 107.854C171.58 109.567 172.953 110.576 174.548 109.619C176.933 108.188 179.317 106.757 181.701 105.327C183.646 104.159 185.505 103.074 186.34 100.805C187.176 98.5354 186.15 96.794 185.277 94.7386C184.166 92.1231 183.055 89.5076 181.945 86.8915C180.262 82.9288 174.949 88.974 176.172 91.853L177.231 94.3481C166.682 91.0078 155.823 88.4693 144.898 86.8937C148.87 72.2571 149.617 56.3976 147.151 41.2347H174.558H174.56C175.987 41.2347 175.99 39.0163 174.56 39.0163H174.558H146.767C145.757 33.5296 144.323 28.1466 142.463 22.961C138.239 11.1973 127.448 -6.71977 112.659 2.58595C111.209 3.49883 109.867 4.55203 108.624 5.71559C105.785 8.21242 103.505 11.4153 101.644 14.896C98.8181 19.9601 96.832 25.5888 95.3368 30.802C94.9392 32.1863 94.5731 34.5362 96.5425 34.8529C97.4316 34.9965 98.3528 34.4569 99.1009 33.7015C99.3932 33.5645 99.6489 33.2833 99.8358 32.8197C100.206 32.2917 100.481 31.7454 100.611 31.2934C103.539 21.0837 112.274 -0.20205 125.987 10.6538C131.183 14.7679 134.34 21.4869 136.558 27.5593C137.923 31.2934 139.006 35.128 139.858 39.0163H129.936H129.934C128.507 39.0163 128.504 41.2347 129.934 41.2347H129.936H140.319C141.212 45.8024 141.794 50.4334 142.132 55.0577C142.903 65.6152 142.296 76.0362 139.65 86.2293C126.637 84.8095 113.557 84.8173 100.534 86.1771C97.9978 77.4704 96.9191 68.681 96.9291 59.7558C97.6146 60.6037 98.2529 61.4395 98.8314 62.1638C101.162 65.0766 106.008 58.4009 103.991 55.8796C102.219 53.664 99.9417 50.5576 97.4094 48.728C97.2685 47.2189 95.6618 46.7675 94.3563 47.4141C93.8366 47.6715 93.399 48.0381 93.023 48.4646C93.0047 48.4779 92.9864 48.4906 92.9676 48.5039C91.2544 49.7307 89.986 51.7539 88.6627 53.3656C87.1703 55.183 85.6789 57.0005 84.1865 58.8179C83.1638 60.0647 81.9825 62.6092 83.1383 64.1205C84.3141 65.659 86.3727 64.2081 87.2496 63.14C88.5091 61.6054 89.7686 60.0708 91.0281 58.5362C90.6327 68.1636 91.3914 77.6817 93.6641 87.0462C85.283 88.278 76.9855 90.081 68.8672 92.4947V60.1384C68.8672 59.4247 68.312 59.0669 67.7569 59.0675C67.2023 59.0664 66.6466 59.423 66.6466 60.1384V93.1718C63.3772 94.194 60.1372 95.3132 56.936 96.541C51.695 98.5504 46.2648 100.671 41.4314 103.571H41.4309C32.3892 108.362 21.0702 115.598 15.8203 125.402C14.4665 127.727 13.4838 130.243 13.2098 132.885C13.1432 133.281 13.0828 133.68 13.0368 134.083C11.6563 146.243 23.4045 151.917 33.5327 153.943C42.3676 155.709 51.487 155.443 60.4006 154.486C61.4161 154.377 62.38 153.478 63.0655 152.339C63.5896 151.977 63.7914 151.458 63.731 150.917C64.4365 148.871 64.1403 146.756 61.8104 147.006C53.2739 147.922 44.4635 148.008 36.0224 146.258C30.5523 145.123 24.1705 143.019 20.7502 138.28C19.1241 136.026 18.7326 133.65 19.1602 131.33C19.8617 128.807 21.2571 126.393 22.8272 124.359C23.018 124.112 23.2188 123.873 23.4151 123.631C28.3095 117.988 35.0501 113.873 41.5435 110.432C41.544 110.431 41.5451 110.431 41.5457 110.431C46.0896 107.704 51.1747 105.669 56.1102 103.799C59.5814 102.484 63.0971 101.295 66.6466 100.221V112.479C66.6466 113.193 67.2023 113.55 67.7569 113.55C68.312 113.551 68.8672 113.194 68.8672 112.479V99.5642C77.6455 97.038 86.6245 95.22 95.6868 94.057C99.645 105.589 106.33 116.559 114.725 125.49C104.478 134.159 92.5233 140.262 79.5162 143.725C80.2649 141.802 81.094 139.912 82.0258 138.064C82.6752 136.775 83.6264 134.184 81.9442 133.213C80.3603 132.299 78.3315 134.321 77.7032 135.568C75.6101 139.72 73.8198 143.967 72.4316 148.407C72.1028 149.459 71.638 151.602 72.989 152.255C75.8031 153.617 78.4718 155.186 81.0297 156.982C83.7395 158.885 88.0399 151.78 85.1892 149.778C84.9519 149.611 84.7084 149.456 84.4693 149.293C97.0733 145.044 108.702 138.313 118.596 129.323C131.351 140.994 146.836 148.584 163.421 152.378V177.674V179.078C163.421 179.792 163.976 180.15 164.532 180.149C165.086 180.151 165.642 179.794 165.642 179.078V177.674V152.862C172.049 154.189 178.607 154.962 185.226 155.187C195.192 155.524 206.24 154.771 215.159 149.862C222.223 145.975 227.419 138.593 226.092 130.268Z" fill="#231F20"/>
<path fill-rule="evenodd" clip-rule="evenodd" d="M66.1579 52.2611C66.2849 52.8806 65.9943 53.743 66.058 53.9582C66.1495 54.9725 66.8001 54.9188 67.4562 55.3558C68.0424 55.3042 68.2681 55.0835 68.6536 54.8566C68.602 53.1512 68.2288 51.605 68.3541 50.1647C69.0046 50.5984 69.4411 51.3166 70.0517 51.7619C70.3889 52.0082 70.7212 52.1141 71.0495 52.3609C71.4155 52.727 71.7821 53.093 72.1482 53.459C72.304 53.5688 72.5314 53.5173 72.6467 53.6587C73.1891 54.3231 73.6739 55.5382 74.6439 55.4556C75.4342 55.4124 75.4065 55.0097 75.8413 54.657C75.8141 53.8717 75.5911 53.5256 75.4419 52.7602L75.6422 51.163C75.5135 49.5008 75.5157 47.0411 75.3427 45.5725C75.2839 45.0778 74.4975 44.8277 74.244 44.4744H73.1464C73.0344 44.6497 72.8958 44.8338 72.7471 44.9736C72.7322 45.633 73.3982 46.8154 73.3455 47.8686C73.294 48.9079 73.2357 50.6133 73.1464 51.7619C72.6944 51.6 72.4942 51.2162 72.1482 50.9633C70.5121 49.7687 69.5759 48.5724 68.3541 46.9701C68.0957 46.6307 67.4651 46.567 67.1567 46.2713C66.5006 46.3235 65.9027 46.6329 65.7585 47.1698C65.8251 47.5691 65.8922 47.9684 65.9588 48.3678C66.0736 49.6339 65.9177 51.0859 66.1579 52.2611Z" fill="#231F20"/>
<path fill-rule="evenodd" clip-rule="evenodd" d="M42.9976 48.2678C43.1762 50.5284 43.519 52.3076 43.4968 54.7567C43.7352 54.9902 43.8345 55.4549 44.0957 55.6552C44.3364 55.8393 44.6021 55.8265 44.7945 56.0545C45.2454 56.06 45.5555 56.0456 45.7928 55.8548C46.3757 55.3679 46.0995 54.3718 45.8927 53.5588C45.434 51.7502 45.6436 49.8928 45.1939 48.0682C45.2743 47.9656 45.2305 48.0438 45.2942 47.8685C46.2914 47.8763 47.6757 47.7393 48.2886 47.6689C49.0866 47.5768 49.7782 47.95 50.2857 47.569C50.517 47.4947 50.5081 47.4653 50.6845 47.3694C50.7072 47.1381 50.7044 47.0882 50.7843 46.97C50.7255 45.4987 49.202 45.4538 47.8892 45.6723C47.0695 45.8087 45.4479 45.9413 44.1956 45.8719C43.9471 45.8581 43.5589 45.6362 43.3969 45.6723C43.2638 45.7017 42.7558 46.1115 42.5983 46.1714C41.7154 46.5064 40.8652 46.1753 39.9029 46.4709C39.7144 46.5291 39.4798 46.7061 39.2041 46.7704C39.1226 47.0887 38.964 47.3195 39.1043 47.569C39.6201 48.9805 41.5728 48.3643 42.9976 48.2678Z" fill="#231F20"/>
<path fill-rule="evenodd" clip-rule="evenodd" d="M34.9114 50.1646H34.7123C34.745 49.9649 34.7788 49.7653 34.8115 49.5656H35.111C35.1443 49.6654 35.1776 49.7653 35.2109 49.8651L35.3112 49.9649C35.1853 50.0204 35.0095 50.0847 34.9114 50.1646ZM38.5052 51.5622C39.1813 51.56 39.4608 51.4474 39.9028 51.2627C40.0581 50.8978 40.1735 50.5201 39.9028 50.1646C39.4841 49.2439 38.2662 49.4314 37.3073 49.5656C37.244 49.1996 36.0239 46.4016 35.9097 46.2712C35.6884 45.7732 34.4527 45.3145 33.9131 45.7721C33.3424 46.0727 33.6696 46.8558 33.4139 47.4692C33.0119 48.437 32.0746 49.844 31.7168 50.8634C31.4118 51.733 31.4567 52.9076 30.9182 53.5588C30.9082 54.4844 31.1012 54.643 31.4174 55.156C32.5499 55.4267 32.5654 55.5448 33.4139 54.9564C33.4661 54.2886 33.9192 53.2942 33.7134 52.7601C33.7456 52.53 33.76 52.5122 33.8138 52.3608C34.5365 52.3686 35.4482 52.3686 35.9097 52.0613C36.6711 52.1373 37.7193 54.811 37.4071 55.6552C37.7659 56.014 38.721 57.2441 39.5035 56.7533C40.057 56.6984 40.0176 56.5331 40.3027 56.2541C40.2295 54.6003 38.7065 53.1866 38.5052 51.5622Z" fill="#231F20"/>
<path fill-rule="evenodd" clip-rule="evenodd" d="M18.939 49.865C19.1835 50.6886 19.0843 51.6808 19.2385 52.4606C19.3632 53.0895 19.0593 54.4655 19.1386 54.8565C19.1985 55.7 20.8313 57.0793 22.0337 56.7532C23.8622 56.2574 25.673 55.1798 27.3246 54.4572C28.0278 54.1494 28.8481 54.1993 29.421 53.8582C29.4321 53.0956 29.3123 52.79 29.1215 52.3608C28.5874 52.338 28.2647 52.0025 27.8243 52.0613C27.3629 52.1228 27.1194 52.4933 26.8254 52.6603C26.1422 53.0479 25.3663 53.0191 24.6292 53.3591C23.6969 53.7894 22.5916 54.4988 21.4347 54.6568C21.3681 54.2908 21.3016 53.9248 21.235 53.5587C22.6842 53.0052 24.058 52.1805 25.5277 51.662C26.6358 51.2715 27.8931 51.1806 28.822 50.6637C28.8248 50.3731 28.827 50.1196 28.7222 49.9649C28.5614 49.3803 27.9485 49.4746 27.6241 49.0664C25.3774 49.5938 23.2266 50.7086 21.0354 51.1628C20.9122 50.8151 20.8507 50.2943 20.7359 49.9649C21.3659 49.6709 22.0947 49.6338 22.8328 49.3659C23.7369 49.0381 24.7812 48.5811 25.7273 48.2678C26.5237 48.0049 27.3823 48.2556 28.0234 47.8685C28.4726 47.8224 28.4499 47.7392 28.7222 47.569C28.7544 47.0576 28.7538 46.9822 28.7222 46.4709C28.248 46.2424 27.9125 46.2357 27.5243 45.8719C26.0584 46.0255 24.3713 46.7543 23.032 47.1697C22.3293 47.3876 21.4763 47.3726 20.9355 47.7686C20.1918 47.7348 19.9944 47.1613 19.7376 46.6705C19.2107 46.6633 18.934 46.7116 18.6395 46.8702C18.6733 47.2029 18.706 47.5357 18.7393 47.8685C18.6395 48.2012 18.5396 48.534 18.4398 48.8668C18.4847 49.1901 18.8524 49.5733 18.939 49.865Z" fill="#231F20"/>
<path fill-rule="evenodd" clip-rule="evenodd" d="M52.2819 54.8565C52.3961 55.6879 52.8814 55.8476 53.2802 56.3539C54.2707 56.4072 54.4936 56.3079 55.1769 55.9546C55.0954 54.8088 54.7659 53.343 54.9772 52.3608C55.1547 51.5378 55.1941 50.9077 55.0771 50.2644C54.8103 48.7986 55.4853 47.2889 54.6778 46.4709C54.2779 46.1376 53.599 46.0433 52.781 46.0716C52.6595 46.2757 52.7167 46.2607 52.4815 46.3711C52.41 47.1153 52.6196 47.5302 52.781 48.168C53.0328 49.1651 52.796 51.9975 52.6812 52.5604C52.5137 53.3813 52.7322 54.3418 52.2819 54.8565Z" fill="#231F20"/>
<path fill-rule="evenodd" clip-rule="evenodd" d="M0.470672 52.0613C0.503948 53.0929 0.537225 54.1244 0.570501 55.156C0.480655 55.5326 0.383044 55.953 0.370843 56.4538C0.537225 56.6202 0.703606 56.7866 0.869988 56.9529C1.42903 57.3866 2.09567 57.1731 2.76674 57.0528C2.8527 56.7938 3.00078 56.5442 3.16605 56.354C3.07066 55.6352 2.79613 54.6275 2.66691 53.7584C2.49554 52.6109 2.6597 50.2794 2.46725 49.2661C2.33248 48.559 2.60313 47.4298 2.26759 46.8702C2.05074 46.4055 1.34251 46.3561 0.770159 46.2712C0.640936 46.3605 0.223873 46.4226 0.0713563 46.4709C-0.150486 47.5413 0.190596 49.0426 0.470672 50.2644V52.0613Z" fill="#231F20"/>
<path fill-rule="evenodd" clip-rule="evenodd" d="M61.0667 52.6603C60.9003 52.8267 60.7339 52.993 60.5681 53.1594C60.1987 53.3502 60.1083 53.1761 59.8687 53.4589C59.5476 53.3718 59.7146 53.5133 59.5692 53.2593C58.9958 52.0458 60.5004 50.4901 61.0667 49.9649C61.801 50.0414 62.1798 50.4474 62.6639 50.7635C62.2386 51.8467 61.9718 52.0824 61.0667 52.6603ZM63.6622 49.0664C63.2868 48.8679 62.0677 48.6372 61.8653 48.3676C61.832 48.1347 61.7988 47.9018 61.7655 47.6688C61.613 47.4292 60.6762 47.0266 60.3679 46.97C60.1837 47.1203 60.0068 47.1558 59.6691 47.1697C58.8716 48.712 56.0181 51.6381 57.5727 54.1577C59.2731 56.9135 62.9612 54.6169 64.361 53.0596C64.7348 52.6436 64.7409 52.0574 65.0598 51.5622C65.0576 50.5678 64.2679 49.387 63.6622 49.0664Z" fill="#231F20"/>
<path fill-rule="evenodd" clip-rule="evenodd" d="M13.2489 51.6621C11.9206 52.6814 11.1103 53.7524 8.85639 53.6587C8.79372 52.2732 8.6645 50.6227 8.75601 49.5657C9.88463 49.0183 12.9671 48.5446 14.0469 49.6655C14.6243 50.498 13.7491 51.2777 13.2489 51.6621ZM16.2432 49.6655C16.0591 47.7582 12.2118 47.0012 9.85468 47.0699C9.50916 47.304 6.95965 47.4693 6.95965 47.4693C6.64352 47.5258 6.66959 47.5569 6.4605 47.6689C6.36123 48.178 6.45551 48.5879 6.55977 48.9667C6.7855 49.7803 6.54092 51.8673 6.66016 52.5605C6.78494 53.2887 6.58196 54.2227 6.75999 54.5571C6.74169 55.9453 7.1715 55.9031 7.65845 56.6535C8.82145 56.5975 9.55575 55.8527 10.3538 55.4556C10.6866 55.389 11.0188 55.3225 11.3521 55.2559C12.8995 54.5249 14.4479 53.7507 15.4451 52.4607C15.815 51.9821 17.0052 50.5545 16.2432 49.6655Z" fill="#231F20"/>
<mask id="mask0" mask-type="alpha" maskUnits="userSpaceOnUse" x="270" y="31" width="10" height="12">
<path d="M270.566 31.2969H280V42.5775H270.566V31.2969Z" fill="white"/>
</mask>
<g mask="url(#mask0)">
<path fill-rule="evenodd" clip-rule="evenodd" d="M271.564 41.2798C271.666 41.4478 271.88 41.4733 272.063 41.5793C273.005 42.1233 273.464 41.6558 274.06 41.0801C273.931 40.3197 272.998 37.2999 273.262 36.6876C273.295 36.6544 273.328 36.6211 273.361 36.5878C273.699 37.0986 274.174 37.4158 274.659 37.7858C275.476 38.4086 276.182 39.398 276.855 40.1816C276.955 40.2149 277.055 40.2482 277.155 40.2815C277.228 40.4689 276.926 40.7695 277.055 41.0801C277.325 41.729 277.949 42.1427 278.452 42.5775C278.834 42.5692 279.132 42.5404 279.351 42.3779C280.1 42.0928 280.101 40.7119 279.85 39.6825C279.443 38.0176 279.527 35.6367 279.152 33.5929C279.06 33.0971 279.43 32.4871 279.152 31.9957C278.885 31.5259 277.989 31.298 277.254 31.2969C277.147 31.3729 277.162 31.3595 276.955 31.3967C276.775 32.1155 276.958 36.4941 277.454 37.2866V37.7858C275.794 36.9871 274.775 34.5419 273.161 33.5929C272.727 33.3373 271.73 32.6318 271.165 32.8941H270.666C270.304 34.3356 271.021 37.4491 271.365 39.0835C271.566 40.0413 271.193 40.663 271.564 41.2798Z" fill="#231F20"/>
</g>
<path fill-rule="evenodd" clip-rule="evenodd" d="M254.194 34.5915C254.972 34.5111 255.055 34.0735 255.492 33.693C255.473 32.875 254.514 32.0331 253.695 32.1956C253.3 32.2738 252.848 32.5977 252.497 32.6947H251.499C250.479 32.9371 249.109 33.0641 248.105 33.2937C247.474 33.4374 246.802 33.1894 246.408 33.2937C245.041 33.6548 243.379 34.2587 241.716 34.3918C241.664 34.5327 241.597 34.8721 241.516 34.9908C241.542 35.77 242.102 36.2176 242.714 36.3884C242.999 36.557 245.302 36.0018 245.609 35.7894C245.917 35.7939 246.12 35.8238 246.307 35.8893C246.592 37.2303 247.444 40.345 247.006 41.28C247.276 42.113 247.851 42.3188 248.504 42.7775C249.284 42.6405 249.247 42.1857 249.702 41.7792C249.359 39.4792 248.573 37.2591 248.604 35.1905C249.681 35.1383 250.948 34.9148 251.898 34.6913C252.64 34.5166 253.761 34.7945 254.194 34.5915Z" fill="#231F20"/>
<path fill-rule="evenodd" clip-rule="evenodd" d="M257.888 42.9769C258.484 42.9203 258.576 42.6912 258.986 42.4777C259.33 40.9681 258.734 38.5129 259.186 36.488C259.37 35.66 258.875 34.9307 259.186 34.3916C259.193 33.3816 258.485 32.9723 257.488 32.994C257.273 33.1354 256.687 33.197 256.49 33.2935C256.535 35.3749 257.092 37.148 256.69 38.9837C256.509 39.8079 256.864 40.7817 256.49 41.3796C256.589 42.3407 257.337 42.4788 257.888 42.9769Z" fill="#231F20"/>
<path fill-rule="evenodd" clip-rule="evenodd" d="M267.271 37.4863C267.045 38.3964 265.303 38.9405 264.476 39.2833C264.41 39.2167 264.344 39.1501 264.277 39.0836C264.277 38.5168 264.332 37.9361 264.577 37.5862C264.748 37.1647 265.275 36.9916 265.574 36.6877C266.273 36.6838 266.868 36.7115 267.372 36.8874C267.369 37.1597 267.367 37.3449 267.271 37.4863ZM266.573 34.6911C266.097 33.5314 265.381 33.5359 264.277 33.2935C263.542 34.0755 261.327 37.3033 261.981 39.2833C262.113 39.6826 262.511 40.6099 262.979 40.9803C263.207 41.1606 263.396 41.1573 263.578 41.3797C265.57 41.5261 268.659 39.9943 269.468 38.6843C270.835 36.4731 268.31 34.644 266.573 34.6911Z" fill="#231F20"/>
<path fill-rule="evenodd" clip-rule="evenodd" d="M215.361 35.6896C214.718 36.146 214.374 36.9901 213.763 37.4865C213.379 37.7993 212.821 37.852 212.466 38.1853C212.213 38.1748 212.096 38.1731 211.967 38.0855C211.683 37.6717 211.832 36.9918 211.667 36.6879C211.707 36.4827 211.692 36.4954 211.767 36.3884C212.296 35.9453 214.462 35.4261 215.361 35.3901V35.6896ZM215.261 33.4933C214.835 33.7668 214.017 33.5627 213.464 33.693C212.721 33.8677 211.966 34.1295 211.268 34.292C210.643 34.4373 209.733 34.1206 208.972 34.1922C208.857 34.5044 208.448 35.4506 208.473 35.6896C208.531 36.252 209.176 36.5448 209.371 36.9874C209.868 38.116 210.05 41.1264 209.97 41.879C210.053 42.387 211.017 43.2649 211.467 42.9771C212.394 42.9826 212.26 42.6338 212.665 42.1785C212.643 41.6976 212.505 41.0842 212.266 40.7809C212.324 39.5896 213.899 39.68 214.662 39.1836C215.748 38.4765 216.864 37.385 217.557 36.2886C217.813 35.8837 217.871 35.3768 218.156 34.9908C218.063 33.5399 216.355 33.6198 215.261 33.4933Z" fill="#231F20"/>
<path fill-rule="evenodd" clip-rule="evenodd" d="M195.595 36.1887C195.641 35.9086 195.384 35.293 195.494 35.0905C195.503 34.1777 195.245 34.2625 194.895 33.7928C194.397 33.7595 193.897 33.7262 193.398 33.6929C193.285 33.8116 193.144 33.907 192.999 33.9924C192.883 35.1116 193.29 37.0328 193.698 38.0854H193.598V38.1852C192.463 37.7671 191.517 36.3057 190.703 35.4899C190.504 35.2907 190.202 35.1904 190.004 34.9907C189.84 34.8249 189.807 34.5176 189.604 34.3917C189.078 34.0651 188.028 33.7711 187.509 33.9924C187.009 34.0434 186.931 34.1982 186.61 34.3917C186.896 35.7677 187.005 37.3356 187.009 38.884C187.011 39.4647 187.241 40.2129 187.009 40.5811V41.8789C187.192 42.1429 188.301 42.5722 188.606 42.378C189.207 42.3342 189.153 42.1268 189.505 41.8789C189.519 40.8174 189.286 40.1513 189.106 39.0837C189.005 38.4919 189.461 37.6528 189.106 37.0871V36.9873C189.74 37.157 189.784 37.5596 190.203 37.8857C190.989 38.4958 191.709 39.0859 192.5 39.6827C192.831 39.9322 192.989 40.4208 193.298 40.681C193.552 40.8939 194.025 41.0032 194.197 41.2799C194.387 41.5866 194.221 41.8795 194.197 42.1784C194.595 42.3897 194.761 42.728 195.195 42.8772V42.977C196.421 43.0197 196.505 42.6199 196.892 41.8789C196.912 41.7292 196.677 41.4347 196.593 41.1801V40.1818C196.272 39.087 195.414 37.2724 195.595 36.1887Z" fill="#231F20"/>
<path fill-rule="evenodd" clip-rule="evenodd" d="M201.385 41.8788C201.02 41.2394 200.674 41.3386 200.287 40.8805C199.808 40.8711 199.44 40.8783 199.188 41.0802C198.822 41.337 198.834 41.7013 198.69 42.1783C198.797 42.2842 198.784 42.4667 198.889 42.5776C199.222 42.9309 199.773 43.1034 200.087 43.4761C202.678 43.5082 204.205 42.8732 205.777 41.6792C206.022 41.4928 206.111 41.1667 206.376 40.9804C206.388 40.3015 206.309 39.9937 205.977 39.6826C205.357 39.1801 203.209 38.5545 202.383 38.1851C202.392 37.8014 202.416 37.5928 202.582 37.3865C202.876 36.5197 204.83 35.914 205.578 35.6894C205.642 35.4088 205.753 35.0466 205.578 34.791C205.424 34.3889 204.868 34.1426 204.379 34.0922C203.844 34.4155 203.125 34.3068 202.582 34.5913C201.371 35.2269 199.121 37.1297 200.586 39.0836C201.236 39.9505 202.497 39.8329 203.382 40.4812H203.581C203.383 41.2848 202.143 41.6104 201.385 41.8788Z" fill="#231F20"/>
<path fill-rule="evenodd" clip-rule="evenodd" d="M238.221 38.2849C237.764 38.2783 237.236 38.2772 236.924 38.3848V38.2849C236.78 38.0276 237.268 37.3305 237.423 36.9872C237.896 37.1552 238.004 37.5712 238.322 37.8856C238.289 38.1158 238.275 38.1335 238.221 38.2849ZM228.039 37.087C227.293 37.707 226.698 38.3493 225.743 38.7841L225.643 38.6843C225.637 38.2267 225.636 37.6987 225.743 37.3865C226.279 37.2495 227.471 37.1181 227.839 36.8873H228.039V37.087ZM244.212 42.4778C244.064 41.8555 242.462 40.2776 242.015 39.5827C242.426 39.4252 242.901 39.3287 243.113 38.9837C243.294 38.6909 243.014 38.7675 243.313 38.5844C243.287 37.9877 243.136 37.9311 242.913 37.5861C242.57 37.4564 241.272 36.9911 240.817 37.5861C239.517 37.2811 239.404 34.6933 237.922 34.192C237.406 33.8464 236.257 34.248 235.925 34.4914C235.383 34.8913 235.411 35.9301 235.127 36.5879C234.655 37.6788 233.999 38.9155 233.529 39.982C233.359 40.3703 233.357 40.6786 233.13 40.9803C233.036 41.1822 232.597 40.55 232.432 40.4812H231.533C230.602 40.2261 229.286 40.1756 228.538 39.6826L228.438 39.5827C229.172 39.2073 230.109 38.3737 230.535 37.686C230.719 37.3893 230.717 37.0332 230.934 36.7875C230.902 34.5852 227.514 34.924 225.743 35.1902C225.161 35.2779 224.154 34.6728 223.647 34.9906C223.119 35.1298 223.268 35.4859 222.948 35.7892C223.01 36.4459 223.306 37.0609 223.447 37.5861C223.561 38.0137 223.33 38.4929 223.347 38.7841C223.382 39.3842 223.525 40.3741 223.647 40.9803C223.797 41.7302 223.336 42.1705 223.447 42.5776C223.591 43.5021 224.261 43.44 224.744 43.9752C225.638 43.968 225.848 43.4555 226.143 42.8771C226.282 42.6791 225.851 41.4656 225.843 40.8805C226.701 40.967 227.478 41.3164 228.139 41.5793C229.002 41.922 229.94 41.6863 230.734 42.0784C231.005 42.2121 231.3 42.5915 231.633 42.6774C232.12 42.8033 232.415 42.4794 232.731 42.3779C233.015 43.1827 233.296 43.724 234.328 43.7755C235.258 42.8549 236.076 42.3557 235.826 40.4812C236.745 40.4058 238.601 40.5272 239.419 39.982C240.409 40.088 241.635 42.7423 242.115 43.5759C242.376 43.6896 242.65 43.8426 242.913 43.6757C243.643 43.6857 243.85 43.506 244.111 43.0767C244.203 42.9431 244.234 42.5804 244.212 42.4778Z" fill="#231F20"/>
<path fill-rule="evenodd" clip-rule="evenodd" d="M218.854 43.3764C219.066 43.5771 219.165 43.8489 219.354 44.0752C219.73 44.3841 220.247 44.4384 220.651 44.4745C220.918 44.2083 221.184 43.942 221.451 43.6758C221.462 40.8268 222.012 36.2547 221.051 34.7911C220.559 34.679 220.13 34.5792 219.453 34.5914C219.313 34.7883 219.323 34.8022 219.054 34.8909C218.898 35.623 219.049 36.3007 219.254 37.187V38.6844C219.254 40.6072 219.156 41.7813 218.854 43.3764Z" fill="#231F20"/>
<path fill-rule="evenodd" clip-rule="evenodd" d="M181.519 34.6911C181.368 34.8686 181.202 35.1404 181.02 35.2901C181.544 36.5435 181.375 38.0415 181.718 39.5827C181.858 40.2122 181.574 41.2565 181.718 41.5793C181.726 42.282 181.895 42.353 182.117 42.7773C182.484 42.8754 182.924 43.1394 183.216 42.9769C183.975 42.9398 184.041 42.5704 184.414 42.1783C184.326 41.5588 184.04 41.1928 183.914 40.581C183.758 39.8129 183.921 38.417 183.715 37.4863C183.522 36.6178 183.861 35.6833 183.515 35.1903C183.232 34.6567 182.371 34.6512 181.519 34.6911Z" fill="#231F20"/>
<path fill-rule="evenodd" clip-rule="evenodd" d="M192.3 40.082H192.101C192.203 40.1624 192.126 40.1186 192.3 40.1819V40.082Z" fill="#231F20"/>
<path fill-rule="evenodd" clip-rule="evenodd" d="M145.597 175.657C145.697 175.741 145.621 175.695 145.794 175.763L145.797 175.663L145.597 175.657Z" fill="#231F20"/>
<path fill-rule="evenodd" clip-rule="evenodd" d="M233.352 186.257L233.333 186.856C232.565 186.325 231.904 185.58 231.093 185.086C230.573 184.769 229.67 184.578 229.325 184.131L229.338 183.731C229.149 183.511 228.564 183.498 228.353 183.3C227.851 183.28 227.633 183.326 227.349 183.468C227.197 184.995 227.422 186.558 227.701 188.073C227.84 188.83 227.401 189.706 227.434 190.163C227.478 190.77 227.871 191.219 228.085 191.682C228.381 191.791 228.677 191.9 228.973 192.01C229.268 191.76 229.724 191.725 229.894 191.34C230.254 190.52 229.791 187.437 229.744 186.641C230.703 186.828 231.885 187.969 232.275 188.719C232.443 189.044 232.412 189.464 232.642 189.73C232.93 190.064 233.534 190.126 233.816 190.467C233.877 190.576 233.687 191.008 233.788 191.365C233.929 191.866 234.403 192.166 234.647 192.591C234.926 192.664 235.285 192.787 235.546 192.62C235.952 192.598 236.044 192.548 236.253 192.343C236.618 191.845 236.32 190.512 236.134 189.842C235.642 188.067 235.469 185.939 235.016 184.213C234.855 183.599 234.97 182.903 234.674 182.404C234.518 182.004 233.554 181.119 233.007 181.451C232.444 181.5 232.129 181.801 232.273 182.527C232.358 182.96 233.152 185.986 233.352 186.257Z" fill="#231F20"/>
<path fill-rule="evenodd" clip-rule="evenodd" d="M208.7 182.571C207.617 182.576 206.376 182.714 205.594 182.872C203.759 183.24 201.972 182.918 200.48 183.507C200.41 183.677 200.458 183.604 200.374 183.703C200.327 184.645 200.809 185.142 201.52 185.338C201.744 185.452 203.199 185.22 203.528 185.003L204.227 185.025C204.325 185.564 204.431 186.03 204.575 186.634C204.715 187.225 204.981 188.38 205.187 189.351C205.426 190.479 204.985 191.317 205.499 192.057C205.786 192.469 206.587 192.634 207.09 192.308L207.289 192.314C207.914 189.729 206.586 187.468 206.631 184.802C208.178 184.754 210.316 184.452 212.129 184.679C212.267 184.508 212.443 184.4 212.64 184.295C212.705 184.025 212.758 183.782 212.769 183.401C212.571 183.197 212.48 182.898 212.292 182.686C211.313 181.97 210.148 182.565 208.7 182.571Z" fill="#231F20"/>
<path fill-rule="evenodd" clip-rule="evenodd" d="M217.6 185.353C217.472 184.531 217.886 184.101 217.555 183.654C217.322 183.079 216.617 182.808 215.784 182.798C215.654 182.904 215.423 183.008 215.276 183.081C215.053 184.093 215.412 185.048 215.37 186.381L215.268 189.573C215.045 190.459 214.909 191.011 214.895 191.859C215.223 192.225 215.38 192.658 215.86 192.888C216.031 193.008 216.18 193.017 216.36 192.905C218.046 192.934 217.163 191.343 217.45 190.043C217.664 189.071 217.778 186.486 217.6 185.353Z" fill="#231F20"/>
<path fill-rule="evenodd" clip-rule="evenodd" d="M221.46 189.572L221.261 189.565C221.017 188.094 221.865 187.203 222.656 186.514C223.081 186.549 223.516 186.626 223.745 186.848L223.944 186.855C223.669 188.316 222.248 188.667 221.46 189.572ZM223.519 184.544C222.686 184.255 221.441 184.503 220.928 184.361C219.45 185.773 218.179 188.589 219.619 190.911C219.897 191.358 219.931 191.648 220.489 191.838C221.231 192.346 222.11 191.699 222.497 191.502C223.526 190.981 224.944 190.102 225.567 189.204C225.865 188.773 225.904 188.239 226.21 187.826C226.302 185.895 224.924 185.032 223.519 184.544Z" fill="#231F20"/>
<path fill-rule="evenodd" clip-rule="evenodd" d="M143.487 182.281L143.481 182.481C143.66 182.393 143.593 182.451 143.487 182.281Z" fill="#231F20"/>
<path fill-rule="evenodd" clip-rule="evenodd" d="M189.585 183.757C188.596 184.439 184.888 184.416 183.785 183.971C183.495 184.231 183.306 184.193 183.164 184.65C182.471 184.586 181.413 183.982 180.776 184.374C180.434 184.507 180.556 184.61 180.36 184.86C180.412 186.239 181.943 186.757 183.496 186.759C183.792 187.682 183.68 191.173 183.336 191.747C183.346 192.615 183.95 192.703 184.286 193.276C184.869 193.306 185.205 193.28 185.493 193.015C185.818 192.89 185.771 192.721 186.008 192.532C186.03 191.742 185.925 187.421 185.875 187.334C185.876 187.005 185.874 186.619 186.003 186.439C187.194 185.705 190.279 186.442 191.217 185.807C191.475 185.612 191.524 185.258 191.742 185.025C191.624 184.077 190.714 183.753 189.585 183.757Z" fill="#231F20"/>
<path fill-rule="evenodd" clip-rule="evenodd" d="M175.279 187.594C174.556 187.02 173.121 186.053 172.656 185.312C172.247 184.663 172.494 184 171.709 183.684C171.077 183.218 170.427 183.598 169.903 183.926C169.953 185.62 170.1 186.99 170.255 188.532C170.299 188.963 170.188 189.884 170.294 190.431C170.477 191.376 169.928 192.748 170.495 193.533C170.818 193.982 171.513 194.144 172.168 194.286C172.407 194.094 172.647 193.902 172.886 193.71C172.981 192.644 172.749 190.742 172.521 189.503C172.435 189.035 172.656 188.436 172.466 188.103L172.469 188.003C173.148 188.205 173.676 188.904 174.124 189.355C174.823 190.058 175.779 190.509 176.462 191.227C176.77 191.553 176.751 192.072 177.022 192.444C177.432 193.009 178.045 193.33 178.576 193.792C179.553 193.822 179.501 193.447 179.999 193.039C179.906 192.228 179.581 191.342 179.377 190.622C179.114 189.691 179.147 188.653 178.967 187.812C178.61 186.135 179.06 185.435 178.288 184.094C177.919 184.03 177.046 183.843 176.688 184.143L176.489 184.137C176.284 185.668 176.707 187.408 176.834 188.942C176.117 188.739 175.792 188 175.279 187.594Z" fill="#231F20"/>
<path fill-rule="evenodd" clip-rule="evenodd" d="M195.92 188.654C195.6 188.863 194.865 188.893 194.51 189.009C194.481 188.908 194.451 188.807 194.421 188.706C194.743 188.395 194.968 187.754 195.164 187.331C195.661 187.553 195.631 188.14 196.026 188.458C195.956 188.628 196.004 188.555 195.92 188.654ZM202.277 189.757C202.371 189.578 202.457 189.4 202.592 189.267C202.593 188.717 202.482 188.367 202.232 188.057C202.091 187.875 201.888 187.823 201.746 187.642C201.196 187.678 199.302 187.809 198.733 188.145C197.631 188.072 197.277 186.004 196.83 185.188C196.59 184.749 195.961 184.628 195.662 184.251C195.138 184.238 194.658 184.283 194.355 184.509C193.576 184.731 193.446 185.666 193.097 186.366C192.518 187.529 191.773 188.925 191.276 190.203C191.055 190.774 190.646 192.174 190.903 192.489C190.923 193.288 191.339 193.244 191.663 193.712C192.24 193.737 192.614 193.699 192.967 193.554C193.273 192.888 193.527 192.246 193.539 191.275C194.744 191.164 195.825 190.996 196.854 190.682C197.385 191.612 198.443 192.845 198.442 194.129C198.913 194.216 199.146 194.385 199.321 194.756C200.653 194.842 200.505 194.499 201.049 193.813C200.967 192.917 200.284 192.584 199.909 191.978C199.565 191.423 199.45 190.765 199.065 190.253L199.069 190.153C200.191 189.956 201.231 189.844 202.277 189.757Z" fill="#231F20"/>
<path fill-rule="evenodd" clip-rule="evenodd" d="M165.23 186.373C165.583 186.262 165.611 186.104 165.845 185.893C165.812 185.687 165.826 185.7 165.755 185.591C165.723 185.14 165.639 185.16 165.478 184.883C165 184.754 164.759 184.578 164.19 184.542C163.753 184.837 163.202 184.64 162.584 184.79C161.519 185.05 160.167 185.408 159.16 185.679C158.883 185.754 158.483 185.58 158.365 185.554C157.75 185.418 157.41 185.671 157.058 185.812C157.055 186.54 157.539 188.488 157.76 188.831C157.732 189.526 157.477 189.509 157.034 189.706C157.161 190.419 157.379 190.858 157.986 191.135C158.083 191.657 158.202 192.435 158.035 192.735C158.134 193.307 158.495 193.404 158.801 193.758C160.551 195.78 163.86 193.829 165.914 193.087C166.789 192.772 168.156 192.955 168.728 192.578C169.02 192.459 169.239 192.214 169.348 191.899C169.483 191.643 169.3 191.203 169.077 190.991C168.888 190.826 168.008 190.4 167.697 190.447C166.382 190.648 164.322 191.601 162.85 192.09C162.27 192.283 161.684 192.221 161.238 192.538C160.966 192.527 160.781 192.519 160.643 192.419C160.515 192.233 160.492 191.89 160.365 191.711C160.456 190.672 161.302 190.926 162 190.565C163.062 190.014 164.48 189.435 165.643 189.083C166.155 188.928 166.893 189.081 167.349 188.838C167.905 188.796 167.913 188.59 168.263 188.368C168.3 187.456 168.039 187.532 167.705 187.052C167.254 187.028 167.009 186.801 166.714 186.82C164.938 186.932 162.983 187.83 161.568 188.454C161.153 188.637 160.785 188.581 160.458 188.817C160.199 188.789 160.12 188.762 159.962 188.701C159.949 188.36 159.893 188.266 159.981 188.103C160.189 186.761 164.171 187.065 165.23 186.373Z" fill="#231F20"/>
<path fill-rule="evenodd" clip-rule="evenodd" d="M144.608 184.714C144.612 185.487 144.781 185.557 144.963 186.124C145.24 186.989 144.87 187.85 145.076 188.824C145.246 189.626 145.368 191.175 145.28 191.827C145.214 192.314 145.527 193.078 145.225 193.524C145.32 194.316 146.379 195.53 147.475 194.994C147.61 194.928 147.756 194.521 147.893 194.408C147.951 193.286 147.706 192.43 147.494 191.299C147.36 190.59 147.669 189.735 147.361 189.197L147.374 188.798C147.814 188.977 147.778 189.213 148.05 189.519C148.991 190.576 149.66 191.528 151.173 191.816C151.379 191.623 151.585 191.43 151.791 191.236C152.148 190.706 152.278 189.299 152.974 188.578L152.977 188.478C153.26 188.897 152.993 189.458 153.126 190.081C153.438 191.541 153.425 193.292 153.484 194.487C154.12 194.661 154.995 195.715 155.863 195.063C156.341 194.831 156.415 193.934 156.214 193.476C155.135 191.028 155.731 187.394 154.487 185.03C153.277 184.713 153.455 184.799 152.291 184.96C151.916 185.826 150.831 188.055 150.177 188.588C150.143 188.62 150.108 188.653 150.074 188.685C149.695 188.007 149.043 187.563 148.632 186.94C148.199 186.285 147.93 185.725 147.492 185.106C147.302 184.839 146.912 184.75 146.713 184.482C146.027 184.428 145.395 184.265 144.911 184.624C144.81 184.654 144.709 184.684 144.608 184.714Z" fill="#231F20"/>
<path fill-rule="evenodd" clip-rule="evenodd" d="M141.656 192.71C141.665 191.93 141.405 192.006 141.091 191.593C140.561 191.543 140.029 191.493 139.498 191.442C139.331 191.515 139.061 191.932 138.881 192.022C138.251 192.333 137.095 192.608 136.457 192.843C135.792 193.089 135.034 192.975 134.543 193.381C134.314 193.342 134.296 193.327 134.147 193.268C134.144 193.016 134.146 192.899 134.063 192.767L134.111 191.27C134.248 191.09 135.682 190.837 136.026 190.732C137.717 190.216 139.589 189.326 141.664 189.314C141.812 189.043 141.927 188.887 142.182 188.732C142.131 188.214 141.977 188.03 141.821 187.522C141.292 187.438 140.762 187.354 140.232 187.271C138.367 187.653 135.909 189.01 133.981 189.068C133.928 188.634 133.876 188.199 133.823 187.765C134.863 187.244 136.672 187.045 138.052 186.702C138.632 186.557 139.376 186.725 139.858 186.46C140.308 186.428 140.288 186.344 140.566 186.183C140.668 183.489 135.502 185.34 134.093 185.576C133.467 185.681 132.689 184.39 131.711 185.1C131.1 185.346 131.583 185.85 130.672 186.366C130.651 186.673 130.6 186.767 130.656 186.864C130.775 187.534 131.341 187.613 131.615 188.093C131.744 188.319 131.66 188.787 131.786 188.998C131.682 189.439 131.399 189.512 131.065 189.674C131.211 190.305 131.658 190.632 131.819 191.097C132.059 191.787 131.589 193.333 131.34 193.578C131.356 194.991 132.985 195.811 134.476 195.476C136.898 194.933 139.41 194.034 141.639 193.209C141.679 192.891 141.738 192.892 141.656 192.71Z" fill="#231F20"/>
<path fill-rule="evenodd" clip-rule="evenodd" d="M117.791 186.253C117.491 187.112 115.916 188.143 114.93 188.259C114.926 187.654 114.877 187.403 114.675 186.852C115.258 186.583 116.531 186.41 116.896 186.125L117.894 186.156C117.859 186.188 117.825 186.22 117.791 186.253ZM112.129 185.272C112.001 185.506 111.931 185.62 111.714 185.759C111.816 186.862 112.316 186.622 112.564 187.284C112.686 187.61 112.578 187.937 112.735 188.188C112.689 188.392 112.704 188.38 112.626 188.484C112.42 188.647 112.149 188.732 111.818 188.758C111.811 189.031 111.807 189.215 111.899 189.36C111.881 190.258 112.437 190.513 113.051 190.795C113.276 192.363 112.852 194.122 114.227 194.629L114.223 194.728C114.855 194.768 115.23 194.765 115.53 194.47C116.191 193.694 115.568 192.827 115.408 192.069C115.297 191.551 115.481 191.122 115.249 190.766C115.344 189.797 116.361 189.908 117.084 189.626C118.055 189.248 118.762 188.311 119.639 187.81L119.649 187.511C120.174 187.387 120.167 186.871 120.479 186.539C120.632 182.393 114.133 185.105 112.129 185.272Z" fill="#231F20"/>
<path fill-rule="evenodd" clip-rule="evenodd" d="M129.263 189.816C127.664 189.97 126.546 190.751 125.318 191.388C124.882 191.614 124.745 191.975 124.098 192.048C124.143 190.369 124.332 188.201 124.554 187.168C124.662 186.662 124.555 186.294 124.791 185.978C124.814 185.066 124.407 185.139 124.035 184.655C123.272 184.636 122.948 184.785 122.332 184.8C121.775 186.02 122.673 186.048 122.243 187.594C121.914 188.775 121.422 192.705 121.851 193.574C122.113 194.102 122.705 194.409 123.11 194.813C125.192 194.871 126.627 192.992 128.186 192.279C129.022 191.896 129.878 192.041 130.123 191.042C130.408 190.488 129.548 190.159 129.263 189.816Z" fill="#231F20"/>
<path fill-rule="evenodd" clip-rule="evenodd" d="M109.324 191.775C109.272 191.404 108.965 190.432 108.979 190.066C108.985 189.935 109.107 189.35 109.014 188.968C108.865 188.35 108.212 185.375 108.039 185.142C107.897 184.951 107.771 185.114 107.649 184.83C107.191 184.835 106.456 184.773 106.043 185.077C105.328 185.335 103.782 187.655 103.633 188.596C102.599 188.234 101.082 186.358 100.131 185.688C99.6448 185.345 98.4685 185.399 98.032 185.72C97.397 186.061 98.1845 186.921 98.1646 187.822C98.1196 189.831 98.4912 191.941 98.3748 193.722C98.7291 194.085 99.1462 194.646 99.4307 195.054C100.202 195.098 100.399 194.969 100.744 194.596C101.178 194.058 100.661 192.959 100.518 192.292C100.255 191.067 100.336 189.598 100.44 188.494C101.797 189.365 102.468 190.773 103.63 191.792C103.95 192.062 104.586 191.999 104.921 192.033C105.061 191.763 105.36 191.387 105.449 191.151C105.5 190.587 105.551 190.022 105.603 189.458C105.778 189.08 106.113 188.652 106.243 188.181L106.542 188.19C106.631 189.822 107.307 192.224 106.865 193.693C106.886 193.742 107.511 194.901 107.526 194.913C107.892 195.225 107.943 194.782 108.111 195.332C108.782 195.353 109.093 195.257 109.518 195.077C110.011 193.929 109.386 193.366 109.208 192.271C109.247 192.105 109.285 191.94 109.324 191.775Z" fill="#231F20"/>
<path fill-rule="evenodd" clip-rule="evenodd" d="M94.5953 190.105C94.7378 189.496 94.4594 188.548 94.7589 188.112C94.7983 187.133 95.0041 185.723 94.7617 184.916C94.2764 184.799 93.7429 184.687 93.1716 184.666C93.0408 184.772 92.8106 184.875 92.6631 184.949C93.0313 186.72 92.1528 189.238 92.4678 191.035C92.6087 191.838 92.0502 192.732 92.3946 193.33C92.4978 193.981 92.9764 194.085 93.3574 194.46C94.2809 194.489 94.3269 194.129 94.7794 193.706C94.7007 192.346 94.2792 191.458 94.5953 190.105Z" fill="#231F20"/>
</svg>
