<svg id="Layer_1" data-name="Layer 1" xmlns="http://www.w3.org/2000/svg" viewBox="0 0 555.09 157.8"><title>Black</title><path d="M29,0C46.7,0,56.6,9.8,56.6,25.4v2.4H43.4V25.2c0-8-4.8-13.4-14.4-13.4-9.9,0-15.8,7.2-15.8,16V45c0,9.6,5.5,16,15.8,16,10.5,0,14.4-5.5,14.4-13.4V45H56.6v2.4c0,15.5-9.1,25.4-27.6,25.4C11.8,72.8,0,63,0,44.4v-16C0,11,11.3,0,29,0Z"/><path d="M90.5,0c17.9,0,28.8,11.1,28.8,29V43.8c0,18.4-10.9,29-28.8,29s-28.8-10.6-28.8-29V29C61.7,11.1,72.6,0,90.5,0ZM74.9,44.4c0,10.1,5,16.6,15.6,16.6,10.9,0,15.6-6.9,15.6-16.6v-16c0-9.9-5.8-16.6-15.6-16.6-10.1,0-15.6,7.1-15.6,16.6Z"/><path d="M148.4,1.4l14.8,56.2h1.2L179.2,1.4H202v70H189.2v-56H188l-14.5,56H154.1l-14.5-56h-1.2v56H125.6V1.4Z"/><path d="M231.9,1.4l14.8,56.2h1.2L262.7,1.4h22.8v70H272.7v-56h-1.2L257,71.4H237.6l-14.5-56h-1.2v56H209.1V1.4Z"/><path d="M320.6,0c17.9,0,28.8,11.1,28.8,29V43.8c0,18.4-10.9,29-28.8,29s-28.8-10.6-28.8-29V29C291.8,11.1,302.7,0,320.6,0ZM305,44.4c0,10.1,5,16.6,15.6,16.6,10.9,0,15.6-6.9,15.6-16.6v-16c0-9.9-5.8-16.6-15.6-16.6-10.1,0-15.6,7.1-15.6,16.6Z"/><path d="M379.1,1.4l16,57.6h1.2V1.4h13.2v70H386.1l-16-57.6h-1.2V71.4H355.69V1.4Z"/><path d="M32.6,115.4l29.5,41H45.9L23.4,124.2l-7.4,7v25.2H2.8v-70H16V114h1.2L45.3,86.4H63.1Z"/><path d="M90.6,86.4l16,57.6h1.2V86.4H121v70H97.6l-16-57.6H80.4v57.6H67.2v-70Z"/><path d="M158.1,85c17.9,0,28.8,11.1,28.8,29v14.8c0,18.4-10.9,29-28.8,29s-28.8-10.6-28.8-29V114C129.3,96.1,140.2,85,158.1,85Zm-15.6,44.4c0,10.1,5,16.6,15.6,16.6,10.9,0,15.6-6.9,15.6-16.6v-16c0-9.9-5.8-16.6-15.6-16.6-10.1,0-15.6,7.1-15.6,16.6Z"/><path d="M201.6,86.4l8.4,57.2h1.2l10.7-57.2h20.6l10.7,57.2h1.2l8.4-57.2H276l-11,70H243.5L232.8,99.2h-1.2l-10.7,57.2H199.4l-11-70Z"/><path d="M293.5,86.4v58h32.4v12H280.3v-70Z"/><path d="M378.4,86.4v12H345.6v16.7h30v12h-30v17.3H379v12H332.39v-70Z"/><path d="M409.09,86.4c18.81,0,28.81,9.3,28.81,28.4V128c0,19.1-10,28.4-28.81,28.4h-24v-70Zm-10.8,58h11c11.31,0,15.41-5.8,15.41-16v-14c0-10.2-4.1-16-15.41-16h-11Z"/><path d="M443.39,113.4c0-17.4,11.3-28.4,29-28.4s27.81,9.6,27.81,26v.8H487v-1c0-8.4-5-14-14.61-14-9.9,0-15.8,7.2-15.8,16V130c0,9.6,5.5,16,15.8,16,10.51,0,14.61-5.1,14.61-13.5v-.7H470V120.2H500.2v11.6c0,16.7-9.7,26-27.81,26-17.2,0-29-9.8-29-28.4Z"/><path d="M554.5,86.4v12H521.69v16.7h30v12h-30v17.3h33.4v12h-46.6v-70Z"/></svg>