<?xml version="1.0" encoding="UTF-8"?>
<svg width="70px" height="58px" viewBox="0 0 70 58" version="1.1" xmlns="http://www.w3.org/2000/svg" xmlns:xlink="http://www.w3.org/1999/xlink">
    <!-- Generator: Sketch 53.2 (72643) - https://sketchapp.com -->
    <title>logo</title>
    <desc>Created with Sketch.</desc>
    <g id="Page-1" stroke="none" stroke-width="1" fill="none" fill-rule="evenodd">
        <g id="iPhone-8" transform="translate(-160.000000, -66.000000)" fill="#FFFFFF">
            <g id="logo" transform="translate(160.000000, 66.000000)">
                <path d="M33.1456954,58 L1.85430464,58 C0.830270564,58 0,57.104603 0,56 C0,54.8955061 0.830270564,54 1.85430464,54 L33.1456954,54 C34.1697294,54 35,54.8955061 35,56 C35,57.104603 34.1697294,58 33.1456954,58" id="Fill-2"></path>
                <path d="M42.1575758,52 L7.84242424,52 C6.8248506,52 6,51.104603 6,50 C6,48.895397 6.8248506,48 7.84242424,48 L42.1575758,48 C43.1750489,48 44,48.895397 44,50 C44,51.104603 43.1750489,52 42.1575758,52" id="Fill-4"></path>
                <path d="M50.1675978,45 L12.8324022,45 C11.8203638,45 11,44.104603 11,43 C11,41.895397 11.8203638,41 12.8324022,41 L50.1675978,41 C51.1795363,41 52,41.895397 52,43 C52,44.104603 51.1795363,45 50.1675978,45" id="Fill-6"></path>
                <path d="M59.1761658,38 L18.8238342,38 C17.8165279,38 17,37.104603 17,36 C17,34.8955061 17.8165279,34 18.8238342,34 L59.1761658,34 C60.1834721,34 61,34.8955061 61,36 C61,37.104603 60.1834721,38 59.1761658,38" id="Fill-8"></path>
                <path d="M68.1835749,32 L24.8164251,32 C23.8132108,32 23,31.104603 23,30 C23,28.8955061 23.8132108,28 24.8164251,28 L68.1835749,28 C69.1867892,28 70,28.8955061 70,30 C70,31.104603 69.1867892,32 68.1835749,32" id="Fill-10"></path>
                <path d="M59.1761658,25 L18.8238342,25 C17.8165279,25 17,24.104603 17,23 C17,21.8955061 17.8165279,21 18.8238342,21 L59.1761658,21 C60.1833727,21 61,21.8955061 61,23 C61,24.104603 60.1833727,25 59.1761658,25" id="Fill-12"></path>
                <path d="M50.1675978,18 L12.8324022,18 C11.8204637,18 11,17.104603 11,16 C11,14.895397 11.8204637,14 12.8324022,14 L50.1675978,14 C51.1795363,14 52,14.895397 52,16 C52,17.104603 51.1795363,18 50.1675978,18" id="Fill-14"></path>
                <path d="M42.1575758,11 L7.84242424,11 C6.8248506,11 6,10.104603 6,9 C6,7.89539703 6.8248506,7 7.84242424,7 L42.1575758,7 C43.1750489,7 44,7.89539703 44,9 C44,10.104603 43.1750489,11 42.1575758,11" id="Fill-16"></path>
                <path d="M33.1456954,4 L1.85430464,4 C0.830270564,4 0,3.10460297 0,2 C0,0.895506108 0.830270564,0 1.85430464,0 L33.1456954,0 C34.1697294,0 35,0.895506108 35,2 C35,3.10460297 34.1697294,4 33.1456954,4" id="Fill-18"></path>
            </g>
        </g>
    </g>
</svg>