<svg xmlns="http://www.w3.org/2000/svg" viewBox="0 0 600 600"><title>what-we-do_1</title><g id="Layer_2" data-name="Layer 2"><circle cx="150.07" cy="209.19" r="56.11" fill="none" stroke="#000" stroke-width="2"/><circle cx="301.75" cy="135.89" r="56.11" fill="none" stroke="#000" stroke-width="2"/><circle cx="455.14" cy="209.19" r="56.11" fill="none" stroke="#000" stroke-width="2"/><circle cx="384.89" cy="504.5" r="56.11" fill="none" stroke="#000" stroke-width="2"/><circle cx="491.57" cy="372.18" r="56.11" fill="none" stroke="#000" stroke-width="2"/><circle cx="218.61" cy="504.5" r="56.11" fill="none" stroke="#000" stroke-width="2"/><circle cx="115.67" cy="372.18" r="56.11" fill="none" stroke="#000" stroke-width="2"/><polyline points="393.02 358.29 401.99 346.26 398.58 331.66" fill="none" stroke="#00e8a2" stroke-width="2"/><line x1="397.75" y1="328.1" x2="386.55" y2="280.09" fill="none" stroke="#00e8a2" stroke-width="2" stroke-dasharray="21.91 3.65"/><polyline points="386.14 278.31 382.73 263.7 369.12 257.4" fill="none" stroke="#00e8a2" stroke-width="2"/><path d="M364.54,255.29,264.51,209A82.42,82.42,0,0,1,222,164a78.67,78.67,0,0,1,1.75-62.1c12.94-28,41.59-46,73-46a83,83,0,0,1,35,7.74L480.4,132.36c.66.3,1.3.62,2,.95l.09.05a78.61,78.61,0,0,1,16.22,10A82.2,82.2,0,0,1,527,188.73l36.79,157.78a82.93,82.93,0,0,1,2.18,19.9,81.74,81.74,0,0,1-1.36,15.45v.51l-.46,1.83a82.93,82.93,0,0,1-14.7,32.26L451.6,547.78a82.24,82.24,0,0,1-66.12,33.44,78.11,78.11,0,0,1-47.07-15.61c-24.72-18.41-36.51-50.17-30-80.9A82.91,82.91,0,0,1,323.15,452l68.37-91.73" fill="none" stroke="#00e8a2" stroke-width="2" stroke-dasharray="30.23 5.04"/><polyline points="315.37 248.44 301.75 242.15 288.14 248.44" fill="none" stroke="#00e8a2" stroke-width="2"/><path d="M283.63,250.52,190.9,293.4a96.35,96.35,0,0,1-40.72,9c-36.7,0-70.21-21.18-85.37-54a92.16,92.16,0,0,1-2.08-72.76,96,96,0,0,1,49.5-52.42L260.89,54.51a96.5,96.5,0,0,1,40.72-9h.28a96.54,96.54,0,0,1,40.73,9l148.65,68.74a96,96,0,0,1,49.5,52.42,92.16,92.16,0,0,1-2.08,72.76c-15.16,32.78-48.66,54-85.36,54h0a96.35,96.35,0,0,1-40.72-9l-95-43.92" fill="none" stroke="#00e8a2" stroke-width="2" stroke-dasharray="29.78 4.96"/><polyline points="200.07 330.6 197.09 345.3 206.02 357.35" fill="none" stroke="#00e8a2" stroke-width="2"/><path d="M209,361.32l67.86,91.53a80.64,80.64,0,0,1,13.82,29.61l.06.1.77,3.73v.1c5.46,29.41-6.1,59.49-29.75,77a76.1,76.1,0,0,1-45.64,15.07h0a79.13,79.13,0,0,1-13.18-1.11,80.33,80.33,0,0,1-51.36-31.64l-92.68-125a80.35,80.35,0,0,1-20.7-59.25,79.37,79.37,0,0,1,1.89-13.2L71.85,191.7a80.18,80.18,0,0,1,26.33-44.93A75.76,75.76,0,0,1,146.3,128.6h.8A75.18,75.18,0,0,1,163,130.31c41.06,8.95,67.46,50.74,58.84,93.16l-21.25,104.7" fill="none" stroke="#00e8a2" stroke-width="2" stroke-dasharray="29.7 4.95"/><path d="M275.31,129.44h3.45a3.86,3.86,0,0,1,2.85.93,4.17,4.17,0,0,1,.9,3V136a4.18,4.18,0,0,1-.9,3,3.82,3.82,0,0,1-2.85.92h-3.45v-1.18h.9v-8.15h-.9Zm3.27,9.33a4.66,4.66,0,0,0,1.19-.13,1.83,1.83,0,0,0,.83-.46,2,2,0,0,0,.49-.86,5.15,5.15,0,0,0,.16-1.37v-2.51a5.2,5.2,0,0,0-.16-1.37,2,2,0,0,0-.49-.86,1.83,1.83,0,0,0-.83-.46,4.63,4.63,0,0,0-1.19-.14h-1.11v8.16Z"/><path d="M284.8,129.44h6.36v1.17h-5.1v3.49h5v1.17h-5v3.5h5.19v1.17H284.8Z"/><path d="M299.64,132.48a1.94,1.94,0,0,0-.21-.91,1.85,1.85,0,0,0-.54-.64,2.59,2.59,0,0,0-.8-.39,3.24,3.24,0,0,0-.94-.14,2.82,2.82,0,0,0-.83.12,2.35,2.35,0,0,0-.7.32,1.59,1.59,0,0,0-.48.52,1.36,1.36,0,0,0-.18.71v.09a1.42,1.42,0,0,0,.18.74,1.49,1.49,0,0,0,.53.53,3.65,3.65,0,0,0,.88.36,10,10,0,0,0,1.23.24,4.65,4.65,0,0,1,2.43,1,2.47,2.47,0,0,1,.78,1.91v.19a3.1,3.1,0,0,1-.24,1.23,2.47,2.47,0,0,1-.69,1,3.16,3.16,0,0,1-1.13.63,5.62,5.62,0,0,1-3.34-.07,3.55,3.55,0,0,1-1.29-.81,3.5,3.5,0,0,1-.78-1.21,4.23,4.23,0,0,1-.27-1.52v-.46h1.26v.37a2.64,2.64,0,0,0,.75,2.06,3,3,0,0,0,2.11.69,2.62,2.62,0,0,0,1.76-.51,1.74,1.74,0,0,0,.6-1.37V137a1.47,1.47,0,0,0-.61-1.26,4.63,4.63,0,0,0-2-.63,6.63,6.63,0,0,1-1.44-.32,3.46,3.46,0,0,1-1.08-.57,2.36,2.36,0,0,1-.69-.85,2.66,2.66,0,0,1-.24-1.17V132a2.46,2.46,0,0,1,.25-1.12,2.73,2.73,0,0,1,.71-.88,3.21,3.21,0,0,1,1.1-.58,4.42,4.42,0,0,1,1.4-.21,4.55,4.55,0,0,1,1.58.26,3.66,3.66,0,0,1,1.18.68,2.91,2.91,0,0,1,.73,1,3.08,3.08,0,0,1,.25,1.21V133h-1.26Z"/><path d="M303,129.44h6.66v1.17H307v8.16h2.7v1.17H303v-1.17h2.7v-8.16H303Z"/><path d="M314.52,134.9h4.67v5H318v-1.25h-.17a2.16,2.16,0,0,1-.91,1.06,2.71,2.71,0,0,1-1.5.4,3.37,3.37,0,0,1-2.66-1.09,4.71,4.71,0,0,1-1-3.2v-2.34a4.67,4.67,0,0,1,1-3.16,3.42,3.42,0,0,1,2.72-1.13,4,4,0,0,1,1.59.3,3.08,3.08,0,0,1,1.15.81,3.49,3.49,0,0,1,.71,1.21,4.89,4.89,0,0,1,.23,1.49v.19h-1.25V133a3.19,3.19,0,0,0-.15-1,2.35,2.35,0,0,0-.43-.85,2.19,2.19,0,0,0-.75-.59,2.63,2.63,0,0,0-1.1-.22,2.07,2.07,0,0,0-1.83.89,4.05,4.05,0,0,0-.61,2.32v2.16a4,4,0,0,0,.61,2.38,2.14,2.14,0,0,0,1.86.83,2.26,2.26,0,0,0,1.76-.71,3,3,0,0,0,.64-2v-.18h-3.42Z"/><path d="M326.76,139.4h.18v-10h1.26v10.5h-2.52l-3-10h-.18v10h-1.26v-10.5h2.52Z"/><path d="M405.75,202.75h3.45a3.82,3.82,0,0,1,2.85.93,4.15,4.15,0,0,1,.9,3v2.7a4.15,4.15,0,0,1-.9,3,3.82,3.82,0,0,1-2.85.93h-3.45v-1.18h.9v-8.15h-.9Zm3.27,9.33a4.61,4.61,0,0,0,1.19-.13,1.87,1.87,0,0,0,.83-.46,1.91,1.91,0,0,0,.49-.86,4.81,4.81,0,0,0,.16-1.37v-2.52a4.74,4.74,0,0,0-.16-1.36,2,2,0,0,0-.49-.87,1.85,1.85,0,0,0-.83-.45,4.57,4.57,0,0,0-1.19-.14h-1.11v8.16Z"/><path d="M415.24,202.75h6.36v1.17h-5.1v3.48h5v1.17h-5v3.51h5.19v1.17h-6.45Z"/><path d="M423.42,202.75h1.35l2.74,10h.18l2.75-10h1.35l-3,10.5h-2.43Z"/><path d="M433.6,202.75H440v1.17h-5.1v3.48h5v1.17h-5v3.51h5.2v1.17H433.6Z"/><path d="M442.68,202.75h1.26v9.33h5.49v1.17h-6.75Z"/><path d="M451.46,206.83a4.67,4.67,0,0,1,1-3.16,3.83,3.83,0,0,1,5.43,0,4.67,4.67,0,0,1,1,3.16v2.34a4.67,4.67,0,0,1-1,3.2,3.93,3.93,0,0,1-5.43,0,4.67,4.67,0,0,1-1-3.2Zm3.69,5.46a2.12,2.12,0,0,0,1.82-.83,4,4,0,0,0,.6-2.38v-2.16a4.05,4.05,0,0,0-.6-2.32,2.32,2.32,0,0,0-3.65,0,4.05,4.05,0,0,0-.6,2.32v2.16a4,4,0,0,0,.6,2.38A2.13,2.13,0,0,0,455.15,212.29Z"/><path d="M462.27,208.93v4.32H461v-10.5h3.75a4,4,0,0,1,1.41.23,3.05,3.05,0,0,1,1,.63,2.73,2.73,0,0,1,.6.9,3.1,3.1,0,0,1,.2,1.09v.45a3.15,3.15,0,0,1-.2,1.1,2.69,2.69,0,0,1-.61.92,3,3,0,0,1-1,.63,3.93,3.93,0,0,1-1.39.23Zm0-1.17h2.34q2.1,0,2.1-1.8v-.27a1.65,1.65,0,0,0-.52-1.28,2.2,2.2,0,0,0-1.58-.49h-2.34Z"/><path d="M469.6,202.75H472l1.41,10h.18l1.41-10h2.4v10.5h-1.17v-10h-.18l-1.4,10h-2.29l-1.41-10h-.18v10H469.6Z"/><path d="M479.5,202.75h6.36v1.17h-5.1v3.48h5v1.17h-5v3.51H486v1.17H479.5Z"/><path d="M493.92,212.71h.18v-10h1.26v10.5h-2.52l-3-10h-.18v10h-1.26v-10.5h2.52Z"/><path d="M497.35,202.75h7.38v1.17h-3.06v9.33h-1.26v-9.33h-3.06Z"/><path d="M457.39,362.92v4.32h-1.26v-10.5h3.75a4,4,0,0,1,1.41.23,3,3,0,0,1,1,.62,2.77,2.77,0,0,1,.6.91,3.1,3.1,0,0,1,.2,1.09V360a3.1,3.1,0,0,1-.2,1.09,2.73,2.73,0,0,1-.61.93,3.1,3.1,0,0,1-1,.63,3.93,3.93,0,0,1-1.39.23Zm0-1.17h2.34q2.1,0,2.1-1.8v-.27a1.65,1.65,0,0,0-.52-1.28,2.2,2.2,0,0,0-1.58-.49h-2.34Z"/><path d="M471.91,367.24h-1.26v-3.51a.9.9,0,0,0-.18-.6.8.8,0,0,0-.63-.21h-3.27v4.32h-1.26v-10.5h3.75a4,4,0,0,1,1.41.23,3,3,0,0,1,1,.62,2.6,2.6,0,0,1,.59.91,2.9,2.9,0,0,1,.21,1.09V360a2.46,2.46,0,0,1-.32,1.17,2.15,2.15,0,0,1-1,.9v.18a1.15,1.15,0,0,1,.7.36,1.18,1.18,0,0,1,.26.81Zm-5.34-5.49h2.34a2.29,2.29,0,0,0,1.58-.46A1.67,1.67,0,0,0,471,360v-.27a1.65,1.65,0,0,0-.52-1.28,2.2,2.2,0,0,0-1.58-.49h-2.34Z"/><path d="M474.11,360.82a4.7,4.7,0,0,1,1-3.17,3.85,3.85,0,0,1,5.43,0,4.69,4.69,0,0,1,1,3.17v2.34a4.65,4.65,0,0,1-1,3.19,3.9,3.9,0,0,1-5.43,0,4.65,4.65,0,0,1-1-3.19Zm3.69,5.46a2.12,2.12,0,0,0,1.83-.84,4,4,0,0,0,.6-2.37v-2.16a4.09,4.09,0,0,0-.6-2.33,2.33,2.33,0,0,0-3.65,0,4.09,4.09,0,0,0-.61,2.33v2.16a4,4,0,0,0,.61,2.37A2.1,2.1,0,0,0,477.8,366.28Z"/><path d="M490,364.09a3.57,3.57,0,0,1-.8,2.5,3.08,3.08,0,0,1-2.35.86,3.39,3.39,0,0,1-2.44-.86,3.35,3.35,0,0,1-.89-2.5v-.81h1.26v.81a2.37,2.37,0,0,0,.51,1.59,1.93,1.93,0,0,0,1.56.6,1.67,1.67,0,0,0,1.47-.6,2.72,2.72,0,0,0,.42-1.59v-6.18h-1.08v-1.17h3.24v1.17H490Z"/><path d="M493,356.74h6.36v1.17h-5.1v3.48h5v1.17h-5v3.51h5.19v1.17H493Z"/><path d="M505.4,366.28a2.53,2.53,0,0,0,1.11-.22,2.16,2.16,0,0,0,.75-.58,2.57,2.57,0,0,0,.43-.84,3.31,3.31,0,0,0,.14-1v-.18h1.26v.18a4.52,4.52,0,0,1-.24,1.49,3.51,3.51,0,0,1-.7,1.22,3.36,3.36,0,0,1-1.16.81,4.14,4.14,0,0,1-1.59.29,3.44,3.44,0,0,1-2.71-1.1,4.65,4.65,0,0,1-1-3.19v-2.34a4.7,4.7,0,0,1,1-3.17,3.39,3.39,0,0,1,2.71-1.12,4.14,4.14,0,0,1,1.59.29,3.36,3.36,0,0,1,1.16.81,3.51,3.51,0,0,1,.7,1.22,4.52,4.52,0,0,1,.24,1.49v.18h-1.26v-.18a4.09,4.09,0,0,0-.15-1,2.55,2.55,0,0,0-.44-.85,2,2,0,0,0-.74-.58,2.45,2.45,0,0,0-1.1-.22,2.06,2.06,0,0,0-1.82.88,4.09,4.09,0,0,0-.61,2.33v2.16a4,4,0,0,0,.61,2.37A2.1,2.1,0,0,0,505.4,366.28Z"/><path d="M510.83,356.74h7.38v1.17h-3.06v9.33h-1.26v-9.33h-3.06Z"/><path d="M446.36,374.74h2.4l1.41,10h.18l1.41-10h2.4v10.5H453v-10h-.18l-1.41,10h-2.28l-1.41-10h-.18v10h-1.17Z"/><path d="M461.69,382.63h-4.5l-.76,2.61h-1.35l3.18-10.5h2.37l3.18,10.5h-1.35Zm-2.34-7.35-1.81,6.18h3.81l-1.82-6.18Z"/><path d="M470.68,384.7h.18v-10h1.26v10.5H469.6l-3-10h-.18v10h-1.26v-10.5h2.52Z"/><path d="M480.05,382.63h-4.5l-.76,2.61h-1.35l3.18-10.5H479l3.18,10.5h-1.35Zm-2.34-7.35-1.81,6.18h3.81l-1.82-6.18Z"/><path d="M486,380.2h4.68v5h-1.17V384h-.18a2.15,2.15,0,0,1-.9,1.06,2.76,2.76,0,0,1-1.5.41,3.4,3.4,0,0,1-2.67-1.1,4.7,4.7,0,0,1-1-3.19v-2.34a4.69,4.69,0,0,1,1-3.17,3.41,3.41,0,0,1,2.72-1.12,4.14,4.14,0,0,1,1.59.29,3.32,3.32,0,0,1,1.15.81,3.53,3.53,0,0,1,.71,1.22,4.52,4.52,0,0,1,.24,1.49v.18H489.4v-.18a3.3,3.3,0,0,0-.15-1,2.53,2.53,0,0,0-.43-.85,2,2,0,0,0-.75-.58,2.48,2.48,0,0,0-1.1-.22,2,2,0,0,0-1.82.88,4,4,0,0,0-.61,2.33v2.16a3.92,3.92,0,0,0,.61,2.37,2.12,2.12,0,0,0,1.85.84,2.23,2.23,0,0,0,1.76-.72,3,3,0,0,0,.64-2v-.18H486Z"/><path d="M493,374.74h6.36v1.17h-5.1v3.48h5v1.17h-5v3.51h5.19v1.17H493Z"/><path d="M501.44,374.74h2.4l1.41,10h.18l1.41-10h2.4v10.5h-1.17v-10h-.18l-1.41,10H504.2l-1.41-10h-.18v10h-1.17Z"/><path d="M511.34,374.74h6.36v1.17h-5.1v3.48h5v1.17h-5v3.51h5.19v1.17h-6.45Z"/><path d="M525.76,384.7h.18v-10h1.26v10.5h-2.52l-3-10h-.18v10h-1.26v-10.5h2.52Z"/><path d="M529.19,374.74h7.38v1.17h-3.06v9.33h-1.26v-9.33h-3.06Z"/><path d="M185.25,508.56H183l-1-10h-.18l-1,10h-2.29l-1.07-10.5h1.14l1,10h.18l.94-10H183l1,10h.18l1-10h1.14Z"/><path d="M187.38,502.14a4.67,4.67,0,0,1,1-3.16,3.83,3.83,0,0,1,5.43,0,4.67,4.67,0,0,1,1,3.16v2.34a4.68,4.68,0,0,1-1,3.2,3.93,3.93,0,0,1-5.43,0,4.67,4.67,0,0,1-1-3.2Zm3.69,5.46a2.12,2.12,0,0,0,1.82-.83,4,4,0,0,0,.61-2.38v-2.16a4.05,4.05,0,0,0-.61-2.32,2.32,2.32,0,0,0-3.65,0,4.05,4.05,0,0,0-.6,2.32v2.16a4,4,0,0,0,.6,2.38A2.14,2.14,0,0,0,191.07,507.6Z"/><path d="M203.53,508.56h-1.26v-3.51a.9.9,0,0,0-.18-.6.8.8,0,0,0-.63-.21h-3.27v4.32h-1.26v-10.5h3.75a4,4,0,0,1,1.41.23,3.05,3.05,0,0,1,1,.63,2.73,2.73,0,0,1,.6.9,3.1,3.1,0,0,1,.2,1.09v.45a2.46,2.46,0,0,1-.32,1.17,2.15,2.15,0,0,1-1,.9v.18a1.05,1.05,0,0,1,1,1.17Zm-5.34-5.49h2.34a2.29,2.29,0,0,0,1.58-.46,1.67,1.67,0,0,0,.52-1.34V501a1.65,1.65,0,0,0-.52-1.28,2.25,2.25,0,0,0-1.58-.49h-2.34Z"/><path d="M207.43,508.56h-1.26v-10.5h1.26v4.65h.35l4-4.65h1.56v.09L209,503.22v.18l4.53,5.07v.09H212l-4.18-4.68h-.35Z"/><path d="M221.08,501.09a2,2,0,0,0-.2-.9,1.89,1.89,0,0,0-.55-.64,2.54,2.54,0,0,0-.79-.39,3.31,3.31,0,0,0-.95-.14,3.12,3.12,0,0,0-.82.11,2.51,2.51,0,0,0-.7.33,1.59,1.59,0,0,0-.49.51,1.43,1.43,0,0,0-.18.72v.09a1.42,1.42,0,0,0,.18.74,1.55,1.55,0,0,0,.53.52,3.11,3.11,0,0,0,.88.36,9.82,9.82,0,0,0,1.23.25,4.65,4.65,0,0,1,2.43,1,2.45,2.45,0,0,1,.78,1.91v.18a3.34,3.34,0,0,1-.23,1.24,2.78,2.78,0,0,1-.69,1,3.25,3.25,0,0,1-1.13.63,4.94,4.94,0,0,1-1.56.22,5.11,5.11,0,0,1-1.78-.29,3.64,3.64,0,0,1-1.29-.81,3.43,3.43,0,0,1-.79-1.22,4.15,4.15,0,0,1-.27-1.52v-.45H216v.36a2.65,2.65,0,0,0,.76,2.07,3,3,0,0,0,2.11.69,2.59,2.59,0,0,0,1.76-.52,1.73,1.73,0,0,0,.59-1.37v-.09a1.44,1.44,0,0,0-.61-1.26,4.58,4.58,0,0,0-2-.63,7.75,7.75,0,0,1-1.43-.32,3.62,3.62,0,0,1-1.09-.57,2.36,2.36,0,0,1-.69-.85,2.66,2.66,0,0,1-.24-1.17v-.18a2.46,2.46,0,0,1,.26-1.12,2.64,2.64,0,0,1,.71-.89,3.34,3.34,0,0,1,1.09-.58,4.85,4.85,0,0,1,1.41-.2,4.59,4.59,0,0,1,1.58.26,3.58,3.58,0,0,1,1.18.68,2.72,2.72,0,0,1,.72,1,3,3,0,0,1,.25,1.21v.63h-1.26Z"/><path d="M224.29,498.06h1.26v4.65H230v-4.65h1.26v10.5H230v-4.68h-4.47v4.68h-1.26Z"/><path d="M233.28,502.14a4.67,4.67,0,0,1,1-3.16,3.83,3.83,0,0,1,5.43,0,4.67,4.67,0,0,1,1,3.16v2.34a4.68,4.68,0,0,1-1,3.2,3.93,3.93,0,0,1-5.43,0,4.67,4.67,0,0,1-1-3.2ZM237,507.6a2.12,2.12,0,0,0,1.82-.83,4,4,0,0,0,.61-2.38v-2.16a4.05,4.05,0,0,0-.61-2.32,2.32,2.32,0,0,0-3.65,0,4.05,4.05,0,0,0-.6,2.32v2.16a4,4,0,0,0,.6,2.38A2.14,2.14,0,0,0,237,507.6Z"/><path d="M244.09,504.24v4.32h-1.26v-10.5h3.75a4,4,0,0,1,1.41.23,3.05,3.05,0,0,1,1,.63,2.73,2.73,0,0,1,.6.9,3.1,3.1,0,0,1,.2,1.09v.45a3.15,3.15,0,0,1-.2,1.1,2.69,2.69,0,0,1-.61.92,2.76,2.76,0,0,1-1,.63,4,4,0,0,1-1.4.23Zm0-1.17h2.34q2.1,0,2.1-1.8V501a1.65,1.65,0,0,0-.52-1.28,2.25,2.25,0,0,0-1.58-.49h-2.34Z"/><path d="M257.8,501.09a2,2,0,0,0-.2-.9,1.89,1.89,0,0,0-.55-.64,2.54,2.54,0,0,0-.79-.39,3.31,3.31,0,0,0-.95-.14,3.12,3.12,0,0,0-.82.11,2.51,2.51,0,0,0-.7.33,1.59,1.59,0,0,0-.49.51,1.43,1.43,0,0,0-.18.72v.09a1.42,1.42,0,0,0,.18.74,1.55,1.55,0,0,0,.53.52,3.11,3.11,0,0,0,.88.36,9.82,9.82,0,0,0,1.23.25,4.65,4.65,0,0,1,2.43,1,2.45,2.45,0,0,1,.78,1.91v.18a3.34,3.34,0,0,1-.23,1.24,2.78,2.78,0,0,1-.69,1,3.25,3.25,0,0,1-1.13.63,4.94,4.94,0,0,1-1.56.22,5.11,5.11,0,0,1-1.78-.29,3.64,3.64,0,0,1-1.29-.81,3.43,3.43,0,0,1-.79-1.22,4.15,4.15,0,0,1-.27-1.52v-.45h1.26v.36a2.65,2.65,0,0,0,.76,2.07,3,3,0,0,0,2.11.69,2.59,2.59,0,0,0,1.76-.52,1.73,1.73,0,0,0,.59-1.37v-.09a1.44,1.44,0,0,0-.61-1.26,4.58,4.58,0,0,0-2-.63,7.75,7.75,0,0,1-1.43-.32,3.62,3.62,0,0,1-1.09-.57,2.36,2.36,0,0,1-.69-.85,2.66,2.66,0,0,1-.24-1.17v-.18a2.46,2.46,0,0,1,.26-1.12,2.64,2.64,0,0,1,.71-.89,3.34,3.34,0,0,1,1.09-.58,4.85,4.85,0,0,1,1.41-.2,4.59,4.59,0,0,1,1.58.26,3.58,3.58,0,0,1,1.18.68,2.72,2.72,0,0,1,.72,1,3,3,0,0,1,.25,1.21v.63H257.8Z"/><path d="M355.24,501.09a1.87,1.87,0,0,0-.21-.9,1.76,1.76,0,0,0-.54-.64,2.59,2.59,0,0,0-.8-.39,3.24,3.24,0,0,0-.94-.14,3.2,3.2,0,0,0-.83.11,2.65,2.65,0,0,0-.7.33,1.66,1.66,0,0,0-.48.51,1.43,1.43,0,0,0-.18.72v.09a1.45,1.45,0,0,0,.18.74,1.47,1.47,0,0,0,.53.52,3,3,0,0,0,.88.36,9.46,9.46,0,0,0,1.23.25,4.57,4.57,0,0,1,2.43,1,2.45,2.45,0,0,1,.78,1.91v.18a3.15,3.15,0,0,1-.24,1.24,2.54,2.54,0,0,1-.69,1,3.16,3.16,0,0,1-1.13.63,4.94,4.94,0,0,1-1.56.22,5.15,5.15,0,0,1-1.78-.29,3.83,3.83,0,0,1-1.29-.81,3.54,3.54,0,0,1-.78-1.22,4.15,4.15,0,0,1-.27-1.52v-.45h1.26v.36a2.68,2.68,0,0,0,.75,2.07,3,3,0,0,0,2.11.69,2.57,2.57,0,0,0,1.76-.52,1.71,1.71,0,0,0,.6-1.37v-.09a1.47,1.47,0,0,0-.61-1.26,4.68,4.68,0,0,0-2-.63,8.06,8.06,0,0,1-1.44-.32,3.94,3.94,0,0,1-1.08-.57,2.45,2.45,0,0,1-.69-.85,2.66,2.66,0,0,1-.24-1.17v-.18a2.46,2.46,0,0,1,.25-1.12,2.77,2.77,0,0,1,.71-.89,3.39,3.39,0,0,1,1.1-.58,4.73,4.73,0,0,1,1.4-.2,4.55,4.55,0,0,1,1.58.26,3.49,3.49,0,0,1,1.18.68,2.87,2.87,0,0,1,.73,1,3.16,3.16,0,0,1,.25,1.21v.63h-1.26Z"/><path d="M358.25,498.06h7.38v1.17h-3.06v9.33h-1.26v-9.33h-3.06Z"/><path d="M374.41,508.56h-1.26v-3.51a.9.9,0,0,0-.18-.6.8.8,0,0,0-.63-.21h-3.27v4.32h-1.26v-10.5h3.75a4,4,0,0,1,1.41.23,2.9,2.9,0,0,1,1,.63,2.45,2.45,0,0,1,.6.9,2.9,2.9,0,0,1,.21,1.09v.45a2.36,2.36,0,0,1-.33,1.17,2.08,2.08,0,0,1-1,.9v.18a1.15,1.15,0,0,1,.7.36,1.18,1.18,0,0,1,.26.81Zm-5.34-5.49h2.34a2.31,2.31,0,0,0,1.58-.46,1.7,1.7,0,0,0,.52-1.34V501a1.69,1.69,0,0,0-.52-1.28,2.22,2.22,0,0,0-1.58-.49h-2.34Z"/><path d="M382.55,506h-4.5l-.76,2.61h-1.35l3.18-10.5h2.37l3.18,10.5h-1.35Zm-2.34-7.35-1.81,6.18h3.81l-1.82-6.18Z"/><path d="M385.79,498.06h7.38v1.17h-3.06v9.33h-1.26v-9.33h-3.06Z"/><path d="M395.48,498.06h6.36v1.17h-5.1v3.48h5v1.17h-5v3.51h5.19v1.17h-6.45Z"/><path d="M406.84,503.52h4.68v5h-1.17V507.3h-.18a2.17,2.17,0,0,1-.9,1.07,2.76,2.76,0,0,1-1.5.4,3.39,3.39,0,0,1-2.67-1.09,4.72,4.72,0,0,1-1-3.2v-2.34a4.67,4.67,0,0,1,1-3.16,3.42,3.42,0,0,1,2.72-1.13,4.14,4.14,0,0,1,1.59.29,3.32,3.32,0,0,1,1.15.81,3.53,3.53,0,0,1,.71,1.22,4.52,4.52,0,0,1,.24,1.49v.18h-1.26v-.18a3.3,3.3,0,0,0-.15-1,2.53,2.53,0,0,0-.43-.85,2.16,2.16,0,0,0-.75-.58,2.48,2.48,0,0,0-1.1-.22,2.09,2.09,0,0,0-1.83.89,4.05,4.05,0,0,0-.6,2.32v2.16a4,4,0,0,0,.6,2.38,2.17,2.17,0,0,0,1.86.83,2.23,2.23,0,0,0,1.76-.72,3,3,0,0,0,.64-2v-.18h-3.42Z"/><path d="M416.39,504.87h-.27l-3.28-6.81h1.41l2.68,5.73h.18l2.69-5.73h1.41l-3.29,6.81h-.27v3.69h-1.26Z"/><path d="M82.23,376.24H81v-3.51a.9.9,0,0,0-.18-.6.8.8,0,0,0-.63-.21H76.89v4.32H75.63v-10.5h3.75a4,4,0,0,1,1.41.23,2.93,2.93,0,0,1,1,.62,2.41,2.41,0,0,1,.6.91,2.85,2.85,0,0,1,.2,1.09V369a2.35,2.35,0,0,1-.32,1.17,2.1,2.1,0,0,1-1,.9v.18a1.05,1.05,0,0,1,1,1.17Zm-5.34-5.49h2.34a2.39,2.39,0,0,0,1.59-.46,1.71,1.71,0,0,0,.51-1.34v-.27a1.68,1.68,0,0,0-.51-1.28,2.24,2.24,0,0,0-1.59-.49H76.89Z"/><path d="M85,365.74h6.36v1.17h-5.1v3.48h5v1.17h-5v3.51H91.4v1.17H85Z"/><path d="M99.78,368.77a1.87,1.87,0,0,0-.2-.9,1.82,1.82,0,0,0-.55-.65,2.54,2.54,0,0,0-.79-.39,3.3,3.3,0,0,0-.95-.13,2.75,2.75,0,0,0-.82.11,2.63,2.63,0,0,0-.7.32,1.73,1.73,0,0,0-.49.52,1.36,1.36,0,0,0-.18.71v.09a1.42,1.42,0,0,0,.18.74,1.53,1.53,0,0,0,.54.53,3.21,3.21,0,0,0,.87.36,12,12,0,0,0,1.23.25,4.57,4.57,0,0,1,2.43,1,2.45,2.45,0,0,1,.78,1.91v.18a3.15,3.15,0,0,1-.23,1.24,2.51,2.51,0,0,1-.69,1,3.16,3.16,0,0,1-1.13.63,5.42,5.42,0,0,1-3.34-.07,3.46,3.46,0,0,1-2.08-2,4.19,4.19,0,0,1-.27-1.52v-.45h1.26v.36a2.68,2.68,0,0,0,.76,2.07,3,3,0,0,0,2.11.69,2.62,2.62,0,0,0,1.76-.52,1.72,1.72,0,0,0,.59-1.37v-.09a1.46,1.46,0,0,0-.6-1.26,4.68,4.68,0,0,0-2-.63,7.16,7.16,0,0,1-1.43-.33,3.52,3.52,0,0,1-1.09-.57,2.33,2.33,0,0,1-.69-.84,2.66,2.66,0,0,1-.24-1.17v-.18a2.5,2.5,0,0,1,.26-1.13,2.73,2.73,0,0,1,.71-.88,3.39,3.39,0,0,1,1.1-.58,4.43,4.43,0,0,1,1.4-.2,4.56,4.56,0,0,1,1.58.25,3.5,3.5,0,0,1,1.18.69,2.78,2.78,0,0,1,.73,1,3.11,3.11,0,0,1,.24,1.21v.63H99.78Z"/><path d="M102.8,369.82a4.69,4.69,0,0,1,1-3.17,3.85,3.85,0,0,1,5.43,0,4.7,4.7,0,0,1,1,3.17v2.34a4.65,4.65,0,0,1-1,3.19,3.9,3.9,0,0,1-5.43,0,4.65,4.65,0,0,1-1-3.19Zm3.69,5.46a2.09,2.09,0,0,0,1.82-.84,3.92,3.92,0,0,0,.61-2.37v-2.16a4,4,0,0,0-.61-2.33,2.32,2.32,0,0,0-3.64,0,4,4,0,0,0-.61,2.33v2.16a3.92,3.92,0,0,0,.61,2.37A2.09,2.09,0,0,0,106.49,375.28Z"/><path d="M113.33,365.74v7a2.82,2.82,0,0,0,.59,1.93,2.68,2.68,0,0,0,3.5,0,2.82,2.82,0,0,0,.59-1.93v-7h1.26v7a3.78,3.78,0,0,1-1,2.79,4.11,4.11,0,0,1-5.28,0,3.78,3.78,0,0,1-1-2.79v-7Z"/><path d="M128.13,376.24h-1.26v-3.51a.9.9,0,0,0-.18-.6.8.8,0,0,0-.63-.21h-3.27v4.32h-1.26v-10.5h3.75a4,4,0,0,1,1.41.23,2.93,2.93,0,0,1,1,.62,2.41,2.41,0,0,1,.6.91,2.85,2.85,0,0,1,.2,1.09V369a2.35,2.35,0,0,1-.32,1.17,2.1,2.1,0,0,1-1,.9v.18a1.05,1.05,0,0,1,1,1.17Zm-5.34-5.49h2.34a2.39,2.39,0,0,0,1.59-.46,1.71,1.71,0,0,0,.51-1.34v-.27a1.68,1.68,0,0,0-.51-1.28,2.24,2.24,0,0,0-1.59-.49h-2.34Z"/><path d="M134.09,375.28a2.45,2.45,0,0,0,1.1-.22,2.1,2.1,0,0,0,.75-.58,2.6,2.6,0,0,0,.44-.84,3.66,3.66,0,0,0,.14-1v-.18h1.26v.18a4.56,4.56,0,0,1-.24,1.49,3.49,3.49,0,0,1-.71,1.21,3.08,3.08,0,0,1-1.15.81,4,4,0,0,1-1.59.3,3.46,3.46,0,0,1-2.72-1.1,4.65,4.65,0,0,1-1-3.19v-2.34a4.69,4.69,0,0,1,1-3.17,3.41,3.41,0,0,1,2.72-1.12,4.14,4.14,0,0,1,1.59.29,3.19,3.19,0,0,1,1.15.81,3.58,3.58,0,0,1,.71,1.21,4.62,4.62,0,0,1,.24,1.5v.18h-1.26v-.18a3.66,3.66,0,0,0-.16-1,2.44,2.44,0,0,0-.43-.85,2.19,2.19,0,0,0-.75-.59,2.55,2.55,0,0,0-1.09-.21,2,2,0,0,0-1.82.88,4,4,0,0,0-.61,2.33v2.16a3.92,3.92,0,0,0,.61,2.37A2.09,2.09,0,0,0,134.09,375.28Z"/><path d="M140,365.74h6.36v1.17h-5.1v3.48h5v1.17h-5v3.51h5.19v1.17H140Z"/><path d="M154.86,368.77a1.87,1.87,0,0,0-.2-.9,1.82,1.82,0,0,0-.55-.65,2.54,2.54,0,0,0-.79-.39,3.3,3.3,0,0,0-.95-.13,2.75,2.75,0,0,0-.82.11,2.63,2.63,0,0,0-.7.32,1.73,1.73,0,0,0-.49.52,1.36,1.36,0,0,0-.18.71v.09a1.42,1.42,0,0,0,.18.74,1.53,1.53,0,0,0,.54.53,3.21,3.21,0,0,0,.87.36,12,12,0,0,0,1.23.25,4.57,4.57,0,0,1,2.43,1,2.45,2.45,0,0,1,.78,1.91v.18a3.15,3.15,0,0,1-.23,1.24,2.51,2.51,0,0,1-.69,1,3.16,3.16,0,0,1-1.13.63,5.42,5.42,0,0,1-3.34-.07,3.46,3.46,0,0,1-2.08-2,4.19,4.19,0,0,1-.27-1.52v-.45h1.26v.36a2.68,2.68,0,0,0,.76,2.07,3,3,0,0,0,2.11.69,2.62,2.62,0,0,0,1.76-.52,1.72,1.72,0,0,0,.59-1.37v-.09a1.46,1.46,0,0,0-.6-1.26,4.68,4.68,0,0,0-2-.63,7.16,7.16,0,0,1-1.43-.33,3.52,3.52,0,0,1-1.09-.57,2.33,2.33,0,0,1-.69-.84,2.66,2.66,0,0,1-.24-1.17v-.18a2.5,2.5,0,0,1,.26-1.13,2.73,2.73,0,0,1,.71-.88,3.39,3.39,0,0,1,1.1-.58,4.43,4.43,0,0,1,1.4-.2,4.56,4.56,0,0,1,1.58.25,3.5,3.5,0,0,1,1.18.69,2.78,2.78,0,0,1,.73,1,3.11,3.11,0,0,1,.24,1.21v.63h-1.26Z"/><path d="M106.77,204.25h-1.26v-10.5h1.26v4.65h.34l4-4.65h1.56v.09l-4.35,5.07v.18l4.53,5.07v.09H111.3l-4.19-4.68h-.34Z"/><path d="M120,203.71h.18v-10h1.26v10.5h-2.52l-3-10h-.18v10h-1.26v-10.5H117Z"/><path d="M123.43,197.83a4.67,4.67,0,0,1,1-3.16,3.83,3.83,0,0,1,5.43,0,4.67,4.67,0,0,1,1,3.16v2.34a4.67,4.67,0,0,1-1,3.2,3.93,3.93,0,0,1-5.43,0,4.68,4.68,0,0,1-1-3.2Zm3.69,5.46a2.11,2.11,0,0,0,1.82-.83,4,4,0,0,0,.61-2.38v-2.16a4,4,0,0,0-.61-2.32,2.31,2.31,0,0,0-3.64,0,4.05,4.05,0,0,0-.61,2.32v2.16a4,4,0,0,0,.61,2.38A2.12,2.12,0,0,0,127.12,203.29Z"/><path d="M139.66,204.25h-2.29l-1-10h-.18l-1,10h-2.3l-1.06-10.5H133l1,10h.18l1-10h2.31l.94,10h.18l1-10h1.14Z"/><path d="M142.2,193.75h1.26v9.33H149v1.17H142.2Z"/><path d="M151.48,193.75h6.36v1.17h-5.1v3.48h5v1.17h-5v3.51h5.19v1.17h-6.45Z"/><path d="M160.35,193.75h3.45a3.82,3.82,0,0,1,2.85.93,4.15,4.15,0,0,1,.9,3v2.7a4.15,4.15,0,0,1-.9,3,3.82,3.82,0,0,1-2.85.93h-3.45v-1.18h.9v-8.15h-.9Zm3.27,9.33a4.61,4.61,0,0,0,1.19-.13,1.87,1.87,0,0,0,.83-.46,2,2,0,0,0,.49-.86,5.2,5.2,0,0,0,.16-1.37v-2.52a5.12,5.12,0,0,0-.16-1.36,2,2,0,0,0-.49-.87,1.85,1.85,0,0,0-.83-.45,4.57,4.57,0,0,0-1.19-.14h-1.11v8.16Z"/><path d="M172,199.21h4.68v5h-1.17V203h-.18a2.17,2.17,0,0,1-.9,1.07,2.76,2.76,0,0,1-1.5.4,3.39,3.39,0,0,1-2.67-1.09,4.72,4.72,0,0,1-1-3.2v-2.34a4.67,4.67,0,0,1,1-3.16,3.42,3.42,0,0,1,2.72-1.13,4.14,4.14,0,0,1,1.59.29,3.32,3.32,0,0,1,1.15.81,3.53,3.53,0,0,1,.71,1.22,4.52,4.52,0,0,1,.24,1.49v.18h-1.26v-.18a3.3,3.3,0,0,0-.15-1,2.53,2.53,0,0,0-.43-.85,2.16,2.16,0,0,0-.75-.58,2.48,2.48,0,0,0-1.1-.22,2.06,2.06,0,0,0-1.82.89,4,4,0,0,0-.61,2.32v2.16a4,4,0,0,0,.61,2.38,2.14,2.14,0,0,0,1.85.83,2.23,2.23,0,0,0,1.76-.72,3,3,0,0,0,.64-2v-.18H172Z"/><path d="M179,193.75h6.36v1.17h-5.1v3.48h5v1.17h-5v3.51h5.19v1.17H179Z"/><path d="M132.57,221.08h.9v-8.16h-.9v-1.17h4.24a3.91,3.91,0,0,1,1.33.21,2.89,2.89,0,0,1,1,.57,2.37,2.37,0,0,1,.61.86,3,3,0,0,1,.2,1.09v.18a2.28,2.28,0,0,1-.14.8,2.14,2.14,0,0,1-.37.64,2.63,2.63,0,0,1-.56.49,2.93,2.93,0,0,1-.7.31v.18a2.49,2.49,0,0,1,1.26.8,2.14,2.14,0,0,1,.51,1.45v.18a2.92,2.92,0,0,1-.2,1.08,2.33,2.33,0,0,1-.61.87,2.76,2.76,0,0,1-1,.58,3.91,3.91,0,0,1-1.33.21h-4.24Zm2.16-4.68h2a2.06,2.06,0,0,0,1.42-.46,1.63,1.63,0,0,0,.53-1.28v-.09a1.48,1.48,0,0,0-.56-1.21,2.27,2.27,0,0,0-1.44-.44h-2Zm0,4.68h2a2.27,2.27,0,0,0,1.44-.44,1.48,1.48,0,0,0,.56-1.22v-.09a1.67,1.67,0,0,0-.53-1.29,2.06,2.06,0,0,0-1.42-.47h-2Z"/><path d="M147.73,219.64h-4.5l-.76,2.61h-1.35l3.18-10.5h2.37l3.18,10.5H148.5Zm-2.34-7.35-1.81,6.18h3.81l-1.82-6.18Z"/><path d="M157.14,214.78a2,2,0,0,0-.2-.9,1.89,1.89,0,0,0-.55-.64,2.59,2.59,0,0,0-.8-.39,3.24,3.24,0,0,0-.94-.14,3.2,3.2,0,0,0-.83.11,2.45,2.45,0,0,0-.69.33,1.59,1.59,0,0,0-.49.51,1.43,1.43,0,0,0-.18.72v.09a1.45,1.45,0,0,0,.18.74,1.55,1.55,0,0,0,.53.52,3,3,0,0,0,.88.36,9.82,9.82,0,0,0,1.23.25,4.57,4.57,0,0,1,2.43,1,2.45,2.45,0,0,1,.78,1.91v.18a3.34,3.34,0,0,1-.23,1.24,2.68,2.68,0,0,1-.7,1,3.16,3.16,0,0,1-1.13.63,4.94,4.94,0,0,1-1.56.22,5.05,5.05,0,0,1-1.77-.29,3.64,3.64,0,0,1-1.29-.81,3.43,3.43,0,0,1-.79-1.22,4.15,4.15,0,0,1-.27-1.52v-.45H152v.36a2.65,2.65,0,0,0,.76,2.07,3,3,0,0,0,2.1.69,2.62,2.62,0,0,0,1.77-.52,1.73,1.73,0,0,0,.59-1.37v-.09a1.47,1.47,0,0,0-.61-1.26,4.58,4.58,0,0,0-2-.63,7.75,7.75,0,0,1-1.43-.32,3.86,3.86,0,0,1-1.09-.57,2.45,2.45,0,0,1-.69-.85,2.66,2.66,0,0,1-.24-1.17v-.18a2.46,2.46,0,0,1,.25-1.12,2.67,2.67,0,0,1,.72-.89,3.34,3.34,0,0,1,1.09-.58,4.78,4.78,0,0,1,1.4-.2,4.65,4.65,0,0,1,1.59.26,3.53,3.53,0,0,1,1.17.68,2.87,2.87,0,0,1,.73,1,3.16,3.16,0,0,1,.25,1.21v.63h-1.26Z"/><path d="M160.66,211.75H167v1.17h-5.1v3.48h5v1.17h-5v3.51h5.19v1.17h-6.45Z"/><path d="M15.34,573.06h7.74v1.4H16.85v4.18H23V580H16.85v5.62H15.34Z"/><path d="M32.85,582.53h-5.4l-.91,3.13H24.91l3.82-12.6h2.84l3.82,12.6H33.77Zm-2.8-8.82-2.18,7.41h4.57l-2.18-7.41Z"/><path d="M41.24,584.51a3.07,3.07,0,0,0,1.32-.26,2.58,2.58,0,0,0,.91-.71,3.17,3.17,0,0,0,.52-1,4.3,4.3,0,0,0,.17-1.2v-.22h1.51v.22a5.51,5.51,0,0,1-.29,1.79,4.23,4.23,0,0,1-.84,1.46,4,4,0,0,1-1.39,1,4.93,4.93,0,0,1-1.91.35A4.16,4.16,0,0,1,38,584.6a5.62,5.62,0,0,1-1.17-3.84V578a5.61,5.61,0,0,1,1.17-3.8,4.09,4.09,0,0,1,3.26-1.35,4.75,4.75,0,0,1,1.91.35,4,4,0,0,1,1.39,1,4.14,4.14,0,0,1,.84,1.46,5.51,5.51,0,0,1,.29,1.79v.22H44.16v-.22a4.77,4.77,0,0,0-.19-1.19,3.28,3.28,0,0,0-.52-1,2.69,2.69,0,0,0-.89-.7,3.07,3.07,0,0,0-1.32-.26,2.48,2.48,0,0,0-2.18,1.06,4.82,4.82,0,0,0-.73,2.79v2.6a4.77,4.77,0,0,0,.73,2.85A2.53,2.53,0,0,0,41.24,584.51Z"/><path d="M48.19,573.06h8v1.4H52.94v9.8h3.24v1.4h-8v-1.4h3.24v-9.8H48.19Z"/><path d="M59.26,573.06h1.51v11.2h6.59v1.4h-8.1Z"/><path d="M70.22,573.06h8v1.4H75v9.8h3.24v1.4h-8v-1.4h3.24v-9.8H70.22Z"/><path d="M80.81,573.06h8.85v1.4H86v11.2H84.48v-11.2H80.81Z"/><path d="M99,582.53h-5.4l-.92,3.13H91l3.82-12.6h2.84l3.82,12.6H99.87Zm-2.81-8.82L94,581.12h4.58l-2.18-7.41Z"/><path d="M102.84,573.06h8.85v1.4H108v11.2h-1.51v-11.2h-3.67Z"/><path d="M114.29,573.06h8v1.4H119v9.8h3.24v1.4h-8v-1.4h3.24v-9.8h-3.24Z"/><path d="M124.87,578a5.61,5.61,0,0,1,1.17-3.8,4.61,4.61,0,0,1,6.52,0,5.61,5.61,0,0,1,1.17,3.8v2.8a5.62,5.62,0,0,1-1.17,3.84,4.71,4.71,0,0,1-6.52,0,5.62,5.62,0,0,1-1.17-3.84Zm4.43,6.55a2.53,2.53,0,0,0,2.18-1,4.77,4.77,0,0,0,.73-2.85v-2.6a4.82,4.82,0,0,0-.73-2.79,2.48,2.48,0,0,0-2.18-1.06,2.51,2.51,0,0,0-2.19,1.06,4.89,4.89,0,0,0-.73,2.79v2.6a4.84,4.84,0,0,0,.73,2.85A2.56,2.56,0,0,0,129.3,584.51Z"/><path d="M142.78,585H143v-12h1.51v12.6h-3l-3.63-11.95h-.22v11.95h-1.51v-12.6h3Z"/><path d="M470.4,584.51a3.15,3.15,0,0,0,1.33-.26,2.63,2.63,0,0,0,.9-.71,3,3,0,0,0,.52-1,4.3,4.3,0,0,0,.17-1.2v-.22h1.51v.22a5.25,5.25,0,0,1-.29,1.79,4.23,4.23,0,0,1-.84,1.46,3.87,3.87,0,0,1-1.39,1,4.93,4.93,0,0,1-1.91.35,4.14,4.14,0,0,1-3.25-1.31,5.62,5.62,0,0,1-1.17-3.84V578a5.61,5.61,0,0,1,1.17-3.8,4.07,4.07,0,0,1,3.25-1.35,4.75,4.75,0,0,1,1.91.35,3.87,3.87,0,0,1,1.39,1,4.14,4.14,0,0,1,.84,1.46,5.25,5.25,0,0,1,.29,1.79v.22h-1.51v-.22a4.35,4.35,0,0,0-.19-1.19,3.08,3.08,0,0,0-.52-1,2.59,2.59,0,0,0-.89-.7,3.07,3.07,0,0,0-1.32-.26,2.48,2.48,0,0,0-2.18,1.06,4.82,4.82,0,0,0-.73,2.79v2.6a4.77,4.77,0,0,0,.73,2.85A2.53,2.53,0,0,0,470.4,584.51Z"/><path d="M476.92,578a5.61,5.61,0,0,1,1.17-3.8,4.61,4.61,0,0,1,6.52,0,5.61,5.61,0,0,1,1.17,3.8v2.8a5.62,5.62,0,0,1-1.17,3.84,4.71,4.71,0,0,1-6.52,0,5.62,5.62,0,0,1-1.17-3.84Zm4.43,6.55a2.56,2.56,0,0,0,2.19-1,4.84,4.84,0,0,0,.72-2.85v-2.6a4.89,4.89,0,0,0-.72-2.79,2.79,2.79,0,0,0-4.38,0,4.89,4.89,0,0,0-.73,2.79v2.6a4.84,4.84,0,0,0,.73,2.85A2.56,2.56,0,0,0,481.35,584.51Z"/><path d="M494.83,585h.22v-12h1.51v12.6h-3l-3.63-11.95h-.22v11.95h-1.51v-12.6h3Z"/><path d="M506.35,576.7a2.32,2.32,0,0,0-.24-1.08,2.17,2.17,0,0,0-.66-.78,3.24,3.24,0,0,0-.95-.47,4.24,4.24,0,0,0-1.14-.16,3.53,3.53,0,0,0-1,.14,3,3,0,0,0-.83.38,1.86,1.86,0,0,0-.59.63,1.68,1.68,0,0,0-.22.85v.11a1.78,1.78,0,0,0,.22.89,1.93,1.93,0,0,0,.64.63,4,4,0,0,0,1.05.43,12.79,12.79,0,0,0,1.48.3,5.46,5.46,0,0,1,2.91,1.16A2.93,2.93,0,0,1,508,582v.22a3.84,3.84,0,0,1-.28,1.49,3.14,3.14,0,0,1-.83,1.16,3.87,3.87,0,0,1-1.36.75,5.9,5.9,0,0,1-1.87.27,6.1,6.1,0,0,1-2.13-.35,4.35,4.35,0,0,1-1.55-1,4.17,4.17,0,0,1-.94-1.46,5,5,0,0,1-.33-1.83v-.54h1.51v.44a3.21,3.21,0,0,0,.91,2.48,3.64,3.64,0,0,0,2.53.83,3.17,3.17,0,0,0,2.12-.62,2.11,2.11,0,0,0,.71-1.65v-.11a1.73,1.73,0,0,0-.73-1.51,5.61,5.61,0,0,0-2.37-.76,9.1,9.1,0,0,1-1.72-.38,4.57,4.57,0,0,1-1.3-.69,2.87,2.87,0,0,1-.83-1,3.25,3.25,0,0,1-.29-1.41v-.21a2.86,2.86,0,0,1,.31-1.35,3.25,3.25,0,0,1,.85-1.07,4,4,0,0,1,1.32-.69,6.09,6.09,0,0,1,3.58.06,4.4,4.4,0,0,1,1.41.82,3.37,3.37,0,0,1,.88,1.21,3.75,3.75,0,0,1,.29,1.45v.75h-1.51Z"/><path d="M511.59,573.06v8.35a3.39,3.39,0,0,0,.71,2.32,3.2,3.2,0,0,0,4.19,0,3.34,3.34,0,0,0,.72-2.32v-8.35h1.51v8.35a4.53,4.53,0,0,1-1.16,3.35,4.93,4.93,0,0,1-6.33,0,4.52,4.52,0,0,1-1.15-3.35v-8.35Z"/><path d="M521.47,573.06H523v11.2h6.59v1.4h-8.1Z"/><path d="M532,573.06h8.86v1.4h-3.68v11.2h-1.51v-11.2H532Z"/><path d="M550.15,582.53h-5.41l-.91,3.13h-1.62l3.81-12.6h2.85l3.81,12.6h-1.62Zm-2.81-8.82-2.18,7.41h4.57l-2.18-7.41Z"/><path d="M560.93,585h.21v-12h1.51v12.6h-3L556,573.71h-.21v11.95h-1.51v-12.6h3Z"/><path d="M569.55,584.51a3.11,3.11,0,0,0,1.32-.26,2.45,2.45,0,0,0,.9-.71,2.81,2.81,0,0,0,.52-1,4,4,0,0,0,.17-1.2v-.22H574v.22a5.51,5.51,0,0,1-.29,1.79,4.25,4.25,0,0,1-.85,1.46,3.83,3.83,0,0,1-1.38,1,5,5,0,0,1-1.91.35,4.16,4.16,0,0,1-3.26-1.31,5.62,5.62,0,0,1-1.17-3.84V578a5.61,5.61,0,0,1,1.17-3.8,4.09,4.09,0,0,1,3.26-1.35,4.79,4.79,0,0,1,1.91.35,3.83,3.83,0,0,1,1.38,1,4.16,4.16,0,0,1,.85,1.46,5.51,5.51,0,0,1,.29,1.79v.22h-1.52v-.22a4.35,4.35,0,0,0-.19-1.19,2.9,2.9,0,0,0-.52-1,2.59,2.59,0,0,0-.89-.7,3.06,3.06,0,0,0-1.31-.26,2.51,2.51,0,0,0-2.19,1.06,4.89,4.89,0,0,0-.73,2.79v2.6a4.84,4.84,0,0,0,.73,2.85A2.56,2.56,0,0,0,569.55,584.51Z"/><path d="M579.74,581.23h-.33l-3.94-8.17h1.69l3.23,6.88h.21l3.22-6.88h1.7l-3.95,8.17h-.32v4.43h-1.51Z"/><path d="M181,15.7h4.14a4.57,4.57,0,0,1,3.42,1.12,5,5,0,0,1,1.08,3.56v3.24a5,5,0,0,1-1.08,3.56,4.57,4.57,0,0,1-3.42,1.12H181V26.88H182V17.1H181Zm3.92,11.2a5.44,5.44,0,0,0,1.43-.17,2.13,2.13,0,0,0,1-.55,2.25,2.25,0,0,0,.58-1,5.81,5.81,0,0,0,.19-1.64v-3a5.81,5.81,0,0,0-.19-1.64,2.34,2.34,0,0,0-.58-1,2.2,2.2,0,0,0-1-.54,5.44,5.44,0,0,0-1.43-.17h-1.33v9.8Z"/><path d="M192.17,15.7h8v1.4h-3.24v9.8h3.24v1.4h-8V26.9h3.24V17.1h-3.24Z"/><path d="M206,22.25h5.61V28.3h-1.4V26.79H210a2.57,2.57,0,0,1-1.08,1.28,3.34,3.34,0,0,1-1.8.48,4,4,0,0,1-3.19-1.31,5.62,5.62,0,0,1-1.17-3.84V20.6a5.61,5.61,0,0,1,1.18-3.8,4.07,4.07,0,0,1,3.25-1.35,4.75,4.75,0,0,1,1.91.35,3.87,3.87,0,0,1,1.39,1,4.14,4.14,0,0,1,.84,1.46,5.25,5.25,0,0,1,.29,1.79v.21h-1.51V20a4.33,4.33,0,0,0-.17-1.19,3.28,3.28,0,0,0-.52-1,2.73,2.73,0,0,0-.9-.7,3.15,3.15,0,0,0-1.33-.26A2.48,2.48,0,0,0,205,17.91a4.82,4.82,0,0,0-.73,2.79v2.6a4.77,4.77,0,0,0,.73,2.85,2.57,2.57,0,0,0,2.22,1,2.66,2.66,0,0,0,2.11-.87,3.5,3.5,0,0,0,.77-2.41v-.21H206Z"/><path d="M214.2,15.7h8v1.4H219v9.8h3.24v1.4h-8V26.9h3.24V17.1H214.2Z"/><path d="M224.79,15.7h8.85v1.4H230V28.3h-1.51V17.1h-3.67Z"/><path d="M242.93,25.17h-5.4l-.92,3.13H235l3.82-12.6h2.84l3.82,12.6h-1.62Zm-2.81-8.82-2.18,7.41h4.58l-2.18-7.41Z"/><path d="M247.3,15.7h1.51V26.9h6.59v1.4h-8.1Z"/><path d="M269.28,15.7h8v1.4H274v9.8h3.24v1.4h-8V26.9h3.24V17.1h-3.24Z"/><path d="M286.76,27.65H287V15.7h1.51V28.3h-3l-3.63-11.95h-.22v12H280.1V15.7h3Z"/><path d="M291.51,15.7h7.74v1.4H293v4.18h6.12v1.4H293V28.3h-1.51Z"/><path d="M310.27,28.3h-1.51V24.09a1.1,1.1,0,0,0-.22-.72,1,1,0,0,0-.76-.25h-3.92V28.3h-1.51V15.7h4.5a4.61,4.61,0,0,1,1.69.28,3.22,3.22,0,0,1,1.92,1.83,3.62,3.62,0,0,1,.24,1.31v.54a2.83,2.83,0,0,1-.39,1.4,2.54,2.54,0,0,1-1.2,1.08v.22a1.36,1.36,0,0,1,.85.43,1.43,1.43,0,0,1,.31,1Zm-6.41-6.59h2.81a2.8,2.8,0,0,0,1.9-.55,2,2,0,0,0,.62-1.61v-.32a2,2,0,0,0-.62-1.54,2.7,2.7,0,0,0-1.9-.59h-2.81Z"/><path d="M320,25.17h-5.4l-.92,3.13H312.1l3.82-12.6h2.84l3.82,12.6H321Zm-2.81-8.82-2.18,7.41h4.58l-2.18-7.41Z"/><path d="M331.33,19.34a2.21,2.21,0,0,0-.25-1.08,2.25,2.25,0,0,0-.65-.78,3.3,3.3,0,0,0-1-.47,4.23,4.23,0,0,0-1.13-.16,3.53,3.53,0,0,0-1,.14,3.22,3.22,0,0,0-.84.38,2,2,0,0,0-.58.62,1.62,1.62,0,0,0-.22.86V19a1.68,1.68,0,0,0,.22.89,1.84,1.84,0,0,0,.64.63,4,4,0,0,0,1.05.43c.42.11.91.21,1.48.3A5.5,5.5,0,0,1,332,22.37a2.93,2.93,0,0,1,.94,2.29v.22a3.94,3.94,0,0,1-.28,1.48,3.1,3.1,0,0,1-.83,1.16,3.82,3.82,0,0,1-1.36.76,5.9,5.9,0,0,1-1.87.27,6.06,6.06,0,0,1-2.13-.35,4.27,4.27,0,0,1-1.55-1,4.19,4.19,0,0,1-.95-1.46,5.17,5.17,0,0,1-.32-1.83V23.4h1.51v.44a3.17,3.17,0,0,0,.91,2.48,3.64,3.64,0,0,0,2.53.83,3.13,3.13,0,0,0,2.11-.62,2.09,2.09,0,0,0,.72-1.65v-.11a1.76,1.76,0,0,0-.73-1.51,5.61,5.61,0,0,0-2.37-.76,8.92,8.92,0,0,1-1.72-.38,4.78,4.78,0,0,1-1.31-.69,3,3,0,0,1-.82-1A3.25,3.25,0,0,1,324.2,19V18.8a2.86,2.86,0,0,1,.31-1.35,3.13,3.13,0,0,1,.85-1.07,3.9,3.9,0,0,1,1.31-.69,6.12,6.12,0,0,1,3.59.06,4.63,4.63,0,0,1,1.41.82,3.46,3.46,0,0,1,.87,1.21,3.59,3.59,0,0,1,.3,1.45V20h-1.51Z"/><path d="M334.94,15.7h8.86v1.4h-3.67V28.3h-1.51V17.1h-3.68Z"/><path d="M354.33,28.3h-1.51V24.09a1.05,1.05,0,0,0-.22-.72.93.93,0,0,0-.75-.25h-3.93V28.3h-1.51V15.7h4.5a4.57,4.57,0,0,1,1.69.28,3.31,3.31,0,0,1,1.2.75,3,3,0,0,1,.72,1.08,3.62,3.62,0,0,1,.24,1.31v.54a2.92,2.92,0,0,1-.38,1.4,2.54,2.54,0,0,1-1.2,1.08v.22a1.36,1.36,0,0,1,.84.43,1.38,1.38,0,0,1,.31,1Zm-6.41-6.59h2.81a2.78,2.78,0,0,0,1.9-.55,2,2,0,0,0,.62-1.61v-.32a2,2,0,0,0-.62-1.54,2.69,2.69,0,0,0-1.9-.59h-2.81Z"/><path d="M358.6,15.7v8.35a3.29,3.29,0,0,0,.71,2.31,3.17,3.17,0,0,0,4.19,0,3.29,3.29,0,0,0,.71-2.31V15.7h1.52v8.35a4.53,4.53,0,0,1-1.16,3.35,4.93,4.93,0,0,1-6.33,0,4.52,4.52,0,0,1-1.15-3.35V15.7Z"/><path d="M372.49,27.15a3.15,3.15,0,0,0,1.33-.26,2.63,2.63,0,0,0,.9-.71,3.17,3.17,0,0,0,.52-1,4.3,4.3,0,0,0,.17-1.2v-.22h1.51V24a5.51,5.51,0,0,1-.29,1.79,4.23,4.23,0,0,1-.84,1.46,4,4,0,0,1-1.39,1,4.93,4.93,0,0,1-1.91.35,4.16,4.16,0,0,1-3.26-1.31,5.62,5.62,0,0,1-1.17-3.84V20.6a5.61,5.61,0,0,1,1.17-3.8,4.09,4.09,0,0,1,3.26-1.35,4.75,4.75,0,0,1,1.91.35,4,4,0,0,1,1.39,1,4.14,4.14,0,0,1,.84,1.46,5.51,5.51,0,0,1,.29,1.79v.21h-1.51V20a4.77,4.77,0,0,0-.19-1.19,3.08,3.08,0,0,0-.52-1,2.69,2.69,0,0,0-.89-.7,3.07,3.07,0,0,0-1.32-.26,2.48,2.48,0,0,0-2.18,1.06,4.82,4.82,0,0,0-.73,2.79v2.6a4.77,4.77,0,0,0,.73,2.85A2.53,2.53,0,0,0,372.49,27.15Z"/><path d="M379,15.7h8.85v1.4h-3.67V28.3h-1.51V17.1H379Z"/><path d="M391.65,15.7v8.35a3.29,3.29,0,0,0,.71,2.31,3.17,3.17,0,0,0,4.19,0,3.34,3.34,0,0,0,.71-2.31V15.7h1.51v8.35a4.52,4.52,0,0,1-1.15,3.35,4.94,4.94,0,0,1-6.34,0,4.57,4.57,0,0,1-1.15-3.35V15.7Z"/><path d="M409.41,28.3H407.9V24.09a1.05,1.05,0,0,0-.22-.72.93.93,0,0,0-.75-.25H403V28.3h-1.51V15.7H406a4.57,4.57,0,0,1,1.69.28,3.31,3.31,0,0,1,1.2.75,3,3,0,0,1,.72,1.08,3.62,3.62,0,0,1,.24,1.31v.54a2.92,2.92,0,0,1-.38,1.4,2.54,2.54,0,0,1-1.2,1.08v.22a1.26,1.26,0,0,1,1.15,1.4ZM403,21.71h2.81a2.78,2.78,0,0,0,1.9-.55,2,2,0,0,0,.62-1.61v-.32a2,2,0,0,0-.62-1.54,2.69,2.69,0,0,0-1.9-.59H403Z"/><path d="M412.67,15.7h7.63v1.4h-6.12v4.18h6v1.4h-6V26.9h6.23v1.4h-7.74Z"/></g></svg>