<?xml version="1.0" encoding="utf-8"?>
<!-- Generator: Adobe Illustrator 24.0.0, SVG Export Plug-In . SVG Version: 6.00 Build 0)  -->
<svg version="1.1" id="Layer_1" xmlns="http://www.w3.org/2000/svg" xmlns:xlink="http://www.w3.org/1999/xlink" x="0px" y="0px"
	 viewBox="0 0 500 486" style="enable-background:new 0 0 500 486;" xml:space="preserve">
<style type="text/css">
	.st0{fill:#F0F0F0;stroke:#000000;stroke-width:1.6633;}
	.st1{fill:none;stroke:#00B07B;stroke-width:1.5;}
	.st2{fill:none;stroke:#00B07B;stroke-width:1.5;stroke-dasharray:18.22,3.04;}
	.st3{fill:none;stroke:#00B07B;stroke-width:1.5;stroke-dasharray:25.14,4.19;}
	.st4{fill:none;stroke:#00B07B;stroke-width:1.5;stroke-dasharray:24.77,4.13;}
	.st5{fill:none;stroke:#00B07B;stroke-width:1.5;stroke-dasharray:24.7,4.12;}
</style>
<path class="st0" d="M118.8,215.6c25.8,0,46.7-20.9,46.7-46.7c0-25.8-20.9-46.7-46.7-46.7c-25.8,0-46.7,20.9-46.7,46.7
	C72.1,194.7,93,215.6,118.8,215.6z"/>
<path class="st0" d="M245,154.7c25.8,0,46.7-20.9,46.7-46.7c0-25.8-20.9-46.7-46.7-46.7s-46.7,20.9-46.7,46.7
	C198.3,133.8,219.2,154.7,245,154.7z"/>
<path class="st0" d="M372.5,215.6c25.8,0,46.7-20.9,46.7-46.7c0-25.8-20.9-46.7-46.7-46.7s-46.7,20.9-46.7,46.7
	C325.9,194.7,346.8,215.6,372.5,215.6z"/>
<path class="st0" d="M314.1,461.2c25.8,0,46.7-20.9,46.7-46.7s-20.9-46.7-46.7-46.7c-25.8,0-46.7,20.9-46.7,46.7
	S288.3,461.2,314.1,461.2z"/>
<path class="st0" d="M402.8,351.2c25.8,0,46.7-20.9,46.7-46.7c0-25.8-20.9-46.7-46.7-46.7s-46.7,20.9-46.7,46.7
	C356.2,330.3,377,351.2,402.8,351.2z"/>
<path class="st0" d="M175.8,461.2c25.8,0,46.7-20.9,46.7-46.7s-20.9-46.7-46.7-46.7c-25.8,0-46.7,20.9-46.7,46.7
	S150,461.2,175.8,461.2z"/>
<path class="st0" d="M90.2,351.2c25.8,0,46.7-20.9,46.7-46.7c0-25.8-20.9-46.7-46.7-46.7c-25.8,0-46.7,20.9-46.7,46.7
	C43.5,330.3,64.4,351.2,90.2,351.2z"/>
<path class="st1" d="M320.9,293l7.5-10l-2.8-12.1"/>
<path class="st2" d="M324.8,267.9l-9.3-39.9"/>
<path class="st1" d="M315.1,226.5l-2.8-12.2l-11.3-5.2"/>
<path class="st3" d="M297.2,207.3L214,168.8c-16.2-7.4-28.9-20.8-35.4-37.4c-3.3-8.3-4.8-17.1-4.6-26c0.2-8.9,2.3-17.6,6-25.7
	c10.8-23.3,34.6-38.3,60.7-38.3c10.1,0,20,2.2,29.1,6.4l123.6,57.2c0.5,0.2,1.1,0.5,1.7,0.8l0.1,0c4.8,2.2,9.3,5,13.5,8.3
	c11.8,9.6,20.1,22.9,23.5,37.7l30.6,131.2c1.3,5.4,1.9,11,1.8,16.5c0,4.3-0.3,8.6-1.1,12.8v0.4l-0.4,1.5
	c-2.1,9.7-6.3,18.9-12.2,26.8l-81.4,109.2c-6.3,8.6-14.6,15.6-24.2,20.4c-9.6,4.8-20.1,7.4-30.8,7.4c-14.1,0-27.9-4.5-39.1-13
	c-20.6-15.3-30.4-41.7-24.9-67.3c2.1-9.9,6.2-19.1,12.3-27.2l56.9-76.3"/>
<path class="st1" d="M256.3,201.6l-11.3-5.2l-11.3,5.2"/>
<path class="st4" d="M229.9,203.3L152.8,239c-10.6,4.9-22.2,7.5-33.9,7.5c-30.5,0-58.4-17.6-71-44.9c-4.4-9.4-6.8-19.7-7.1-30.1
	c-0.3-10.4,1.5-20.8,5.4-30.4c7.5-19.3,22.3-35,41.2-43.6L211,40.3c10.6-4.9,22.2-7.5,33.9-7.5h0.2c11.7,0,23.3,2.6,33.9,7.5
	l123.6,57.2c18.9,8.6,33.6,24.3,41.2,43.6c3.8,9.7,5.7,20,5.4,30.4c-0.3,10.4-2.7,20.6-7.1,30.1c-12.6,27.3-40.5,44.9-71,44.9
	c-11.7,0-23.3-2.5-33.9-7.5l-79-36.5"/>
<path class="st1" d="M160.4,269.9l-2.5,12.2l7.4,10"/>
<path class="st5" d="M167.8,295.5l56.4,76.1c5.5,7.3,9.4,15.7,11.5,24.6l0.1,0.1l0.6,3.1v0.1c4.5,24.5-5.1,49.5-24.7,64
	c-11,8.2-24.3,12.6-38,12.5c-3.7,0-7.3-0.3-11-0.9c-17.1-2.9-32.4-12.3-42.7-26.3L43,344.9c-6-6.6-10.7-14.4-13.6-22.9
	c-3-8.5-4.2-17.4-3.6-26.4c0.2-3.7,0.7-7.4,1.6-11l26.4-130.2c2.9-14.5,10.6-27.7,21.9-37.4c11.2-9.6,25.3-14.9,40-15.1h0.7
	c4.4,0,8.9,0.5,13.2,1.4c34.1,7.4,56.1,42.2,48.9,77.5l-17.7,87.1"/>
<path d="M223.8,103.8h2.8c1,0,1.8,0.2,2.3,0.7c0.5,0.5,0.7,1.3,0.7,2.4v2.2c0,1.1-0.2,1.9-0.7,2.4c-0.5,0.5-1.2,0.7-2.3,0.7h-2.8
	v-0.9h0.7v-6.5h-0.7V103.8z M226.4,111.3c0.4,0,0.7,0,0.9-0.1c0.3-0.1,0.5-0.2,0.7-0.4c0.2-0.2,0.3-0.4,0.4-0.7
	c0.1-0.3,0.1-0.7,0.1-1.1v-2c0-0.4,0-0.8-0.1-1.1c-0.1-0.3-0.2-0.5-0.4-0.7c-0.2-0.2-0.4-0.3-0.7-0.4c-0.3-0.1-0.6-0.1-0.9-0.1h-0.9
	v6.5H226.4z M231.4,103.8h5.1v0.9h-4.1v2.8h4v0.9h-4v2.8h4.2v0.9h-5.2V103.8z M243.3,106.2c0-0.3-0.1-0.5-0.2-0.7
	c-0.1-0.2-0.2-0.4-0.4-0.5c-0.2-0.1-0.4-0.2-0.6-0.3c-0.2-0.1-0.5-0.1-0.8-0.1c-0.2,0-0.5,0-0.7,0.1c-0.2,0.1-0.4,0.1-0.6,0.3
	c-0.2,0.1-0.3,0.3-0.4,0.4c-0.1,0.2-0.1,0.3-0.1,0.6v0.1c0,0.2,0,0.4,0.1,0.6c0.1,0.2,0.2,0.3,0.4,0.4c0.2,0.1,0.4,0.2,0.7,0.3
	c0.3,0.1,0.6,0.1,1,0.2c0.9,0.1,1.5,0.4,1.9,0.8c0.4,0.4,0.6,0.9,0.6,1.5v0.1c0,0.4-0.1,0.7-0.2,1c-0.1,0.3-0.3,0.6-0.6,0.8
	c-0.2,0.2-0.5,0.4-0.9,0.5c-0.4,0.1-0.8,0.2-1.2,0.2c-0.5,0-1-0.1-1.4-0.2c-0.4-0.2-0.8-0.4-1-0.6c-0.3-0.3-0.5-0.6-0.6-1
	c-0.1-0.4-0.2-0.8-0.2-1.2V109h1v0.3c0,0.7,0.2,1.3,0.6,1.7c0.4,0.4,1,0.6,1.7,0.6c0.6,0,1.1-0.1,1.4-0.4c0.3-0.3,0.5-0.6,0.5-1.1
	v-0.1c0-0.4-0.2-0.8-0.5-1c-0.3-0.2-0.8-0.4-1.6-0.5c-0.4-0.1-0.8-0.1-1.2-0.3c-0.3-0.1-0.6-0.3-0.9-0.5c-0.2-0.2-0.4-0.4-0.6-0.7
	s-0.2-0.6-0.2-0.9v-0.1c0-0.3,0.1-0.6,0.2-0.9c0.1-0.3,0.3-0.5,0.6-0.7c0.2-0.2,0.5-0.4,0.9-0.5c0.3-0.1,0.7-0.2,1.1-0.2
	c0.5,0,0.9,0.1,1.3,0.2c0.4,0.1,0.7,0.3,0.9,0.6c0.3,0.2,0.4,0.5,0.6,0.8c0.1,0.3,0.2,0.6,0.2,1v0.5h-1V106.2z M246,103.8h5.3v0.9
	h-2.2v6.5h2.2v0.9H246v-0.9h2.2v-6.5H246V103.8z M255.2,108.2h3.7v4H258v-1h-0.1c-0.1,0.4-0.4,0.6-0.7,0.9c-0.3,0.2-0.7,0.3-1.2,0.3
	c-0.9,0-1.6-0.3-2.1-0.9c-0.5-0.6-0.8-1.4-0.8-2.6v-1.9c0-1.1,0.3-1.9,0.8-2.5c0.5-0.6,1.2-0.9,2.2-0.9c0.5,0,0.9,0.1,1.3,0.2
	c0.4,0.2,0.7,0.4,0.9,0.6c0.2,0.3,0.4,0.6,0.6,1c0.1,0.4,0.2,0.8,0.2,1.2v0.1h-1v-0.1c0-0.3,0-0.5-0.1-0.8c-0.1-0.3-0.2-0.5-0.3-0.7
	c-0.2-0.2-0.4-0.4-0.6-0.5c-0.2-0.1-0.5-0.2-0.9-0.2c-0.6,0-1.1,0.2-1.5,0.7c-0.3,0.5-0.5,1.1-0.5,1.9v1.7c0,0.8,0.2,1.5,0.5,1.9
	c0.3,0.4,0.8,0.7,1.5,0.7c0.6,0,1.1-0.2,1.4-0.6c0.3-0.4,0.5-0.9,0.5-1.6v-0.1h-2.7V108.2z M265,111.8h0.1v-8h1v8.4h-2l-2.4-8h-0.1
	v8h-1v-8.4h2L265,111.8z"/>
<path d="M332.9,164.8h2.8c1,0,1.8,0.2,2.3,0.7c0.5,0.5,0.7,1.3,0.7,2.4v2.2c0,1.1-0.2,1.9-0.7,2.4c-0.5,0.5-1.2,0.7-2.3,0.7h-2.8
	v-0.9h0.7v-6.5h-0.7V164.8z M335.5,172.2c0.4,0,0.7,0,0.9-0.1c0.3-0.1,0.5-0.2,0.7-0.4c0.2-0.2,0.3-0.4,0.4-0.7
	c0.1-0.3,0.1-0.7,0.1-1.1v-2c0-0.4,0-0.8-0.1-1.1c-0.1-0.3-0.2-0.5-0.4-0.7c-0.2-0.2-0.4-0.3-0.7-0.4c-0.3-0.1-0.6-0.1-0.9-0.1h-0.9
	v6.5H335.5z M340.5,164.8h5.1v0.9h-4.1v2.8h4v0.9h-4v2.8h4.2v0.9h-5.2V164.8z M347.1,164.8h1.1l2.2,8h0.1l2.2-8h1.1l-2.4,8.4h-1.9
	L347.1,164.8z M355.2,164.8h5.1v0.9h-4.1v2.8h4v0.9h-4v2.8h4.2v0.9h-5.2V164.8z M362.5,164.8h1v7.5h4.4v0.9h-5.4V164.8z M369.5,168
	c0-1.1,0.3-1.9,0.8-2.5s1.2-0.9,2.2-0.9s1.7,0.3,2.2,0.9c0.5,0.6,0.8,1.4,0.8,2.5v1.9c0,1.1-0.3,2-0.8,2.6c-0.5,0.6-1.2,0.9-2.2,0.9
	s-1.7-0.3-2.2-0.9c-0.5-0.6-0.8-1.4-0.8-2.6V168z M372.4,172.4c0.6,0,1.1-0.2,1.5-0.7c0.3-0.4,0.5-1.1,0.5-1.9v-1.7
	c0-0.8-0.2-1.4-0.5-1.9c-0.3-0.5-0.8-0.7-1.5-0.7c-0.6,0-1.1,0.2-1.5,0.7c-0.3,0.5-0.5,1.1-0.5,1.9v1.7c0,0.8,0.2,1.5,0.5,1.9
	C371.3,172.2,371.8,172.4,372.4,172.4z M378.2,169.7v3.5h-1v-8.4h3c0.4,0,0.8,0.1,1.1,0.2c0.3,0.1,0.6,0.3,0.8,0.5
	c0.2,0.2,0.4,0.5,0.5,0.7c0.1,0.3,0.2,0.6,0.2,0.9v0.4c0,0.3-0.1,0.6-0.2,0.9c-0.1,0.3-0.3,0.5-0.5,0.7c-0.2,0.2-0.5,0.4-0.8,0.5
	c-0.3,0.1-0.7,0.2-1.1,0.2H378.2z M378.2,168.8h1.9c1.1,0,1.7-0.5,1.7-1.4v-0.2c0-0.4-0.1-0.8-0.4-1c-0.3-0.3-0.7-0.4-1.3-0.4h-1.9
	V168.8z M384,164.8h1.9l1.1,8h0.1l1.1-8h1.9v8.4h-0.9v-8h-0.1l-1.1,8h-1.8l-1.1-8H385v8H384V164.8z M391.9,164.8h5.1v0.9H393v2.8h4
	v0.9h-4v2.8h4.2v0.9h-5.2V164.8z M403.5,172.7h0.1v-8h1v8.4h-2l-2.4-8h-0.1v8h-1v-8.4h2L403.5,172.7z M406.2,164.8h5.9v0.9h-2.4v7.5
	h-1v-7.5h-2.4V164.8z"/>
<path d="M379.2,299.3v3.5h-1v-8.4h3c0.4,0,0.8,0.1,1.1,0.2c0.3,0.1,0.6,0.3,0.8,0.5c0.2,0.2,0.4,0.5,0.5,0.7
	c0.1,0.3,0.2,0.6,0.2,0.9v0.4c0,0.3-0.1,0.6-0.2,0.9c-0.1,0.3-0.3,0.5-0.5,0.7c-0.2,0.2-0.5,0.4-0.8,0.5c-0.3,0.1-0.7,0.2-1.1,0.2
	H379.2z M379.2,298.3h1.9c1.1,0,1.7-0.5,1.7-1.4v-0.2c0-0.4-0.1-0.8-0.4-1c-0.3-0.3-0.7-0.4-1.3-0.4h-1.9V298.3z M390.8,302.7h-1
	v-2.8c0-0.2,0-0.4-0.1-0.5c-0.1-0.1-0.3-0.2-0.5-0.2h-2.6v3.5h-1v-8.4h3c0.4,0,0.8,0.1,1.1,0.2c0.3,0.1,0.6,0.3,0.8,0.5
	c0.2,0.2,0.4,0.5,0.5,0.7c0.1,0.3,0.2,0.6,0.2,0.9v0.4c0,0.3-0.1,0.6-0.3,0.9c-0.2,0.3-0.4,0.6-0.8,0.7v0.1c0.2,0,0.4,0.1,0.6,0.3
	c0.1,0.2,0.2,0.4,0.2,0.6V302.7z M386.6,298.3h1.9c0.6,0,1-0.1,1.3-0.4c0.3-0.2,0.4-0.6,0.4-1.1v-0.2c0-0.4-0.1-0.8-0.4-1
	c-0.3-0.3-0.7-0.4-1.3-0.4h-1.9V298.3z M392.6,297.6c0-1.1,0.3-1.9,0.8-2.5c0.5-0.6,1.2-0.9,2.2-0.9s1.7,0.3,2.2,0.9
	c0.5,0.6,0.8,1.4,0.8,2.5v1.9c0,1.1-0.3,2-0.8,2.6c-0.5,0.6-1.2,0.9-2.2,0.9s-1.7-0.3-2.2-0.9c-0.5-0.6-0.8-1.4-0.8-2.6V297.6z
	 M395.6,302c0.6,0,1.1-0.2,1.5-0.7c0.3-0.4,0.5-1.1,0.5-1.9v-1.7c0-0.8-0.2-1.4-0.5-1.9c-0.3-0.5-0.8-0.7-1.5-0.7s-1.1,0.2-1.5,0.7
	c-0.3,0.5-0.5,1.1-0.5,1.9v1.7c0,0.8,0.2,1.5,0.5,1.9C394.4,301.7,394.9,302,395.6,302z M405.3,300.2c0,0.9-0.2,1.5-0.6,2
	c-0.4,0.5-1,0.7-1.9,0.7s-1.5-0.2-2-0.7c-0.5-0.5-0.7-1.1-0.7-2v-0.6h1v0.6c0,0.5,0.1,1,0.4,1.3s0.7,0.5,1.2,0.5s1-0.2,1.2-0.5
	s0.3-0.7,0.3-1.3v-4.9h-0.9v-0.9h2.6v0.9h-0.7V300.2z M407.7,294.3h5.1v0.9h-4.1v2.8h4v0.9h-4v2.8h4.2v0.9h-5.2V294.3z M417.6,302
	c0.3,0,0.6-0.1,0.9-0.2c0.2-0.1,0.4-0.3,0.6-0.5c0.2-0.2,0.3-0.4,0.3-0.7c0.1-0.3,0.1-0.5,0.1-0.8v-0.1h1v0.1c0,0.4-0.1,0.8-0.2,1.2
	c-0.1,0.4-0.3,0.7-0.6,1c-0.2,0.3-0.6,0.5-0.9,0.6c-0.4,0.2-0.8,0.2-1.3,0.2c-0.9,0-1.7-0.3-2.2-0.9c-0.5-0.6-0.8-1.4-0.8-2.6v-1.9
	c0-1.1,0.3-1.9,0.8-2.5c0.5-0.6,1.2-0.9,2.2-0.9c0.5,0,0.9,0.1,1.3,0.2c0.4,0.2,0.7,0.4,0.9,0.6c0.2,0.3,0.4,0.6,0.6,1
	c0.1,0.4,0.2,0.8,0.2,1.2v0.1h-1v-0.1c0-0.3-0.1-0.5-0.1-0.8c-0.1-0.3-0.2-0.5-0.3-0.7c-0.2-0.2-0.3-0.4-0.6-0.5
	c-0.2-0.1-0.5-0.2-0.9-0.2c-0.6,0-1.1,0.2-1.5,0.7c-0.3,0.5-0.5,1.1-0.5,1.9v1.7c0,0.8,0.2,1.5,0.5,1.9
	C416.5,301.7,417,302,417.6,302z M422,294.3h5.9v0.9h-2.4v7.5h-1v-7.5H422V294.3z M366.7,306.3h1.9l1.1,8h0.1l1.1-8h1.9v8.4H372v-8
	h-0.1l-1.1,8h-1.8l-1.1-8h-0.1v8h-0.9V306.3z M379,312.6h-3.6l-0.6,2.1h-1.1l2.5-8.4h1.9l2.5,8.4h-1.1L379,312.6z M377.1,306.8
	l-1.5,4.9h3l-1.5-4.9H377.1z M386.2,314.3h0.1v-8h1v8.4h-2l-2.4-8h-0.1v8h-1v-8.4h2L386.2,314.3z M393.7,312.6h-3.6l-0.6,2.1h-1.1
	l2.5-8.4h1.9l2.5,8.4h-1.1L393.7,312.6z M391.8,306.8l-1.5,4.9h3l-1.5-4.9H391.8z M398.4,310.7h3.7v4h-0.9v-1h-0.1
	c-0.1,0.4-0.4,0.6-0.7,0.9c-0.3,0.2-0.7,0.3-1.2,0.3c-0.9,0-1.6-0.3-2.1-0.9c-0.5-0.6-0.8-1.4-0.8-2.6v-1.9c0-1.1,0.3-1.9,0.8-2.5
	c0.5-0.6,1.2-0.9,2.2-0.9c0.5,0,0.9,0.1,1.3,0.2c0.4,0.2,0.7,0.4,0.9,0.6c0.2,0.3,0.4,0.6,0.6,1c0.1,0.4,0.2,0.8,0.2,1.2v0.1h-1
	v-0.1c0-0.3,0-0.5-0.1-0.8c-0.1-0.3-0.2-0.5-0.3-0.7c-0.2-0.2-0.4-0.4-0.6-0.5c-0.2-0.1-0.5-0.2-0.9-0.2c-0.6,0-1.1,0.2-1.5,0.7
	c-0.3,0.5-0.5,1.1-0.5,1.9v1.7c0,0.8,0.2,1.5,0.5,1.9c0.3,0.4,0.8,0.7,1.5,0.7c0.6,0,1.1-0.2,1.4-0.6c0.3-0.4,0.5-0.9,0.5-1.6v-0.1
	h-2.7V310.7z M404,306.3h5.1v0.9H405v2.8h4v0.9h-4v2.8h4.2v0.9H404V306.3z M410.8,306.3h1.9l1.1,8h0.1l1.1-8h1.9v8.4h-0.9v-8H416
	l-1.1,8H413l-1.1-8h-0.1v8h-0.9V306.3z M418.7,306.3h5.1v0.9h-4.1v2.8h4v0.9h-4v2.8h4.2v0.9h-5.2V306.3z M430.3,314.3h0.1v-8h1v8.4
	h-2l-2.4-8h-0.1v8h-1v-8.4h2L430.3,314.3z M433,306.3h5.9v0.9h-2.4v7.5h-1v-7.5H433V306.3z"/>
<path d="M149.3,418.8h-1.8l-0.8-8h-0.1l-0.8,8H144l-0.9-8.4h0.9l0.8,8h0.1l0.8-8h1.8l0.8,8h0.1l0.8-8h0.9L149.3,418.8z M151.1,413.6
	c0-1.1,0.3-1.9,0.8-2.5c0.5-0.6,1.2-0.9,2.2-0.9c0.9,0,1.7,0.3,2.2,0.9c0.5,0.6,0.8,1.4,0.8,2.5v1.9c0,1.1-0.3,2-0.8,2.6
	c-0.5,0.6-1.2,0.9-2.2,0.9c-0.9,0-1.7-0.3-2.2-0.9c-0.5-0.6-0.8-1.4-0.8-2.6V413.6z M154,418c0.6,0,1.1-0.2,1.5-0.7
	c0.3-0.4,0.5-1.1,0.5-1.9v-1.7c0-0.8-0.2-1.4-0.5-1.9c-0.3-0.5-0.8-0.7-1.5-0.7c-0.6,0-1.1,0.2-1.5,0.7c-0.3,0.5-0.5,1.1-0.5,1.9
	v1.7c0,0.8,0.2,1.5,0.5,1.9C152.9,417.8,153.4,418,154,418z M164,418.8h-1V416c0-0.2,0-0.4-0.1-0.5c-0.1-0.1-0.3-0.2-0.5-0.2h-2.6
	v3.5h-1v-8.4h3c0.4,0,0.8,0.1,1.1,0.2c0.3,0.1,0.6,0.3,0.8,0.5c0.2,0.2,0.4,0.5,0.5,0.7c0.1,0.3,0.2,0.6,0.2,0.9v0.4
	c0,0.3-0.1,0.6-0.3,0.9c-0.2,0.3-0.4,0.6-0.8,0.7v0.1c0.2,0,0.4,0.1,0.6,0.3c0.1,0.2,0.2,0.4,0.2,0.6V418.8z M159.7,414.4h1.9
	c0.6,0,1-0.1,1.3-0.4c0.3-0.2,0.4-0.6,0.4-1.1v-0.2c0-0.4-0.1-0.8-0.4-1c-0.3-0.3-0.7-0.4-1.3-0.4h-1.9V414.4z M167.1,418.8h-1v-8.4
	h1v3.7h0.3l3.2-3.7h1.2v0.1l-3.5,4.1v0.1l3.6,4.1v0.1h-1.3l-3.3-3.7h-0.3V418.8z M178,412.8c0-0.3-0.1-0.5-0.2-0.7
	c-0.1-0.2-0.2-0.4-0.4-0.5c-0.2-0.1-0.4-0.2-0.6-0.3s-0.5-0.1-0.8-0.1c-0.2,0-0.5,0-0.7,0.1c-0.2,0.1-0.4,0.1-0.6,0.3
	c-0.2,0.1-0.3,0.3-0.4,0.4c-0.1,0.2-0.1,0.3-0.1,0.6v0.1c0,0.2,0,0.4,0.1,0.6c0.1,0.2,0.2,0.3,0.4,0.4c0.2,0.1,0.4,0.2,0.7,0.3
	c0.3,0.1,0.6,0.1,1,0.2c0.9,0.1,1.5,0.4,1.9,0.8c0.4,0.4,0.6,0.9,0.6,1.5v0.1c0,0.4-0.1,0.7-0.2,1c-0.1,0.3-0.3,0.6-0.6,0.8
	c-0.2,0.2-0.5,0.4-0.9,0.5c-0.4,0.1-0.8,0.2-1.2,0.2c-0.5,0-1-0.1-1.4-0.2c-0.4-0.2-0.8-0.4-1-0.6c-0.3-0.3-0.5-0.6-0.6-1
	c-0.1-0.4-0.2-0.8-0.2-1.2v-0.4h1v0.3c0,0.7,0.2,1.3,0.6,1.7c0.4,0.4,1,0.6,1.7,0.6c0.6,0,1.1-0.1,1.4-0.4c0.3-0.3,0.5-0.6,0.5-1.1
	v-0.1c0-0.4-0.2-0.8-0.5-1c-0.3-0.2-0.8-0.4-1.6-0.5c-0.4-0.1-0.8-0.1-1.2-0.3c-0.3-0.1-0.6-0.3-0.9-0.5c-0.2-0.2-0.4-0.4-0.6-0.7
	c-0.1-0.3-0.2-0.6-0.2-0.9v-0.1c0-0.3,0.1-0.6,0.2-0.9c0.1-0.3,0.3-0.5,0.6-0.7c0.2-0.2,0.5-0.4,0.9-0.5c0.3-0.1,0.7-0.2,1.1-0.2
	c0.5,0,0.9,0.1,1.3,0.2c0.4,0.1,0.7,0.3,0.9,0.6c0.3,0.2,0.4,0.5,0.6,0.8c0.1,0.3,0.2,0.6,0.2,1v0.5h-1V412.8z M180.6,410.4h1v3.7
	h3.6v-3.7h1v8.4h-1V415h-3.6v3.7h-1V410.4z M187.8,413.6c0-1.1,0.3-1.9,0.8-2.5c0.5-0.6,1.2-0.9,2.2-0.9s1.7,0.3,2.2,0.9
	c0.5,0.6,0.8,1.4,0.8,2.5v1.9c0,1.1-0.3,2-0.8,2.6c-0.5,0.6-1.2,0.9-2.2,0.9s-1.7-0.3-2.2-0.9c-0.5-0.6-0.8-1.4-0.8-2.6V413.6z
	 M190.7,418c0.6,0,1.1-0.2,1.5-0.7c0.3-0.4,0.5-1.1,0.5-1.9v-1.7c0-0.8-0.2-1.4-0.5-1.9c-0.3-0.5-0.8-0.7-1.5-0.7
	c-0.6,0-1.1,0.2-1.5,0.7c-0.3,0.5-0.5,1.1-0.5,1.9v1.7c0,0.8,0.2,1.5,0.5,1.9C189.6,417.8,190.1,418,190.7,418z M196.4,415.3v3.5h-1
	v-8.4h3c0.4,0,0.8,0.1,1.1,0.2c0.3,0.1,0.6,0.3,0.8,0.5c0.2,0.2,0.4,0.5,0.5,0.7c0.1,0.3,0.2,0.6,0.2,0.9v0.4c0,0.3-0.1,0.6-0.2,0.9
	c-0.1,0.3-0.3,0.5-0.5,0.7c-0.2,0.2-0.5,0.4-0.8,0.5c-0.3,0.1-0.7,0.2-1.1,0.2H196.4z M196.4,414.4h1.9c1.1,0,1.7-0.5,1.7-1.4v-0.2
	c0-0.4-0.1-0.8-0.4-1c-0.3-0.3-0.7-0.4-1.3-0.4h-1.9V414.4z M207.4,412.8c0-0.3-0.1-0.5-0.2-0.7c-0.1-0.2-0.2-0.4-0.4-0.5
	c-0.2-0.1-0.4-0.2-0.6-0.3c-0.2-0.1-0.5-0.1-0.8-0.1c-0.2,0-0.5,0-0.7,0.1c-0.2,0.1-0.4,0.1-0.6,0.3c-0.2,0.1-0.3,0.3-0.4,0.4
	c-0.1,0.2-0.1,0.3-0.1,0.6v0.1c0,0.2,0,0.4,0.1,0.6c0.1,0.2,0.2,0.3,0.4,0.4c0.2,0.1,0.4,0.2,0.7,0.3c0.3,0.1,0.6,0.1,1,0.2
	c0.9,0.1,1.5,0.4,1.9,0.8c0.4,0.4,0.6,0.9,0.6,1.5v0.1c0,0.4-0.1,0.7-0.2,1c-0.1,0.3-0.3,0.6-0.6,0.8c-0.2,0.2-0.5,0.4-0.9,0.5
	c-0.4,0.1-0.8,0.2-1.2,0.2c-0.5,0-1-0.1-1.4-0.2c-0.4-0.2-0.8-0.4-1-0.6c-0.3-0.3-0.5-0.6-0.6-1c-0.1-0.4-0.2-0.8-0.2-1.2v-0.4h1
	v0.3c0,0.7,0.2,1.3,0.6,1.7c0.4,0.4,1,0.6,1.7,0.6c0.6,0,1.1-0.1,1.4-0.4c0.3-0.3,0.5-0.6,0.5-1.1v-0.1c0-0.4-0.2-0.8-0.5-1
	c-0.3-0.2-0.8-0.4-1.6-0.5c-0.4-0.1-0.8-0.1-1.2-0.3c-0.3-0.1-0.6-0.3-0.9-0.5c-0.2-0.2-0.4-0.4-0.6-0.7c-0.1-0.3-0.2-0.6-0.2-0.9
	v-0.1c0-0.3,0.1-0.6,0.2-0.9c0.1-0.3,0.3-0.5,0.6-0.7c0.2-0.2,0.5-0.4,0.9-0.5c0.3-0.1,0.7-0.2,1.1-0.2c0.5,0,0.9,0.1,1.3,0.2
	c0.4,0.1,0.7,0.3,0.9,0.6c0.3,0.2,0.4,0.5,0.6,0.8c0.1,0.3,0.2,0.6,0.2,1v0.5h-1V412.8z"/>
<path d="M290.6,412.8c0-0.3-0.1-0.5-0.2-0.7c-0.1-0.2-0.2-0.4-0.4-0.5c-0.2-0.1-0.4-0.2-0.6-0.3s-0.5-0.1-0.8-0.1
	c-0.2,0-0.5,0-0.7,0.1c-0.2,0.1-0.4,0.1-0.6,0.3c-0.2,0.1-0.3,0.3-0.4,0.4c-0.1,0.2-0.1,0.3-0.1,0.6v0.1c0,0.2,0,0.4,0.1,0.6
	c0.1,0.2,0.2,0.3,0.4,0.4c0.2,0.1,0.4,0.2,0.7,0.3c0.3,0.1,0.6,0.1,1,0.2c0.9,0.1,1.5,0.4,1.9,0.8c0.4,0.4,0.6,0.9,0.6,1.5v0.1
	c0,0.4-0.1,0.7-0.2,1c-0.1,0.3-0.3,0.6-0.6,0.8c-0.2,0.2-0.5,0.4-0.9,0.5c-0.4,0.1-0.8,0.2-1.2,0.2c-0.5,0-1-0.1-1.4-0.2
	c-0.4-0.2-0.8-0.4-1-0.6c-0.3-0.3-0.5-0.6-0.6-1c-0.1-0.4-0.2-0.8-0.2-1.2v-0.4h1v0.3c0,0.7,0.2,1.3,0.6,1.7c0.4,0.4,1,0.6,1.7,0.6
	c0.6,0,1.1-0.1,1.4-0.4c0.3-0.3,0.5-0.6,0.5-1.1v-0.1c0-0.4-0.2-0.8-0.5-1c-0.3-0.2-0.8-0.4-1.6-0.5c-0.4-0.1-0.8-0.1-1.2-0.3
	c-0.3-0.1-0.6-0.3-0.9-0.5c-0.2-0.2-0.4-0.4-0.6-0.7c-0.1-0.3-0.2-0.6-0.2-0.9v-0.1c0-0.3,0.1-0.6,0.2-0.9c0.1-0.3,0.3-0.5,0.6-0.7
	c0.2-0.2,0.5-0.4,0.9-0.5c0.3-0.1,0.7-0.2,1.1-0.2c0.5,0,0.9,0.1,1.3,0.2c0.4,0.1,0.7,0.3,0.9,0.6c0.3,0.2,0.4,0.5,0.6,0.8
	c0.1,0.3,0.2,0.6,0.2,1v0.5h-1V412.8z M293,410.4h5.9v0.9h-2.4v7.5h-1v-7.5H293V410.4z M305.9,418.8h-1V416c0-0.2,0-0.4-0.1-0.5
	s-0.3-0.2-0.5-0.2h-2.6v3.5h-1v-8.4h3c0.4,0,0.8,0.1,1.1,0.2c0.3,0.1,0.6,0.3,0.8,0.5c0.2,0.2,0.4,0.5,0.5,0.7
	c0.1,0.3,0.2,0.6,0.2,0.9v0.4c0,0.3-0.1,0.6-0.3,0.9c-0.2,0.3-0.4,0.6-0.8,0.7v0.1c0.2,0,0.4,0.1,0.6,0.3c0.1,0.2,0.2,0.4,0.2,0.6
	V418.8z M301.7,414.4h1.9c0.6,0,1-0.1,1.3-0.4c0.3-0.2,0.4-0.6,0.4-1.1v-0.2c0-0.4-0.1-0.8-0.4-1c-0.3-0.3-0.7-0.4-1.3-0.4h-1.9
	V414.4z M312.5,416.7h-3.6l-0.6,2.1h-1.1l2.5-8.4h1.9l2.5,8.4h-1.1L312.5,416.7z M310.6,410.8l-1.5,4.9h3l-1.5-4.9H310.6z
	 M315.1,410.4h5.9v0.9h-2.4v7.5h-1v-7.5h-2.4V410.4z M322.8,410.4h5.1v0.9h-4.1v2.8h4v0.9h-4v2.8h4.2v0.9h-5.2V410.4z M331.9,414.7
	h3.7v4h-0.9v-1h-0.1c-0.1,0.4-0.4,0.6-0.7,0.9c-0.3,0.2-0.7,0.3-1.2,0.3c-0.9,0-1.6-0.3-2.1-0.9c-0.5-0.6-0.8-1.4-0.8-2.6v-1.9
	c0-1.1,0.3-1.9,0.8-2.5c0.5-0.6,1.2-0.9,2.2-0.9c0.5,0,0.9,0.1,1.3,0.2c0.4,0.2,0.7,0.4,0.9,0.6c0.2,0.3,0.4,0.6,0.6,1
	c0.1,0.4,0.2,0.8,0.2,1.2v0.1h-1v-0.1c0-0.3,0-0.5-0.1-0.8c-0.1-0.3-0.2-0.5-0.3-0.7c-0.2-0.2-0.4-0.4-0.6-0.5
	c-0.2-0.1-0.5-0.2-0.9-0.2c-0.6,0-1.1,0.2-1.5,0.7c-0.3,0.5-0.5,1.1-0.5,1.9v1.7c0,0.8,0.2,1.5,0.5,1.9c0.3,0.4,0.8,0.7,1.5,0.7
	c0.6,0,1.1-0.2,1.4-0.6c0.3-0.4,0.5-0.9,0.5-1.6v-0.1h-2.7V414.7z M339.5,415.8h-0.2l-2.6-5.4h1.1l2.1,4.6h0.1l2.1-4.6h1.1l-2.6,5.4
	h-0.2v3h-1V415.8z"/>
<path d="M63.2,308.7h-1v-2.8c0-0.2,0-0.4-0.1-0.5c-0.1-0.1-0.3-0.2-0.5-0.2H59v3.5h-1v-8.4h3c0.4,0,0.8,0.1,1.1,0.2
	c0.3,0.1,0.6,0.3,0.8,0.5c0.2,0.2,0.4,0.5,0.5,0.7c0.1,0.3,0.2,0.6,0.2,0.9v0.4c0,0.3-0.1,0.6-0.3,0.9c-0.2,0.3-0.4,0.6-0.8,0.7v0.1
	c0.2,0,0.4,0.1,0.6,0.3c0.1,0.2,0.2,0.4,0.2,0.6V308.7z M59,304.3h1.9c0.6,0,1-0.1,1.3-0.4c0.3-0.2,0.4-0.6,0.4-1.1v-0.2
	c0-0.4-0.1-0.8-0.4-1c-0.3-0.3-0.7-0.4-1.3-0.4H59V304.3z M65.4,300.3h5.1v0.9h-4.1v2.8h4v0.9h-4v2.8h4.2v0.9h-5.2V300.3z
	 M77.3,302.8c0-0.3-0.1-0.5-0.2-0.7c-0.1-0.2-0.2-0.4-0.4-0.5s-0.4-0.2-0.6-0.3c-0.2-0.1-0.5-0.1-0.8-0.1c-0.2,0-0.5,0-0.7,0.1
	c-0.2,0.1-0.4,0.1-0.6,0.3c-0.2,0.1-0.3,0.3-0.4,0.4c-0.1,0.2-0.1,0.3-0.1,0.6v0.1c0,0.2,0,0.4,0.1,0.6c0.1,0.2,0.2,0.3,0.4,0.4
	c0.2,0.1,0.4,0.2,0.7,0.3c0.3,0.1,0.6,0.1,1,0.2c0.9,0.1,1.5,0.4,1.9,0.8c0.4,0.4,0.6,0.9,0.6,1.5v0.1c0,0.4-0.1,0.7-0.2,1
	c-0.1,0.3-0.3,0.6-0.6,0.8c-0.2,0.2-0.5,0.4-0.9,0.5s-0.8,0.2-1.2,0.2c-0.5,0-1-0.1-1.4-0.2c-0.4-0.2-0.8-0.4-1-0.6
	c-0.3-0.3-0.5-0.6-0.6-1c-0.1-0.4-0.2-0.8-0.2-1.2v-0.4h1v0.3c0,0.7,0.2,1.3,0.6,1.7c0.4,0.4,1,0.6,1.7,0.6c0.6,0,1.1-0.1,1.4-0.4
	c0.3-0.3,0.5-0.6,0.5-1.1v-0.1c0-0.4-0.2-0.8-0.5-1c-0.3-0.2-0.8-0.4-1.6-0.5c-0.4-0.1-0.8-0.1-1.2-0.3c-0.3-0.1-0.6-0.3-0.9-0.5
	c-0.2-0.2-0.4-0.4-0.6-0.7s-0.2-0.6-0.2-0.9v-0.1c0-0.3,0.1-0.6,0.2-0.9c0.1-0.3,0.3-0.5,0.6-0.7c0.2-0.2,0.5-0.4,0.9-0.5
	c0.3-0.1,0.7-0.2,1.1-0.2c0.5,0,0.9,0.1,1.3,0.2c0.4,0.1,0.7,0.3,0.9,0.6c0.3,0.2,0.4,0.5,0.6,0.8c0.1,0.3,0.2,0.6,0.2,1v0.5h-1
	V302.8z M79.7,303.6c0-1.1,0.3-1.9,0.8-2.5c0.5-0.6,1.2-0.9,2.2-0.9c0.9,0,1.7,0.3,2.2,0.9c0.5,0.6,0.8,1.4,0.8,2.5v1.9
	c0,1.1-0.3,2-0.8,2.6c-0.5,0.6-1.2,0.9-2.2,0.9c-0.9,0-1.7-0.3-2.2-0.9c-0.5-0.6-0.8-1.4-0.8-2.6V303.6z M82.6,308
	c0.6,0,1.1-0.2,1.5-0.7c0.3-0.4,0.5-1.1,0.5-1.9v-1.7c0-0.8-0.2-1.4-0.5-1.9c-0.3-0.5-0.8-0.7-1.5-0.7c-0.6,0-1.1,0.2-1.5,0.7
	c-0.3,0.5-0.5,1.1-0.5,1.9v1.7c0,0.8,0.2,1.5,0.5,1.9C81.5,307.7,82,308,82.6,308z M88.1,300.3v5.6c0,0.7,0.2,1.2,0.5,1.5
	c0.3,0.3,0.8,0.5,1.4,0.5c0.6,0,1.1-0.2,1.4-0.5c0.3-0.4,0.5-0.9,0.5-1.5v-5.6h1v5.6c0,1-0.3,1.7-0.8,2.2c-0.5,0.5-1.2,0.8-2.1,0.8
	c-0.9,0-1.6-0.3-2.1-0.8c-0.5-0.5-0.8-1.3-0.8-2.2v-5.6H88.1z M100,308.7h-1v-2.8c0-0.2,0-0.4-0.1-0.5s-0.3-0.2-0.5-0.2h-2.6v3.5h-1
	v-8.4h3c0.4,0,0.8,0.1,1.1,0.2c0.3,0.1,0.6,0.3,0.8,0.5c0.2,0.2,0.4,0.5,0.5,0.7c0.1,0.3,0.2,0.6,0.2,0.9v0.4c0,0.3-0.1,0.6-0.3,0.9
	c-0.2,0.3-0.4,0.6-0.8,0.7v0.1c0.2,0,0.4,0.1,0.6,0.3c0.1,0.2,0.2,0.4,0.2,0.6V308.7z M95.7,304.3h1.9c0.6,0,1-0.1,1.3-0.4
	c0.3-0.2,0.4-0.6,0.4-1.1v-0.2c0-0.4-0.1-0.8-0.4-1c-0.3-0.3-0.7-0.4-1.3-0.4h-1.9V304.3z M104.7,308c0.3,0,0.6-0.1,0.9-0.2
	c0.2-0.1,0.4-0.3,0.6-0.5c0.2-0.2,0.3-0.4,0.3-0.7c0.1-0.3,0.1-0.5,0.1-0.8v-0.1h1v0.1c0,0.4-0.1,0.8-0.2,1.2
	c-0.1,0.4-0.3,0.7-0.6,1c-0.2,0.3-0.6,0.5-0.9,0.6c-0.4,0.2-0.8,0.2-1.3,0.2c-0.9,0-1.7-0.3-2.2-0.9c-0.5-0.6-0.8-1.4-0.8-2.6v-1.9
	c0-1.1,0.3-1.9,0.8-2.5c0.5-0.6,1.2-0.9,2.2-0.9c0.5,0,0.9,0.1,1.3,0.2c0.4,0.2,0.7,0.4,0.9,0.6c0.2,0.3,0.4,0.6,0.6,1
	c0.1,0.4,0.2,0.8,0.2,1.2v0.1h-1v-0.1c0-0.3-0.1-0.5-0.1-0.8c-0.1-0.3-0.2-0.5-0.3-0.7c-0.2-0.2-0.3-0.4-0.6-0.5
	c-0.2-0.1-0.5-0.2-0.9-0.2c-0.6,0-1.1,0.2-1.5,0.7c-0.3,0.5-0.5,1.1-0.5,1.9v1.7c0,0.8,0.2,1.5,0.5,1.9
	C103.6,307.7,104.1,308,104.7,308z M109.5,300.3h5.1v0.9h-4.1v2.8h4v0.9h-4v2.8h4.2v0.9h-5.2V300.3z M121.4,302.8
	c0-0.3-0.1-0.5-0.2-0.7c-0.1-0.2-0.2-0.4-0.4-0.5c-0.2-0.1-0.4-0.2-0.6-0.3c-0.2-0.1-0.5-0.1-0.8-0.1c-0.2,0-0.5,0-0.7,0.1
	c-0.2,0.1-0.4,0.1-0.6,0.3c-0.2,0.1-0.3,0.3-0.4,0.4c-0.1,0.2-0.1,0.3-0.1,0.6v0.1c0,0.2,0,0.4,0.1,0.6c0.1,0.2,0.2,0.3,0.4,0.4
	c0.2,0.1,0.4,0.2,0.7,0.3c0.3,0.1,0.6,0.1,1,0.2c0.9,0.1,1.5,0.4,1.9,0.8c0.4,0.4,0.6,0.9,0.6,1.5v0.1c0,0.4-0.1,0.7-0.2,1
	c-0.1,0.3-0.3,0.6-0.6,0.8c-0.2,0.2-0.5,0.4-0.9,0.5s-0.8,0.2-1.2,0.2c-0.5,0-1-0.1-1.4-0.2c-0.4-0.2-0.8-0.4-1-0.6
	c-0.3-0.3-0.5-0.6-0.6-1c-0.1-0.4-0.2-0.8-0.2-1.2v-0.4h1v0.3c0,0.7,0.2,1.3,0.6,1.7c0.4,0.4,1,0.6,1.7,0.6c0.6,0,1.1-0.1,1.4-0.4
	c0.3-0.3,0.5-0.6,0.5-1.1v-0.1c0-0.4-0.2-0.8-0.5-1c-0.3-0.2-0.8-0.4-1.6-0.5c-0.4-0.1-0.8-0.1-1.2-0.3c-0.3-0.1-0.6-0.3-0.9-0.5
	c-0.2-0.2-0.4-0.4-0.6-0.7s-0.2-0.6-0.2-0.9v-0.1c0-0.3,0.1-0.6,0.2-0.9c0.1-0.3,0.3-0.5,0.6-0.7c0.2-0.2,0.5-0.4,0.9-0.5
	c0.3-0.1,0.7-0.2,1.1-0.2c0.5,0,0.9,0.1,1.3,0.2c0.4,0.1,0.7,0.3,0.9,0.6c0.3,0.2,0.4,0.5,0.6,0.8c0.1,0.3,0.2,0.6,0.2,1v0.5h-1
	V302.8z"/>
<path d="M5.1,468.5h6.5v1.2H6.4v3.5h5.1v1.2H6.4v4.7H5.1V468.5z M19.7,476.4h-4.5l-0.8,2.6h-1.4l3.2-10.5h2.4l3.2,10.5h-1.4
	L19.7,476.4z M17.4,469l-1.8,6.2h3.8l-1.8-6.2H17.4z M26.7,478c0.4,0,0.8-0.1,1.1-0.2c0.3-0.2,0.6-0.3,0.8-0.6
	c0.2-0.2,0.3-0.5,0.4-0.8c0.1-0.3,0.1-0.7,0.1-1v-0.2h1.3v0.2c0,0.5-0.1,1-0.2,1.5c-0.2,0.5-0.4,0.9-0.7,1.2
	c-0.3,0.3-0.7,0.6-1.2,0.8c-0.5,0.2-1,0.3-1.6,0.3c-1.2,0-2.1-0.4-2.7-1.1c-0.6-0.7-1-1.8-1-3.2v-2.3c0-1.4,0.3-2.4,1-3.2
	c0.7-0.8,1.6-1.1,2.7-1.1c0.6,0,1.1,0.1,1.6,0.3c0.5,0.2,0.8,0.5,1.2,0.8c0.3,0.3,0.5,0.7,0.7,1.2c0.2,0.5,0.2,1,0.2,1.5v0.2h-1.3
	v-0.2c0-0.3-0.1-0.7-0.2-1c-0.1-0.3-0.2-0.6-0.4-0.8c-0.2-0.2-0.4-0.4-0.7-0.6c-0.3-0.1-0.7-0.2-1.1-0.2c-0.8,0-1.4,0.3-1.8,0.9
	c-0.4,0.6-0.6,1.4-0.6,2.3v2.2c0,1,0.2,1.8,0.6,2.4C25.3,477.8,25.9,478,26.7,478z M32.5,468.5h6.7v1.2h-2.7v8.2h2.7v1.2h-6.7v-1.2
	h2.7v-8.2h-2.7V468.5z M41.8,468.5H43v9.3h5.5v1.2h-6.8V468.5z M50.9,468.5h6.7v1.2h-2.7v8.2h2.7v1.2h-6.7v-1.2h2.7v-8.2h-2.7V468.5
	z M59.7,468.5h7.4v1.2H64v9.3h-1.3v-9.3h-3.1V468.5z M74.8,476.4h-4.5l-0.8,2.6h-1.4l3.2-10.5h2.4L77,479h-1.4L74.8,476.4z
	 M72.5,469l-1.8,6.2h3.8l-1.8-6.2H72.5z M78.1,468.5h7.4v1.2h-3.1v9.3h-1.3v-9.3h-3.1V468.5z M87.6,468.5h6.7v1.2h-2.7v8.2h2.7v1.2
	h-6.7v-1.2h2.7v-8.2h-2.7V468.5z M96.5,472.6c0-1.4,0.3-2.4,1-3.2s1.6-1.1,2.7-1.1s2.1,0.4,2.7,1.1s1,1.8,1,3.2v2.3
	c0,1.4-0.3,2.5-1,3.2c-0.6,0.7-1.6,1.1-2.7,1.1s-2.1-0.4-2.7-1.1c-0.6-0.7-1-1.8-1-3.2V472.6z M100.1,478c0.8,0,1.4-0.3,1.8-0.8
	c0.4-0.6,0.6-1.4,0.6-2.4v-2.2c0-1-0.2-1.7-0.6-2.3c-0.4-0.6-1-0.9-1.8-0.9s-1.4,0.3-1.8,0.9c-0.4,0.6-0.6,1.4-0.6,2.3v2.2
	c0,1,0.2,1.8,0.6,2.4C98.7,477.8,99.3,478,100.1,478z M111.4,478.5h0.2v-10h1.3V479h-2.5l-3-10h-0.2v10h-1.3v-10.5h2.5L111.4,478.5z
	"/>
<path d="M398.3,478c0.4,0,0.8-0.1,1.1-0.2c0.3-0.1,0.6-0.3,0.8-0.6c0.2-0.2,0.3-0.5,0.4-0.8c0.1-0.3,0.1-0.7,0.1-1v-0.2h1.3v0.2
	c0,0.5-0.1,1-0.2,1.5c-0.2,0.5-0.4,0.9-0.7,1.2c-0.3,0.3-0.7,0.6-1.2,0.8c-0.5,0.2-1,0.3-1.6,0.3c-1.2,0-2.1-0.4-2.7-1.1
	c-0.6-0.7-1-1.8-1-3.2v-2.3c0-1.4,0.3-2.4,1-3.2s1.6-1.1,2.7-1.1c0.6,0,1.1,0.1,1.6,0.3c0.5,0.2,0.8,0.5,1.2,0.8
	c0.3,0.3,0.5,0.7,0.7,1.2c0.2,0.5,0.2,1,0.2,1.5v0.2h-1.3v-0.2c0-0.3-0.1-0.7-0.2-1c-0.1-0.3-0.2-0.6-0.4-0.8
	c-0.2-0.2-0.4-0.4-0.7-0.6c-0.3-0.1-0.7-0.2-1.1-0.2c-0.8,0-1.4,0.3-1.8,0.9c-0.4,0.6-0.6,1.4-0.6,2.3v2.2c0,1,0.2,1.8,0.6,2.4
	C396.9,477.8,397.5,478,398.3,478z M403.8,472.6c0-1.4,0.3-2.4,1-3.2s1.6-1.1,2.7-1.1s2.1,0.4,2.7,1.1c0.7,0.8,1,1.8,1,3.2v2.3
	c0,1.4-0.3,2.5-1,3.2c-0.6,0.7-1.6,1.1-2.7,1.1s-2.1-0.4-2.7-1.1c-0.6-0.7-1-1.8-1-3.2V472.6z M407.5,478c0.8,0,1.4-0.3,1.8-0.8
	c0.4-0.6,0.6-1.4,0.6-2.4v-2.2c0-1-0.2-1.7-0.6-2.3c-0.4-0.6-1-0.9-1.8-0.9s-1.4,0.3-1.8,0.9c-0.4,0.6-0.6,1.4-0.6,2.3v2.2
	c0,1,0.2,1.8,0.6,2.4C406.1,477.8,406.7,478,407.5,478z M418.7,478.5h0.2v-10h1.3V479h-2.5l-3-10h-0.2v10h-1.3v-10.5h2.5
	L418.7,478.5z M428.3,471.5c0-0.3-0.1-0.6-0.2-0.9c-0.1-0.3-0.3-0.5-0.5-0.6c-0.2-0.2-0.5-0.3-0.8-0.4c-0.3-0.1-0.6-0.1-0.9-0.1
	c-0.3,0-0.6,0-0.8,0.1c-0.3,0.1-0.5,0.2-0.7,0.3c-0.2,0.1-0.4,0.3-0.5,0.5c-0.1,0.2-0.2,0.4-0.2,0.7v0.1c0,0.3,0.1,0.5,0.2,0.8
	c0.1,0.2,0.3,0.4,0.5,0.5c0.2,0.1,0.5,0.3,0.9,0.4c0.3,0.1,0.8,0.2,1.2,0.2c1.1,0.2,1.9,0.5,2.4,1c0.5,0.5,0.8,1.1,0.8,1.9v0.2
	c0,0.5-0.1,0.9-0.2,1.2c-0.1,0.4-0.4,0.7-0.7,1c-0.3,0.3-0.7,0.5-1.1,0.6c-0.4,0.2-1,0.2-1.6,0.2c-0.7,0-1.3-0.1-1.8-0.3
	c-0.5-0.2-0.9-0.5-1.3-0.8c-0.3-0.3-0.6-0.8-0.8-1.2c-0.2-0.5-0.3-1-0.3-1.5v-0.4h1.3v0.4c0,0.9,0.2,1.6,0.8,2.1
	c0.5,0.5,1.2,0.7,2.1,0.7c0.8,0,1.4-0.2,1.8-0.5c0.4-0.4,0.6-0.8,0.6-1.4v-0.1c0-0.5-0.2-1-0.6-1.3c-0.4-0.3-1.1-0.5-2-0.6
	c-0.5-0.1-1-0.2-1.4-0.3c-0.4-0.2-0.8-0.3-1.1-0.6c-0.3-0.2-0.5-0.5-0.7-0.9c-0.2-0.3-0.2-0.7-0.2-1.2v-0.2c0-0.4,0.1-0.8,0.3-1.1
	c0.2-0.3,0.4-0.6,0.7-0.9c0.3-0.2,0.7-0.4,1.1-0.6c0.4-0.1,0.9-0.2,1.4-0.2c0.6,0,1.1,0.1,1.6,0.3c0.5,0.2,0.9,0.4,1.2,0.7
	c0.3,0.3,0.6,0.6,0.7,1c0.2,0.4,0.3,0.8,0.3,1.2v0.6h-1.3V471.5z M432.7,468.5v7c0,0.9,0.2,1.5,0.6,1.9c0.4,0.4,1,0.6,1.8,0.6
	s1.4-0.2,1.7-0.6c0.4-0.4,0.6-1.1,0.6-1.9v-7h1.3v7c0,1.2-0.3,2.1-1,2.8c-0.6,0.6-1.5,1-2.6,1s-2-0.3-2.6-1c-0.6-0.6-1-1.6-1-2.8v-7
	H432.7z M440.9,468.5h1.3v9.3h5.5v1.2h-6.8V468.5z M449.7,468.5h7.4v1.2H454v9.3h-1.3v-9.3h-3.1V468.5z M464.8,476.4h-4.5l-0.8,2.6
	h-1.4l3.2-10.5h2.4l3.2,10.5h-1.4L464.8,476.4z M462.5,469l-1.8,6.2h3.8l-1.8-6.2H462.5z M473.8,478.5h0.2v-10h1.3V479h-2.5l-3-10
	h-0.2v10h-1.3v-10.5h2.5L473.8,478.5z M481,478c0.4,0,0.8-0.1,1.1-0.2c0.3-0.1,0.6-0.3,0.8-0.6c0.2-0.2,0.3-0.5,0.4-0.8
	c0.1-0.3,0.2-0.7,0.2-1v-0.2h1.3v0.2c0,0.5-0.1,1-0.2,1.5c-0.2,0.5-0.4,0.9-0.7,1.2c-0.3,0.3-0.7,0.6-1.2,0.8
	c-0.5,0.2-1,0.3-1.6,0.3c-1.2,0-2.1-0.4-2.7-1.1c-0.6-0.7-1-1.8-1-3.2v-2.3c0-1.4,0.3-2.4,1-3.2s1.6-1.1,2.7-1.1
	c0.6,0,1.1,0.1,1.6,0.3c0.5,0.2,0.8,0.5,1.2,0.8c0.3,0.3,0.5,0.7,0.7,1.2c0.2,0.5,0.2,1,0.2,1.5v0.2h-1.3v-0.2c0-0.3-0.1-0.7-0.2-1
	c-0.1-0.3-0.2-0.6-0.4-0.8c-0.2-0.2-0.4-0.4-0.7-0.6c-0.3-0.1-0.7-0.2-1.1-0.2c-0.8,0-1.4,0.3-1.8,0.9c-0.4,0.6-0.6,1.4-0.6,2.3v2.2
	c0,1,0.2,1.8,0.6,2.4C479.6,477.8,480.2,478,481,478z M489.5,475.3h-0.3l-3.3-6.8h1.4l2.7,5.7h0.2l2.7-5.7h1.4l-3.3,6.8h-0.3v3.7
	h-1.3V475.3z"/>
<path d="M150.2,5.5h3.5c1.3,0,2.2,0.3,2.8,0.9c0.6,0.6,0.9,1.6,0.9,3v2.7c0,1.4-0.3,2.3-0.9,3c-0.6,0.6-1.6,0.9-2.8,0.9h-3.5v-1.2
	h0.9V6.7h-0.9V5.5z M153.4,14.8c0.5,0,0.9,0,1.2-0.1c0.3-0.1,0.6-0.2,0.8-0.4c0.2-0.2,0.4-0.5,0.5-0.9c0.1-0.4,0.2-0.8,0.2-1.4V9.5
	c0-0.6-0.1-1-0.2-1.4c-0.1-0.4-0.3-0.6-0.5-0.9c-0.2-0.2-0.5-0.4-0.8-0.5c-0.3-0.1-0.7-0.1-1.2-0.1h-1.1v8.2H153.4z M159.5,5.5h6.7
	v1.2h-2.7v8.2h2.7V16h-6.7v-1.2h2.7V6.7h-2.7V5.5z M171,11h4.7v5h-1.2v-1.3h-0.2c-0.2,0.4-0.5,0.8-0.9,1.1c-0.4,0.3-0.9,0.4-1.5,0.4
	c-1.1,0-2-0.4-2.7-1.1c-0.6-0.7-1-1.8-1-3.2V9.6c0-1.4,0.3-2.4,1-3.2c0.6-0.8,1.6-1.1,2.7-1.1c0.6,0,1.1,0.1,1.6,0.3
	c0.5,0.2,0.8,0.5,1.2,0.8c0.3,0.3,0.5,0.7,0.7,1.2c0.2,0.5,0.2,1,0.2,1.5v0.2h-1.3V9.1c0-0.3,0-0.7-0.1-1c-0.1-0.3-0.2-0.6-0.4-0.8
	c-0.2-0.2-0.4-0.4-0.8-0.6c-0.3-0.2-0.7-0.2-1.1-0.2c-0.8,0-1.4,0.3-1.8,0.9c-0.4,0.6-0.6,1.4-0.6,2.3v2.2c0,1,0.2,1.8,0.6,2.4
	c0.4,0.6,1,0.8,1.9,0.8c0.8,0,1.3-0.2,1.8-0.7c0.4-0.5,0.6-1.1,0.6-2v-0.2H171V11z M177.9,5.5h6.7v1.2h-2.7v8.2h2.7V16h-6.7v-1.2
	h2.7V6.7h-2.7V5.5z M186.7,5.5h7.4v1.2H191V16h-1.3V6.7h-3.1V5.5z M201.8,13.4h-4.5l-0.8,2.6h-1.3l3.2-10.5h2.4L204,16h-1.4
	L201.8,13.4z M199.5,6l-1.8,6.2h3.8L199.7,6H199.5z M205.5,5.5h1.3v9.3h5.5V16h-6.8V5.5z M223.8,5.5h6.7v1.2h-2.7v8.2h2.7V16h-6.7
	v-1.2h2.7V6.7h-2.7V5.5z M238.4,15.5h0.2v-10h1.3V16h-2.5l-3-10h-0.2v10h-1.3V5.5h2.5L238.4,15.5z M242.4,5.5h6.4v1.2h-5.2v3.5h5.1
	v1.2h-5.1V16h-1.3V5.5z M258,16h-1.3v-3.5c0-0.3-0.1-0.5-0.2-0.6c-0.1-0.1-0.3-0.2-0.6-0.2h-3.3V16h-1.3V5.5h3.8
	c0.5,0,1,0.1,1.4,0.2c0.4,0.2,0.7,0.4,1,0.6c0.3,0.3,0.5,0.6,0.6,0.9c0.1,0.3,0.2,0.7,0.2,1.1v0.4c0,0.4-0.1,0.8-0.3,1.2
	c-0.2,0.4-0.5,0.7-1,0.9v0.2c0.3,0.1,0.5,0.2,0.7,0.4c0.2,0.2,0.3,0.5,0.3,0.8V16z M252.7,10.5h2.3c0.7,0,1.2-0.2,1.6-0.4
	c0.4-0.3,0.5-0.8,0.5-1.4V8.4c0-0.5-0.2-1-0.5-1.3c-0.3-0.3-0.9-0.5-1.6-0.5h-2.3V10.5z M266.1,13.4h-4.5l-0.8,2.6h-1.4l3.2-10.5
	h2.4l3.2,10.5h-1.4L266.1,13.4z M263.8,6l-1.8,6.2h3.8L264,6H263.8z M275.5,8.5c0-0.3-0.1-0.6-0.2-0.9c-0.1-0.3-0.3-0.5-0.5-0.6
	c-0.2-0.2-0.5-0.3-0.8-0.4c-0.3-0.1-0.6-0.1-0.9-0.1c-0.3,0-0.6,0-0.8,0.1c-0.3,0.1-0.5,0.2-0.7,0.3c-0.2,0.1-0.4,0.3-0.5,0.5
	c-0.1,0.2-0.2,0.4-0.2,0.7v0.1c0,0.3,0.1,0.5,0.2,0.8c0.1,0.2,0.3,0.4,0.5,0.5c0.2,0.1,0.5,0.3,0.9,0.4c0.4,0.1,0.8,0.2,1.2,0.2
	c1.1,0.2,1.9,0.5,2.4,1c0.5,0.5,0.8,1.1,0.8,1.9v0.2c0,0.5-0.1,0.9-0.2,1.2c-0.1,0.4-0.4,0.7-0.7,1c-0.3,0.3-0.7,0.5-1.1,0.6
	c-0.5,0.2-1,0.2-1.6,0.2c-0.7,0-1.3-0.1-1.8-0.3c-0.5-0.2-0.9-0.5-1.3-0.8c-0.3-0.3-0.6-0.8-0.8-1.2c-0.2-0.5-0.3-1-0.3-1.5v-0.4
	h1.3v0.4c0,0.9,0.2,1.6,0.8,2.1c0.5,0.5,1.2,0.7,2.1,0.7c0.8,0,1.4-0.2,1.8-0.5c0.4-0.3,0.6-0.8,0.6-1.4v-0.1c0-0.6-0.2-1-0.6-1.3
	c-0.4-0.3-1.1-0.5-2-0.6c-0.5-0.1-1-0.2-1.4-0.3c-0.4-0.1-0.8-0.3-1.1-0.6c-0.3-0.2-0.5-0.5-0.7-0.9c-0.2-0.3-0.2-0.7-0.2-1.2V8.1
	c0-0.4,0.1-0.8,0.3-1.1c0.2-0.3,0.4-0.6,0.7-0.9c0.3-0.2,0.7-0.4,1.1-0.6c0.4-0.1,0.9-0.2,1.4-0.2c0.6,0,1.1,0.1,1.6,0.3
	c0.5,0.2,0.9,0.4,1.2,0.7c0.3,0.3,0.6,0.6,0.7,1c0.2,0.4,0.3,0.8,0.3,1.2v0.6h-1.3V8.5z M278.6,5.5h7.4v1.2h-3.1V16h-1.3V6.7h-3.1
	V5.5z M294.7,16h-1.3v-3.5c0-0.3-0.1-0.5-0.2-0.6c-0.1-0.1-0.3-0.2-0.6-0.2h-3.3V16h-1.3V5.5h3.8c0.5,0,1,0.1,1.4,0.2
	c0.4,0.2,0.7,0.4,1,0.6c0.3,0.3,0.5,0.6,0.6,0.9c0.1,0.3,0.2,0.7,0.2,1.1v0.4c0,0.4-0.1,0.8-0.3,1.2c-0.2,0.4-0.5,0.7-1,0.9v0.2
	c0.3,0.1,0.5,0.2,0.7,0.4c0.2,0.2,0.3,0.5,0.3,0.8V16z M289.4,10.5h2.3c0.7,0,1.2-0.2,1.6-0.4c0.4-0.3,0.5-0.8,0.5-1.4V8.4
	c0-0.5-0.2-1-0.5-1.3c-0.3-0.3-0.9-0.5-1.6-0.5h-2.3V10.5z M298.3,5.5v7c0,0.9,0.2,1.5,0.6,1.9c0.4,0.4,1,0.6,1.8,0.6
	s1.4-0.2,1.7-0.6c0.4-0.4,0.6-1.1,0.6-1.9v-7h1.3v7c0,1.2-0.3,2.1-1,2.8c-0.6,0.6-1.5,1-2.6,1s-2-0.3-2.6-1c-0.6-0.6-1-1.6-1-2.8v-7
	H298.3z M309.9,15c0.4,0,0.8-0.1,1.1-0.2c0.3-0.1,0.6-0.3,0.8-0.6c0.2-0.2,0.3-0.5,0.4-0.8c0.1-0.3,0.2-0.7,0.2-1v-0.2h1.3v0.2
	c0,0.5-0.1,1-0.2,1.5c-0.2,0.5-0.4,0.9-0.7,1.2c-0.3,0.3-0.7,0.6-1.2,0.8c-0.5,0.2-1,0.3-1.6,0.3c-1.2,0-2.1-0.4-2.7-1.1
	c-0.6-0.7-1-1.8-1-3.2V9.6c0-1.4,0.3-2.4,1-3.2s1.6-1.1,2.7-1.1c0.6,0,1.1,0.1,1.6,0.3c0.5,0.2,0.8,0.5,1.2,0.8
	c0.3,0.3,0.5,0.7,0.7,1.2c0.2,0.5,0.2,1,0.2,1.5v0.2h-1.3V9.1c0-0.3-0.1-0.7-0.2-1c-0.1-0.3-0.2-0.6-0.4-0.8
	c-0.2-0.2-0.4-0.4-0.7-0.6c-0.3-0.2-0.7-0.2-1.1-0.2c-0.8,0-1.4,0.3-1.8,0.9c-0.4,0.6-0.6,1.4-0.6,2.3v2.2c0,1,0.2,1.8,0.6,2.4
	C308.5,14.8,309.1,15,309.9,15z M315.3,5.5h7.4v1.2h-3.1V16h-1.3V6.7h-3.1V5.5z M325.8,5.5v7c0,0.9,0.2,1.5,0.6,1.9
	c0.4,0.4,1,0.6,1.8,0.6c0.8,0,1.3-0.2,1.7-0.6c0.4-0.4,0.6-1.1,0.6-1.9v-7h1.3v7c0,1.2-0.3,2.1-1,2.8c-0.6,0.6-1.5,1-2.6,1
	s-2-0.3-2.6-1c-0.6-0.6-1-1.6-1-2.8v-7H325.8z M340.7,16h-1.3v-3.5c0-0.3-0.1-0.5-0.2-0.6c-0.1-0.1-0.3-0.2-0.6-0.2h-3.3V16h-1.3
	V5.5h3.8c0.5,0,1,0.1,1.4,0.2c0.4,0.2,0.7,0.4,1,0.6c0.3,0.3,0.5,0.6,0.6,0.9c0.1,0.3,0.2,0.7,0.2,1.1v0.4c0,0.4-0.1,0.8-0.3,1.2
	c-0.2,0.4-0.5,0.7-1,0.9v0.2c0.3,0.1,0.5,0.2,0.7,0.4c0.2,0.2,0.3,0.5,0.3,0.8V16z M335.3,10.5h2.3c0.7,0,1.2-0.2,1.6-0.4
	c0.4-0.3,0.5-0.8,0.5-1.4V8.4c0-0.5-0.2-1-0.5-1.3c-0.3-0.3-0.9-0.5-1.6-0.5h-2.3V10.5z M343.4,5.5h6.4v1.2h-5.1v3.5h5v1.2h-5v3.5
	h5.2V16h-6.4V5.5z"/>
<path d="M87.8,167.2h-1v-8.4h1v3.7h0.3l3.2-3.7h1.2v0.1l-3.5,4.1v0.1l3.6,4.1v0.1h-1.3l-3.3-3.7h-0.3V167.2z M98.4,166.7h0.1v-8h1
	v8.4h-2l-2.4-8H95v8h-1v-8.4h2L98.4,166.7z M101.2,162c0-1.1,0.3-1.9,0.8-2.5c0.5-0.6,1.2-0.9,2.2-0.9c0.9,0,1.7,0.3,2.2,0.9
	s0.8,1.4,0.8,2.5v1.9c0,1.1-0.3,2-0.8,2.6c-0.5,0.6-1.2,0.9-2.2,0.9c-0.9,0-1.7-0.3-2.2-0.9c-0.5-0.6-0.8-1.4-0.8-2.6V162z
	 M104.1,166.4c0.6,0,1.1-0.2,1.5-0.7c0.3-0.4,0.5-1.1,0.5-1.9v-1.7c0-0.8-0.2-1.4-0.5-1.9c-0.3-0.5-0.8-0.7-1.5-0.7
	c-0.6,0-1.1,0.2-1.5,0.7c-0.3,0.5-0.5,1.1-0.5,1.9v1.7c0,0.8,0.2,1.5,0.5,1.9C103,166.2,103.5,166.4,104.1,166.4z M114.1,167.2h-1.8
	l-0.8-8h-0.1l-0.8,8h-1.8l-0.9-8.4h0.9l0.8,8h0.1l0.8-8h1.8l0.8,8h0.1l0.8-8h0.9L114.1,167.2z M116.2,158.8h1v7.5h4.4v0.9h-5.4
	V158.8z M123.6,158.8h5.1v0.9h-4.1v2.8h4v0.9h-4v2.8h4.2v0.9h-5.2V158.8z M130.7,158.8h2.8c1,0,1.8,0.2,2.3,0.7
	c0.5,0.5,0.7,1.3,0.7,2.4v2.2c0,1.1-0.2,1.9-0.7,2.4c-0.5,0.5-1.2,0.7-2.3,0.7h-2.8v-0.9h0.7v-6.5h-0.7V158.8z M133.3,166.2
	c0.4,0,0.7,0,0.9-0.1c0.3-0.1,0.5-0.2,0.7-0.4c0.2-0.2,0.3-0.4,0.4-0.7c0.1-0.3,0.1-0.7,0.1-1.1v-2c0-0.4,0-0.8-0.1-1.1
	c-0.1-0.3-0.2-0.5-0.4-0.7c-0.2-0.2-0.4-0.3-0.7-0.4c-0.3-0.1-0.6-0.1-0.9-0.1h-0.9v6.5H133.3z M140,163.1h3.7v4h-0.9v-1h-0.1
	c-0.1,0.4-0.4,0.6-0.7,0.9c-0.3,0.2-0.7,0.3-1.2,0.3c-0.9,0-1.6-0.3-2.1-0.9c-0.5-0.6-0.8-1.4-0.8-2.6V162c0-1.1,0.3-1.9,0.8-2.5
	c0.5-0.6,1.2-0.9,2.2-0.9c0.5,0,0.9,0.1,1.3,0.2c0.4,0.2,0.7,0.4,0.9,0.6c0.2,0.3,0.4,0.6,0.6,1c0.1,0.4,0.2,0.8,0.2,1.2v0.1h-1
	v-0.1c0-0.3,0-0.5-0.1-0.8c-0.1-0.3-0.2-0.5-0.3-0.7c-0.2-0.2-0.4-0.4-0.6-0.5c-0.2-0.1-0.5-0.2-0.9-0.2c-0.6,0-1.1,0.2-1.5,0.7
	c-0.3,0.5-0.5,1.1-0.5,1.9v1.7c0,0.8,0.2,1.5,0.5,1.9c0.3,0.4,0.8,0.7,1.5,0.7c0.6,0,1.1-0.2,1.4-0.6c0.3-0.4,0.5-0.9,0.5-1.6v-0.1
	H140V163.1z M145.6,158.8h5.1v0.9h-4.1v2.8h4v0.9h-4v2.8h4.2v0.9h-5.2V158.8z M104.8,178.2h0.7v-6.5h-0.7v-0.9h3.4
	c0.4,0,0.8,0.1,1.1,0.2c0.3,0.1,0.6,0.3,0.8,0.5c0.2,0.2,0.4,0.4,0.5,0.7c0.1,0.3,0.2,0.6,0.2,0.9v0.1c0,0.2,0,0.4-0.1,0.6
	c-0.1,0.2-0.2,0.4-0.3,0.5c-0.1,0.2-0.3,0.3-0.5,0.4c-0.2,0.1-0.4,0.2-0.6,0.2v0.1c0.4,0.1,0.7,0.3,1,0.6c0.3,0.3,0.4,0.7,0.4,1.2
	v0.1c0,0.3-0.1,0.6-0.2,0.9c-0.1,0.3-0.3,0.5-0.5,0.7c-0.2,0.2-0.5,0.3-0.8,0.5c-0.3,0.1-0.7,0.2-1.1,0.2h-3.4V178.2z M106.5,178.2
	h1.6c0.5,0,0.9-0.1,1.2-0.3c0.3-0.2,0.4-0.6,0.4-1v-0.1c0-0.4-0.1-0.8-0.4-1c-0.3-0.3-0.7-0.4-1.1-0.4h-1.6V178.2z M106.5,174.5h1.6
	c0.5,0,0.9-0.1,1.1-0.4s0.4-0.6,0.4-1V173c0-0.4-0.1-0.7-0.4-1c-0.3-0.2-0.7-0.4-1.2-0.4h-1.6V174.5z M116.9,177.1h-3.6l-0.6,2.1
	h-1.1l2.5-8.4h1.9l2.5,8.4h-1.1L116.9,177.1z M115.1,171.2l-1.5,4.9h3l-1.5-4.9H115.1z M124.5,173.2c0-0.3-0.1-0.5-0.2-0.7
	c-0.1-0.2-0.2-0.4-0.4-0.5s-0.4-0.2-0.6-0.3c-0.2-0.1-0.5-0.1-0.8-0.1c-0.2,0-0.5,0-0.7,0.1c-0.2,0.1-0.4,0.1-0.6,0.3
	c-0.2,0.1-0.3,0.3-0.4,0.4c-0.1,0.2-0.1,0.3-0.1,0.6v0.1c0,0.2,0,0.4,0.1,0.6c0.1,0.2,0.2,0.3,0.4,0.4c0.2,0.1,0.4,0.2,0.7,0.3
	c0.3,0.1,0.6,0.1,1,0.2c0.9,0.1,1.5,0.4,1.9,0.8c0.4,0.4,0.6,0.9,0.6,1.5v0.1c0,0.4-0.1,0.7-0.2,1c-0.1,0.3-0.3,0.6-0.6,0.8
	c-0.2,0.2-0.5,0.4-0.9,0.5c-0.4,0.1-0.8,0.2-1.2,0.2c-0.5,0-1-0.1-1.4-0.2c-0.4-0.2-0.8-0.4-1-0.6c-0.3-0.3-0.5-0.6-0.6-1
	c-0.1-0.4-0.2-0.8-0.2-1.2v-0.4h1v0.3c0,0.7,0.2,1.3,0.6,1.7c0.4,0.4,1,0.6,1.7,0.6c0.6,0,1.1-0.1,1.4-0.4c0.3-0.3,0.5-0.6,0.5-1.1
	v-0.1c0-0.4-0.2-0.8-0.5-1c-0.3-0.2-0.8-0.4-1.6-0.5c-0.4-0.1-0.8-0.1-1.2-0.3c-0.3-0.1-0.6-0.3-0.9-0.5c-0.2-0.2-0.4-0.4-0.6-0.7
	c-0.1-0.3-0.2-0.6-0.2-0.9v-0.1c0-0.3,0.1-0.6,0.2-0.9c0.1-0.3,0.3-0.5,0.6-0.7c0.2-0.2,0.5-0.4,0.9-0.5c0.3-0.1,0.7-0.2,1.1-0.2
	c0.5,0,0.9,0.1,1.3,0.2c0.4,0.1,0.7,0.3,0.9,0.6c0.3,0.2,0.4,0.5,0.6,0.8c0.1,0.3,0.2,0.6,0.2,1v0.5h-1V173.2z M127.3,170.8h5.1v0.9
	h-4.1v2.8h4v0.9h-4v2.8h4.2v0.9h-5.2V170.8z"/>
</svg>
