<svg width="500" height="486" viewBox="0 0 500 486" fill="none" xmlns="http://www.w3.org/2000/svg">
<path d="M118.808 215.641C144.581 215.641 165.473 194.749 165.473 168.976C165.473 143.204 144.581 122.312 118.808 122.312C93.0361 122.312 72.1436 143.204 72.1436 168.976C72.1436 194.749 93.0361 215.641 118.808 215.641Z" fill="#F0F0F0" stroke="black" stroke-width="1.66333"/>
<path d="M244.956 154.68C270.728 154.68 291.621 133.787 291.621 108.015C291.621 82.2429 270.728 61.3503 244.956 61.3503C219.184 61.3503 198.291 82.2429 198.291 108.015C198.291 133.787 219.184 154.68 244.956 154.68Z" fill="#F0F0F0" stroke="black" stroke-width="1.66333"/>
<path d="M372.526 215.641C398.298 215.641 419.191 194.749 419.191 168.976C419.191 143.204 398.298 122.312 372.526 122.312C346.754 122.312 325.861 143.204 325.861 168.976C325.861 194.749 346.754 215.641 372.526 215.641Z" fill="#F0F0F0" stroke="black" stroke-width="1.66333"/>
<path d="M314.1 461.241C339.873 461.241 360.765 440.348 360.765 414.576C360.765 388.804 339.873 367.911 314.1 367.911C288.328 367.911 267.436 388.804 267.436 414.576C267.436 440.348 288.328 461.241 314.1 461.241Z" fill="#F0F0F0" stroke="black" stroke-width="1.66333"/>
<path d="M402.822 351.195C428.594 351.195 449.487 330.302 449.487 304.53C449.487 278.757 428.594 257.865 402.822 257.865C377.05 257.865 356.157 278.757 356.157 304.53C356.157 330.302 377.05 351.195 402.822 351.195Z" fill="#F0F0F0" stroke="black" stroke-width="1.66333"/>
<path d="M175.811 461.241C201.584 461.241 222.476 440.348 222.476 414.576C222.476 388.804 201.584 367.911 175.811 367.911C150.039 367.911 129.146 388.804 129.146 414.576C129.146 440.348 150.039 461.241 175.811 461.241Z" fill="#F0F0F0" stroke="black" stroke-width="1.66333"/>
<path d="M90.199 351.195C115.971 351.195 136.864 330.302 136.864 304.53C136.864 278.757 115.971 257.865 90.199 257.865C64.4267 257.865 43.5342 278.757 43.5342 304.53C43.5342 330.302 64.4267 351.195 90.199 351.195Z" fill="#F0F0F0" stroke="black" stroke-width="1.66333"/>
<path d="M320.861 292.978L328.321 282.973L325.485 270.831" stroke="#00B07B" stroke-width="1.5"/>
<path d="M324.795 267.87L315.48 227.942" stroke="#00B07B" stroke-width="1.5" stroke-dasharray="18.22 3.04"/>
<path d="M315.14 226.461L312.304 214.31L300.985 209.071" stroke="#00B07B" stroke-width="1.5"/>
<path d="M297.176 207.316L213.984 168.818C197.784 161.411 185.104 147.988 178.63 131.393C175.354 123.137 173.793 114.3 174.044 105.42C174.294 96.5411 176.349 87.8058 180.085 79.7468C190.847 56.4601 214.674 41.4901 240.797 41.4901C250.853 41.49 260.787 43.6869 269.905 47.9272L393.532 105.079C394.081 105.329 394.614 105.595 395.196 105.869L395.271 105.911C400.088 108.126 404.618 110.919 408.76 114.228C420.589 123.832 428.869 137.112 432.288 151.96L462.885 283.181C464.156 288.604 464.764 294.161 464.698 299.731C464.729 304.04 464.351 308.343 463.567 312.58V313.004L463.185 314.526C461.091 324.246 456.92 333.398 450.959 341.356L369.58 450.57C363.23 459.185 354.946 466.189 345.395 471.02C335.844 475.85 325.293 478.371 314.591 478.381C300.478 478.421 286.736 473.864 275.444 465.399C254.885 450.088 245.08 423.674 250.494 398.117C252.546 388.263 256.73 378.978 262.753 370.913L319.614 294.625" stroke="#00B07B" stroke-width="1.5" stroke-dasharray="25.14 4.19"/>
<path d="M256.283 201.619L244.956 196.388L233.637 201.619" stroke="#00B07B" stroke-width="1.5"/>
<path d="M229.886 203.349L152.766 239.011C142.159 243.948 130.6 246.503 118.9 246.496C88.3781 246.496 60.5089 228.881 47.9009 201.586C43.5192 192.145 41.1061 181.912 40.8086 171.508C40.5112 161.104 42.3358 150.749 46.171 141.074C53.7081 121.745 68.473 106.109 87.3385 97.4779L210.974 40.3341C221.582 35.4006 233.14 32.846 244.84 32.8491H245.072C256.774 32.8458 268.335 35.4005 278.946 40.3341L402.573 97.5029C421.439 106.134 436.204 121.77 443.741 141.099C447.576 150.774 449.401 161.129 449.103 171.533C448.806 181.936 446.393 192.17 442.011 201.611C429.403 228.873 401.542 246.521 371.02 246.521C359.32 246.528 347.761 243.973 337.154 239.036L258.146 202.509" stroke="#00B07B" stroke-width="1.5" stroke-dasharray="24.77 4.13"/>
<path d="M160.391 269.949L157.913 282.175L165.34 292.196" stroke="#00B07B" stroke-width="1.5"/>
<path d="M167.818 295.498L224.255 371.62C229.727 378.958 233.638 387.339 235.749 396.246L235.799 396.329L236.439 399.431V399.514C240.98 423.974 231.366 448.99 211.697 463.553C200.731 471.721 187.414 476.118 173.74 476.086C170.067 476.085 166.4 475.776 162.778 475.163C145.662 472.273 130.343 462.836 120.064 448.849L42.9851 344.89C36.956 338.252 32.3248 330.468 29.3671 322.003C26.4095 313.537 25.186 304.563 25.7696 295.614C25.9847 291.917 26.5105 288.245 27.3414 284.636L53.7552 154.43C56.6935 139.885 64.3994 126.736 75.6529 117.064C86.8224 107.514 100.979 102.168 115.673 101.952H116.338C120.784 101.955 125.217 102.432 129.562 103.374C163.71 110.818 185.666 145.573 178.497 180.852L160.824 267.928" stroke="#00B07B" stroke-width="1.5" stroke-dasharray="24.7 4.12"/>
<path d="M224.17 101.508H226.93C227.97 101.508 228.73 101.756 229.21 102.252C229.69 102.748 229.93 103.54 229.93 104.628V106.788C229.93 107.876 229.69 108.668 229.21 109.164C228.73 109.66 227.97 109.908 226.93 109.908H224.17V108.96H224.89V102.444H224.17V101.508ZM226.786 108.972C227.154 108.972 227.47 108.936 227.734 108.864C228.006 108.792 228.23 108.672 228.406 108.504C228.582 108.328 228.71 108.096 228.79 107.808C228.878 107.52 228.922 107.156 228.922 106.716V104.7C228.922 104.26 228.878 103.896 228.79 103.608C228.71 103.32 228.582 103.092 228.406 102.924C228.23 102.748 228.006 102.624 227.734 102.552C227.47 102.48 227.154 102.444 226.786 102.444H225.898V108.972H226.786ZM231.77 101.508H236.858V102.444H232.778V105.228H236.786V106.164H232.778V108.972H236.93V109.908H231.77V101.508ZM243.642 103.932C243.642 103.66 243.586 103.42 243.474 103.212C243.37 103.004 243.226 102.832 243.042 102.696C242.858 102.56 242.646 102.456 242.406 102.384C242.166 102.312 241.914 102.276 241.65 102.276C241.418 102.276 241.198 102.308 240.99 102.372C240.782 102.428 240.594 102.512 240.426 102.624C240.266 102.736 240.138 102.876 240.042 103.044C239.946 103.204 239.898 103.392 239.898 103.608V103.68C239.898 103.912 239.946 104.112 240.042 104.28C240.138 104.44 240.278 104.58 240.462 104.7C240.654 104.812 240.89 104.908 241.17 104.988C241.45 105.06 241.778 105.124 242.154 105.18C243.034 105.316 243.682 105.576 244.098 105.96C244.514 106.336 244.722 106.844 244.722 107.484V107.628C244.722 107.988 244.658 108.32 244.53 108.624C244.41 108.92 244.226 109.176 243.978 109.392C243.738 109.608 243.438 109.776 243.078 109.896C242.718 110.016 242.302 110.076 241.83 110.076C241.294 110.076 240.818 110 240.402 109.848C239.994 109.688 239.65 109.472 239.37 109.2C239.098 108.92 238.89 108.596 238.746 108.228C238.602 107.852 238.53 107.444 238.53 107.004V106.644H239.538V106.932C239.538 107.668 239.738 108.22 240.138 108.588C240.546 108.956 241.11 109.14 241.83 109.14C242.454 109.14 242.922 109.004 243.234 108.732C243.554 108.452 243.714 108.084 243.714 107.628V107.556C243.714 107.116 243.55 106.78 243.222 106.548C242.902 106.316 242.378 106.148 241.65 106.044C241.226 105.988 240.842 105.904 240.498 105.792C240.162 105.672 239.874 105.52 239.634 105.336C239.394 105.144 239.21 104.916 239.082 104.652C238.954 104.388 238.89 104.076 238.89 103.716V103.572C238.89 103.244 238.958 102.944 239.094 102.672C239.23 102.4 239.418 102.164 239.658 101.964C239.906 101.764 240.198 101.612 240.534 101.508C240.878 101.396 241.254 101.34 241.662 101.34C242.134 101.34 242.554 101.408 242.922 101.544C243.298 101.68 243.614 101.864 243.87 102.096C244.126 102.32 244.318 102.588 244.446 102.9C244.582 103.204 244.65 103.524 244.65 103.86V104.364H243.642V103.932ZM246.345 101.508H251.673V102.444H249.513V108.972H251.673V109.908H246.345V108.972H248.505V102.444H246.345V101.508ZM255.553 105.876H259.297V109.908H258.361V108.9H258.217C258.081 109.252 257.841 109.536 257.497 109.752C257.153 109.968 256.753 110.076 256.297 110.076C255.393 110.076 254.681 109.784 254.161 109.2C253.649 108.616 253.393 107.764 253.393 106.644V104.772C253.393 103.684 253.653 102.84 254.173 102.24C254.693 101.64 255.417 101.34 256.345 101.34C256.825 101.34 257.249 101.42 257.617 101.58C257.985 101.732 258.293 101.948 258.541 102.228C258.789 102.5 258.977 102.824 259.105 103.2C259.233 103.568 259.297 103.964 259.297 104.388V104.532H258.289V104.388C258.289 104.116 258.249 103.852 258.169 103.596C258.097 103.34 257.981 103.116 257.821 102.924C257.669 102.724 257.469 102.568 257.221 102.456C256.981 102.336 256.689 102.276 256.345 102.276C255.697 102.276 255.209 102.512 254.881 102.984C254.561 103.456 254.401 104.076 254.401 104.844V106.572C254.401 107.396 254.561 108.032 254.881 108.48C255.209 108.92 255.705 109.14 256.369 109.14C256.969 109.14 257.437 108.948 257.773 108.564C258.117 108.18 258.289 107.644 258.289 106.956V106.812H255.553V105.876ZM265.349 109.476H265.493V101.508H266.501V109.908H264.485L262.061 101.94H261.917V109.908H260.909V101.508H262.925L265.349 109.476Z" fill="black"/>
<path d="M333.879 167.6H336.639C337.679 167.6 338.439 167.848 338.919 168.344C339.399 168.84 339.639 169.632 339.639 170.72V172.88C339.639 173.968 339.399 174.76 338.919 175.256C338.439 175.752 337.679 176 336.639 176H333.879V175.052H334.599V168.536H333.879V167.6ZM336.495 175.064C336.863 175.064 337.179 175.028 337.443 174.956C337.715 174.884 337.939 174.764 338.115 174.596C338.291 174.42 338.419 174.188 338.499 173.9C338.587 173.612 338.631 173.248 338.631 172.808V170.792C338.631 170.352 338.587 169.988 338.499 169.7C338.419 169.412 338.291 169.184 338.115 169.016C337.939 168.84 337.715 168.716 337.443 168.644C337.179 168.572 336.863 168.536 336.495 168.536H335.607V175.064H336.495ZM341.479 167.6H346.567V168.536H342.487V171.32H346.495V172.256H342.487V175.064H346.639V176H341.479V167.6ZM348.022 167.6H349.102L351.298 175.568H351.442L353.638 167.6H354.718L352.342 176H350.398L348.022 167.6ZM356.174 167.6H361.262V168.536H357.182V171.32H361.19V172.256H357.182V175.064H361.334V176H356.174V167.6ZM363.438 167.6H364.446V175.064H368.838V176H363.438V167.6ZM370.461 170.864C370.461 169.776 370.721 168.932 371.241 168.332C371.761 167.732 372.485 167.432 373.413 167.432C374.341 167.432 375.065 167.732 375.585 168.332C376.105 168.932 376.365 169.776 376.365 170.864V172.736C376.365 173.856 376.105 174.708 375.585 175.292C375.065 175.876 374.341 176.168 373.413 176.168C372.485 176.168 371.761 175.876 371.241 175.292C370.721 174.708 370.461 173.856 370.461 172.736V170.864ZM373.413 175.232C374.061 175.232 374.545 175.012 374.865 174.572C375.193 174.124 375.357 173.488 375.357 172.664V170.936C375.357 170.168 375.193 169.548 374.865 169.076C374.545 168.604 374.061 168.368 373.413 168.368C372.765 168.368 372.277 168.604 371.949 169.076C371.629 169.548 371.469 170.168 371.469 170.936V172.664C371.469 173.488 371.629 174.124 371.949 174.572C372.277 175.012 372.765 175.232 373.413 175.232ZM379.117 172.544V176H378.109V167.6H381.109C381.541 167.6 381.917 167.664 382.237 167.792C382.557 167.912 382.821 168.076 383.029 168.284C383.245 168.492 383.405 168.736 383.509 169.016C383.621 169.288 383.677 169.576 383.677 169.88V170.24C383.677 170.544 383.621 170.836 383.509 171.116C383.405 171.396 383.245 171.644 383.029 171.86C382.813 172.068 382.545 172.236 382.225 172.364C381.905 172.484 381.533 172.544 381.109 172.544H379.117ZM379.117 171.608H380.989C382.109 171.608 382.669 171.128 382.669 170.168V169.952C382.669 169.528 382.529 169.188 382.249 168.932C381.977 168.668 381.557 168.536 380.989 168.536H379.117V171.608ZM384.988 167.6H386.908L388.036 175.568H388.18L389.308 167.6H391.228V176H390.292V168.032H390.148L389.02 176H387.196L386.068 168.032H385.924V176H384.988V167.6ZM392.912 167.6H398V168.536H393.92V171.32H397.928V172.256H393.92V175.064H398.072V176H392.912V167.6ZM404.448 175.568H404.592V167.6H405.6V176H403.584L401.16 168.032H401.016V176H400.008V167.6H402.024L404.448 175.568ZM407.199 167.6H413.103V168.536H410.655V176H409.647V168.536H407.199V167.6Z" fill="black"/>
<path d="M379.216 298.544V302H378.208V293.6H381.208C381.64 293.6 382.016 293.664 382.336 293.792C382.656 293.912 382.92 294.076 383.128 294.284C383.344 294.492 383.504 294.736 383.608 295.016C383.72 295.288 383.776 295.576 383.776 295.88V296.24C383.776 296.544 383.72 296.836 383.608 297.116C383.504 297.396 383.344 297.644 383.128 297.86C382.912 298.068 382.644 298.236 382.324 298.364C382.004 298.484 381.632 298.544 381.208 298.544H379.216ZM379.216 297.608H381.088C382.208 297.608 382.768 297.128 382.768 296.168V295.952C382.768 295.528 382.628 295.188 382.348 294.932C382.076 294.668 381.656 294.536 381.088 294.536H379.216V297.608ZM390.836 302H389.828V299.192C389.828 298.984 389.78 298.824 389.684 298.712C389.588 298.6 389.42 298.544 389.18 298.544H386.564V302H385.556V293.6H388.556C388.988 293.6 389.364 293.664 389.684 293.792C390.004 293.912 390.268 294.076 390.476 294.284C390.692 294.492 390.852 294.736 390.956 295.016C391.068 295.288 391.124 295.576 391.124 295.88V296.24C391.124 296.552 391.036 296.864 390.86 297.176C390.692 297.488 390.428 297.728 390.068 297.896V298.04C390.308 298.08 390.496 298.176 390.632 298.328C390.768 298.48 390.836 298.696 390.836 298.976V302ZM386.564 297.608H388.436C389.004 297.608 389.424 297.488 389.696 297.248C389.976 297 390.116 296.64 390.116 296.168V295.952C390.116 295.528 389.976 295.188 389.696 294.932C389.424 294.668 389.004 294.536 388.436 294.536H386.564V297.608ZM392.604 296.864C392.604 295.776 392.864 294.932 393.384 294.332C393.904 293.732 394.628 293.432 395.556 293.432C396.484 293.432 397.208 293.732 397.728 294.332C398.248 294.932 398.508 295.776 398.508 296.864V298.736C398.508 299.856 398.248 300.708 397.728 301.292C397.208 301.876 396.484 302.168 395.556 302.168C394.628 302.168 393.904 301.876 393.384 301.292C392.864 300.708 392.604 299.856 392.604 298.736V296.864ZM395.556 301.232C396.204 301.232 396.688 301.012 397.008 300.572C397.336 300.124 397.5 299.488 397.5 298.664V296.936C397.5 296.168 397.336 295.548 397.008 295.076C396.688 294.604 396.204 294.368 395.556 294.368C394.908 294.368 394.42 294.604 394.092 295.076C393.772 295.548 393.612 296.168 393.612 296.936V298.664C393.612 299.488 393.772 300.124 394.092 300.572C394.42 301.012 394.908 301.232 395.556 301.232ZM405.291 299.48C405.291 300.352 405.075 301.02 404.643 301.484C404.219 301.94 403.595 302.168 402.771 302.168C401.947 302.168 401.295 301.94 400.815 301.484C400.343 301.02 400.107 300.352 400.107 299.48V298.832H401.115V299.48C401.115 300.008 401.251 300.432 401.523 300.752C401.795 301.072 402.211 301.232 402.771 301.232C403.331 301.232 403.723 301.072 403.947 300.752C404.171 300.432 404.283 300.008 404.283 299.48V294.536H403.419V293.6H406.011V294.536H405.291V299.48ZM407.707 293.6H412.795V294.536H408.715V297.32H412.723V298.256H408.715V301.064H412.867V302H407.707V293.6ZM417.647 301.232C417.991 301.232 418.283 301.176 418.523 301.064C418.771 300.944 418.971 300.788 419.123 300.596C419.283 300.396 419.399 300.172 419.471 299.924C419.551 299.668 419.591 299.4 419.591 299.12V298.976H420.599V299.12C420.599 299.544 420.535 299.944 420.407 300.32C420.279 300.688 420.091 301.012 419.843 301.292C419.595 301.564 419.287 301.78 418.919 301.94C418.551 302.092 418.127 302.168 417.647 302.168C416.719 302.168 415.995 301.876 415.475 301.292C414.955 300.708 414.695 299.856 414.695 298.736V296.864C414.695 295.776 414.955 294.932 415.475 294.332C415.995 293.732 416.719 293.432 417.647 293.432C418.127 293.432 418.551 293.512 418.919 293.672C419.287 293.824 419.595 294.04 419.843 294.32C420.091 294.592 420.279 294.916 420.407 295.292C420.535 295.66 420.599 296.056 420.599 296.48V296.624H419.591V296.48C419.583 296.208 419.539 295.944 419.459 295.688C419.387 295.432 419.271 295.208 419.111 295.016C418.959 294.816 418.763 294.66 418.523 294.548C418.283 294.428 417.991 294.368 417.647 294.368C416.999 294.368 416.511 294.604 416.183 295.076C415.863 295.548 415.703 296.168 415.703 296.936V298.664C415.703 299.488 415.863 300.124 416.183 300.572C416.511 301.012 416.999 301.232 417.647 301.232ZM421.994 293.6H427.898V294.536H425.45V302H424.442V294.536H421.994V293.6ZM366.719 305.6H368.639L369.767 313.568H369.911L371.039 305.6H372.959V314H372.023V306.032H371.879L370.751 314H368.927L367.799 306.032H367.655V314H366.719V305.6ZM378.986 311.912H375.386L374.774 314H373.694L376.238 305.6H378.134L380.678 314H379.598L378.986 311.912ZM377.114 306.032L375.662 310.976H378.71L377.258 306.032H377.114ZM386.178 313.568H386.322V305.6H387.33V314H385.314L382.89 306.032H382.746V314H381.738V305.6H383.754L386.178 313.568ZM393.682 311.912H390.082L389.47 314H388.39L390.934 305.6H392.83L395.374 314H394.294L393.682 311.912ZM391.81 306.032L390.358 310.976H393.406L391.954 306.032H391.81ZM398.425 309.968H402.169V314H401.233V312.992H401.089C400.953 313.344 400.713 313.628 400.369 313.844C400.025 314.06 399.625 314.168 399.169 314.168C398.265 314.168 397.553 313.876 397.033 313.292C396.521 312.708 396.265 311.856 396.265 310.736V308.864C396.265 307.776 396.525 306.932 397.045 306.332C397.565 305.732 398.289 305.432 399.217 305.432C399.697 305.432 400.121 305.512 400.489 305.672C400.857 305.824 401.165 306.04 401.413 306.32C401.661 306.592 401.849 306.916 401.977 307.292C402.105 307.66 402.169 308.056 402.169 308.48V308.624H401.161V308.48C401.161 308.208 401.121 307.944 401.041 307.688C400.969 307.432 400.853 307.208 400.693 307.016C400.541 306.816 400.341 306.66 400.093 306.548C399.853 306.428 399.561 306.368 399.217 306.368C398.569 306.368 398.081 306.604 397.753 307.076C397.433 307.548 397.273 308.168 397.273 308.936V310.664C397.273 311.488 397.433 312.124 397.753 312.572C398.081 313.012 398.577 313.232 399.241 313.232C399.841 313.232 400.309 313.04 400.645 312.656C400.989 312.272 401.161 311.736 401.161 311.048V310.904H398.425V309.968ZM404.033 305.6H409.121V306.536H405.041V309.32H409.049V310.256H405.041V313.064H409.193V314H404.033V305.6ZM410.805 305.6H412.725L413.853 313.568H413.997L415.125 305.6H417.045V314H416.109V306.032H415.965L414.837 314H413.013L411.885 306.032H411.741V314H410.805V305.6ZM418.728 305.6H423.816V306.536H419.736V309.32H423.744V310.256H419.736V313.064H423.888V314H418.728V305.6ZM430.264 313.568H430.408V305.6H431.416V314H429.4L426.976 306.032H426.832V314H425.824V305.6H427.84L430.264 313.568ZM433.016 305.6H438.92V306.536H436.472V314H435.464V306.536H433.016V305.6Z" fill="black"/>
<path d="M149.264 423.477H147.428L146.648 415.509H146.504L145.724 423.477H143.888L143.036 415.077H143.948L144.752 423.045H144.896L145.652 415.077H147.5L148.256 423.045H148.4L149.204 415.077H150.116L149.264 423.477ZM150.971 418.341C150.971 417.253 151.231 416.409 151.751 415.809C152.271 415.209 152.995 414.909 153.923 414.909C154.851 414.909 155.575 415.209 156.095 415.809C156.615 416.409 156.875 417.253 156.875 418.341V420.213C156.875 421.333 156.615 422.185 156.095 422.769C155.575 423.353 154.851 423.645 153.923 423.645C152.995 423.645 152.271 423.353 151.751 422.769C151.231 422.185 150.971 421.333 150.971 420.213V418.341ZM153.923 422.709C154.571 422.709 155.055 422.489 155.375 422.049C155.703 421.601 155.867 420.965 155.867 420.141V418.413C155.867 417.645 155.703 417.025 155.375 416.553C155.055 416.081 154.571 415.845 153.923 415.845C153.275 415.845 152.787 416.081 152.459 416.553C152.139 417.025 151.979 417.645 151.979 418.413V420.141C151.979 420.965 152.139 421.601 152.459 422.049C152.787 422.489 153.275 422.709 153.923 422.709ZM163.899 423.477H162.891V420.669C162.891 420.461 162.843 420.301 162.747 420.189C162.651 420.077 162.483 420.021 162.243 420.021H159.627V423.477H158.619V415.077H161.619C162.051 415.077 162.427 415.141 162.747 415.269C163.067 415.389 163.331 415.553 163.539 415.761C163.755 415.969 163.915 416.213 164.019 416.493C164.131 416.765 164.187 417.053 164.187 417.357V417.717C164.187 418.029 164.099 418.341 163.923 418.653C163.755 418.965 163.491 419.205 163.131 419.373V419.517C163.371 419.557 163.559 419.653 163.695 419.805C163.831 419.957 163.899 420.173 163.899 420.453V423.477ZM159.627 419.085H161.499C162.067 419.085 162.487 418.965 162.759 418.725C163.039 418.477 163.179 418.117 163.179 417.645V417.429C163.179 417.005 163.039 416.665 162.759 416.409C162.487 416.145 162.067 416.013 161.499 416.013H159.627V419.085ZM167.023 423.477H166.015V415.077H167.023V418.797H167.299L170.527 415.077H171.775V415.149L168.295 419.205V419.349L171.919 423.405V423.477H170.647L167.299 419.733H167.023V423.477ZM177.946 417.501C177.946 417.229 177.89 416.989 177.778 416.781C177.674 416.573 177.53 416.401 177.346 416.265C177.162 416.129 176.95 416.025 176.71 415.953C176.47 415.881 176.218 415.845 175.954 415.845C175.722 415.845 175.502 415.877 175.294 415.941C175.086 415.997 174.898 416.081 174.73 416.193C174.57 416.305 174.442 416.445 174.346 416.613C174.25 416.773 174.202 416.961 174.202 417.177V417.249C174.202 417.481 174.25 417.681 174.346 417.849C174.442 418.009 174.582 418.149 174.766 418.269C174.958 418.381 175.194 418.477 175.474 418.557C175.754 418.629 176.082 418.693 176.458 418.749C177.338 418.885 177.986 419.145 178.402 419.529C178.818 419.905 179.026 420.413 179.026 421.053V421.197C179.026 421.557 178.962 421.889 178.834 422.193C178.714 422.489 178.53 422.745 178.282 422.961C178.042 423.177 177.742 423.345 177.382 423.465C177.022 423.585 176.606 423.645 176.134 423.645C175.598 423.645 175.122 423.569 174.706 423.417C174.298 423.257 173.954 423.041 173.674 422.769C173.402 422.489 173.194 422.165 173.05 421.797C172.906 421.421 172.834 421.013 172.834 420.573V420.213H173.842V420.501C173.842 421.237 174.042 421.789 174.442 422.157C174.85 422.525 175.414 422.709 176.134 422.709C176.758 422.709 177.226 422.573 177.538 422.301C177.858 422.021 178.018 421.653 178.018 421.197V421.125C178.018 420.685 177.854 420.349 177.526 420.117C177.206 419.885 176.682 419.717 175.954 419.613C175.53 419.557 175.146 419.473 174.802 419.361C174.466 419.241 174.178 419.089 173.938 418.905C173.698 418.713 173.514 418.485 173.386 418.221C173.258 417.957 173.194 417.645 173.194 417.285V417.141C173.194 416.813 173.262 416.513 173.398 416.241C173.534 415.969 173.722 415.733 173.962 415.533C174.21 415.333 174.502 415.181 174.838 415.077C175.182 414.965 175.558 414.909 175.966 414.909C176.438 414.909 176.858 414.977 177.226 415.113C177.602 415.249 177.918 415.433 178.174 415.665C178.43 415.889 178.622 416.157 178.75 416.469C178.886 416.773 178.954 417.093 178.954 417.429V417.933H177.946V417.501ZM180.518 415.077H181.526V418.797H185.102V415.077H186.11V423.477H185.102V419.733H181.526V423.477H180.518V415.077ZM187.71 418.341C187.71 417.253 187.97 416.409 188.49 415.809C189.01 415.209 189.734 414.909 190.662 414.909C191.59 414.909 192.314 415.209 192.834 415.809C193.354 416.409 193.614 417.253 193.614 418.341V420.213C193.614 421.333 193.354 422.185 192.834 422.769C192.314 423.353 191.59 423.645 190.662 423.645C189.734 423.645 189.01 423.353 188.49 422.769C187.97 422.185 187.71 421.333 187.71 420.213V418.341ZM190.662 422.709C191.31 422.709 191.794 422.489 192.114 422.049C192.442 421.601 192.606 420.965 192.606 420.141V418.413C192.606 417.645 192.442 417.025 192.114 416.553C191.794 416.081 191.31 415.845 190.662 415.845C190.014 415.845 189.526 416.081 189.198 416.553C188.878 417.025 188.718 417.645 188.718 418.413V420.141C188.718 420.965 188.878 421.601 189.198 422.049C189.526 422.489 190.014 422.709 190.662 422.709ZM196.365 420.021V423.477H195.357V415.077H198.357C198.789 415.077 199.165 415.141 199.485 415.269C199.805 415.389 200.069 415.553 200.277 415.761C200.493 415.969 200.653 416.213 200.757 416.493C200.869 416.765 200.925 417.053 200.925 417.357V417.717C200.925 418.021 200.869 418.313 200.757 418.593C200.653 418.873 200.493 419.121 200.277 419.337C200.061 419.545 199.793 419.713 199.473 419.841C199.153 419.961 198.781 420.021 198.357 420.021H196.365ZM196.365 419.085H198.237C199.357 419.085 199.917 418.605 199.917 417.645V417.429C199.917 417.005 199.777 416.665 199.497 416.409C199.225 416.145 198.805 416.013 198.237 416.013H196.365V419.085ZM207.337 417.501C207.337 417.229 207.281 416.989 207.169 416.781C207.065 416.573 206.921 416.401 206.737 416.265C206.553 416.129 206.341 416.025 206.101 415.953C205.861 415.881 205.609 415.845 205.345 415.845C205.113 415.845 204.893 415.877 204.685 415.941C204.477 415.997 204.289 416.081 204.121 416.193C203.961 416.305 203.833 416.445 203.737 416.613C203.641 416.773 203.593 416.961 203.593 417.177V417.249C203.593 417.481 203.641 417.681 203.737 417.849C203.833 418.009 203.973 418.149 204.157 418.269C204.349 418.381 204.585 418.477 204.865 418.557C205.145 418.629 205.473 418.693 205.849 418.749C206.729 418.885 207.377 419.145 207.793 419.529C208.209 419.905 208.417 420.413 208.417 421.053V421.197C208.417 421.557 208.353 421.889 208.225 422.193C208.105 422.489 207.921 422.745 207.673 422.961C207.433 423.177 207.133 423.345 206.773 423.465C206.413 423.585 205.997 423.645 205.525 423.645C204.989 423.645 204.513 423.569 204.097 423.417C203.689 423.257 203.345 423.041 203.065 422.769C202.793 422.489 202.585 422.165 202.441 421.797C202.297 421.421 202.225 421.013 202.225 420.573V420.213H203.233V420.501C203.233 421.237 203.433 421.789 203.833 422.157C204.241 422.525 204.805 422.709 205.525 422.709C206.149 422.709 206.617 422.573 206.929 422.301C207.249 422.021 207.409 421.653 207.409 421.197V421.125C207.409 420.685 207.245 420.349 206.917 420.117C206.597 419.885 206.073 419.717 205.345 419.613C204.921 419.557 204.537 419.473 204.193 419.361C203.857 419.241 203.569 419.089 203.329 418.905C203.089 418.713 202.905 418.485 202.777 418.221C202.649 417.957 202.585 417.645 202.585 417.285V417.141C202.585 416.813 202.653 416.513 202.789 416.241C202.925 415.969 203.113 415.733 203.353 415.533C203.601 415.333 203.893 415.181 204.229 415.077C204.573 414.965 204.949 414.909 205.357 414.909C205.829 414.909 206.249 414.977 206.617 415.113C206.993 415.249 207.309 415.433 207.565 415.665C207.821 415.889 208.013 416.157 208.141 416.469C208.277 416.773 208.345 417.093 208.345 417.429V417.933H207.337V417.501Z" fill="black"/>
<path d="M290.594 417.501C290.594 417.229 290.538 416.989 290.426 416.781C290.322 416.573 290.178 416.401 289.994 416.265C289.81 416.129 289.598 416.025 289.358 415.953C289.118 415.881 288.866 415.845 288.602 415.845C288.37 415.845 288.15 415.877 287.942 415.941C287.734 415.997 287.546 416.081 287.378 416.193C287.218 416.305 287.09 416.445 286.994 416.613C286.898 416.773 286.85 416.961 286.85 417.177V417.249C286.85 417.481 286.898 417.681 286.994 417.849C287.09 418.009 287.23 418.149 287.414 418.269C287.606 418.381 287.842 418.477 288.122 418.557C288.402 418.629 288.73 418.693 289.106 418.749C289.986 418.885 290.634 419.145 291.05 419.529C291.466 419.905 291.674 420.413 291.674 421.053V421.197C291.674 421.557 291.61 421.889 291.482 422.193C291.362 422.489 291.178 422.745 290.93 422.961C290.69 423.177 290.39 423.345 290.03 423.465C289.67 423.585 289.254 423.645 288.782 423.645C288.246 423.645 287.77 423.569 287.354 423.417C286.946 423.257 286.602 423.041 286.322 422.769C286.05 422.489 285.842 422.165 285.698 421.797C285.554 421.421 285.482 421.013 285.482 420.573V420.213H286.49V420.501C286.49 421.237 286.69 421.789 287.09 422.157C287.498 422.525 288.062 422.709 288.782 422.709C289.406 422.709 289.874 422.573 290.186 422.301C290.506 422.021 290.666 421.653 290.666 421.197V421.125C290.666 420.685 290.502 420.349 290.174 420.117C289.854 419.885 289.33 419.717 288.602 419.613C288.178 419.557 287.794 419.473 287.45 419.361C287.114 419.241 286.826 419.089 286.586 418.905C286.346 418.713 286.162 418.485 286.034 418.221C285.906 417.957 285.842 417.645 285.842 417.285V417.141C285.842 416.813 285.91 416.513 286.046 416.241C286.182 415.969 286.37 415.733 286.61 415.533C286.858 415.333 287.15 415.181 287.486 415.077C287.83 414.965 288.206 414.909 288.614 414.909C289.086 414.909 289.506 414.977 289.874 415.113C290.25 415.249 290.566 415.433 290.822 415.665C291.078 415.889 291.27 416.157 291.398 416.469C291.534 416.773 291.602 417.093 291.602 417.429V417.933H290.594V417.501ZM293.009 415.077H298.913V416.013H296.465V423.477H295.457V416.013H293.009V415.077ZM305.937 423.477H304.929V420.669C304.929 420.461 304.881 420.301 304.785 420.189C304.689 420.077 304.521 420.021 304.281 420.021H301.665V423.477H300.657V415.077H303.657C304.089 415.077 304.465 415.141 304.785 415.269C305.105 415.389 305.369 415.553 305.577 415.761C305.793 415.969 305.953 416.213 306.057 416.493C306.169 416.765 306.225 417.053 306.225 417.357V417.717C306.225 418.029 306.137 418.341 305.961 418.653C305.793 418.965 305.529 419.205 305.169 419.373V419.517C305.409 419.557 305.597 419.653 305.733 419.805C305.869 419.957 305.937 420.173 305.937 420.453V423.477ZM301.665 419.085H303.537C304.105 419.085 304.525 418.965 304.797 418.725C305.077 418.477 305.217 418.117 305.217 417.645V417.429C305.217 417.005 305.077 416.665 304.797 416.409C304.525 416.145 304.105 416.013 303.537 416.013H301.665V419.085ZM312.457 421.389H308.857L308.245 423.477H307.165L309.709 415.077H311.605L314.149 423.477H313.069L312.457 421.389ZM310.585 415.509L309.133 420.453H312.181L310.729 415.509H310.585ZM315.052 415.077H320.956V416.013H318.508V423.477H317.5V416.013H315.052V415.077ZM322.808 415.077H327.896V416.013H323.816V418.797H327.824V419.733H323.816V422.541H327.968V423.477H322.808V415.077ZM331.896 419.445H335.64V423.477H334.704V422.469H334.56C334.424 422.821 334.184 423.105 333.84 423.321C333.496 423.537 333.096 423.645 332.64 423.645C331.736 423.645 331.024 423.353 330.504 422.769C329.992 422.185 329.736 421.333 329.736 420.213V418.341C329.736 417.253 329.996 416.409 330.516 415.809C331.036 415.209 331.76 414.909 332.688 414.909C333.168 414.909 333.592 414.989 333.96 415.149C334.328 415.301 334.636 415.517 334.884 415.797C335.132 416.069 335.32 416.393 335.448 416.769C335.576 417.137 335.64 417.533 335.64 417.957V418.101H334.632V417.957C334.632 417.685 334.592 417.421 334.512 417.165C334.44 416.909 334.324 416.685 334.164 416.493C334.012 416.293 333.812 416.137 333.564 416.025C333.324 415.905 333.032 415.845 332.688 415.845C332.04 415.845 331.552 416.081 331.224 416.553C330.904 417.025 330.744 417.645 330.744 418.413V420.141C330.744 420.965 330.904 421.601 331.224 422.049C331.552 422.489 332.048 422.709 332.712 422.709C333.312 422.709 333.78 422.517 334.116 422.133C334.46 421.749 334.632 421.213 334.632 420.525V420.381H331.896V419.445ZM339.543 420.525H339.327L336.699 415.077H337.827L339.975 419.661H340.119L342.267 415.077H343.395L340.767 420.525H340.551V423.477H339.543V420.525Z" fill="black"/>
<path d="M62.7497 311H61.7417V308.192C61.7417 307.984 61.6937 307.824 61.5977 307.712C61.5017 307.6 61.3337 307.544 61.0937 307.544H58.4777V311H57.4697V302.6H60.4697C60.9017 302.6 61.2777 302.664 61.5977 302.792C61.9177 302.912 62.1817 303.076 62.3897 303.284C62.6057 303.492 62.7657 303.736 62.8697 304.016C62.9817 304.288 63.0377 304.576 63.0377 304.88V305.24C63.0377 305.552 62.9497 305.864 62.7737 306.176C62.6057 306.488 62.3417 306.728 61.9817 306.896V307.04C62.2217 307.08 62.4097 307.176 62.5457 307.328C62.6817 307.48 62.7497 307.696 62.7497 307.976V311ZM58.4777 306.608H60.3497C60.9177 306.608 61.3377 306.488 61.6097 306.248C61.8897 306 62.0297 305.64 62.0297 305.168V304.952C62.0297 304.528 61.8897 304.188 61.6097 303.932C61.3377 303.668 60.9177 303.536 60.3497 303.536H58.4777V306.608ZM64.9254 302.6H70.0134V303.536H65.9334V306.32H69.9414V307.256H65.9334V310.064H70.0854V311H64.9254V302.6ZM76.797 305.024C76.797 304.752 76.741 304.512 76.629 304.304C76.525 304.096 76.381 303.924 76.197 303.788C76.013 303.652 75.801 303.548 75.561 303.476C75.321 303.404 75.069 303.368 74.805 303.368C74.573 303.368 74.353 303.4 74.145 303.464C73.937 303.52 73.749 303.604 73.581 303.716C73.421 303.828 73.293 303.968 73.197 304.136C73.101 304.296 73.053 304.484 73.053 304.7V304.772C73.053 305.004 73.101 305.204 73.197 305.372C73.293 305.532 73.433 305.672 73.617 305.792C73.809 305.904 74.045 306 74.325 306.08C74.605 306.152 74.933 306.216 75.309 306.272C76.189 306.408 76.837 306.668 77.253 307.052C77.669 307.428 77.877 307.936 77.877 308.576V308.72C77.877 309.08 77.813 309.412 77.685 309.716C77.565 310.012 77.381 310.268 77.133 310.484C76.893 310.7 76.593 310.868 76.233 310.988C75.873 311.108 75.457 311.168 74.985 311.168C74.449 311.168 73.973 311.092 73.557 310.94C73.149 310.78 72.805 310.564 72.525 310.292C72.253 310.012 72.045 309.688 71.901 309.32C71.757 308.944 71.685 308.536 71.685 308.096V307.736H72.693V308.024C72.693 308.76 72.893 309.312 73.293 309.68C73.701 310.048 74.265 310.232 74.985 310.232C75.609 310.232 76.077 310.096 76.389 309.824C76.709 309.544 76.869 309.176 76.869 308.72V308.648C76.869 308.208 76.705 307.872 76.377 307.64C76.057 307.408 75.533 307.24 74.805 307.136C74.381 307.08 73.997 306.996 73.653 306.884C73.317 306.764 73.029 306.612 72.789 306.428C72.549 306.236 72.365 306.008 72.237 305.744C72.109 305.48 72.045 305.168 72.045 304.808V304.664C72.045 304.336 72.113 304.036 72.249 303.764C72.385 303.492 72.573 303.256 72.813 303.056C73.061 302.856 73.353 302.704 73.689 302.6C74.033 302.488 74.409 302.432 74.817 302.432C75.289 302.432 75.709 302.5 76.077 302.636C76.453 302.772 76.769 302.956 77.025 303.188C77.281 303.412 77.473 303.68 77.601 303.992C77.737 304.296 77.805 304.616 77.805 304.952V305.456H76.797V305.024ZM79.2127 305.864C79.2127 304.776 79.4727 303.932 79.9927 303.332C80.5127 302.732 81.2367 302.432 82.1647 302.432C83.0927 302.432 83.8167 302.732 84.3367 303.332C84.8567 303.932 85.1167 304.776 85.1167 305.864V307.736C85.1167 308.856 84.8567 309.708 84.3367 310.292C83.8167 310.876 83.0927 311.168 82.1647 311.168C81.2367 311.168 80.5127 310.876 79.9927 310.292C79.4727 309.708 79.2127 308.856 79.2127 307.736V305.864ZM82.1647 310.232C82.8127 310.232 83.2967 310.012 83.6167 309.572C83.9447 309.124 84.1087 308.488 84.1087 307.664V305.936C84.1087 305.168 83.9447 304.548 83.6167 304.076C83.2967 303.604 82.8127 303.368 82.1647 303.368C81.5167 303.368 81.0287 303.604 80.7007 304.076C80.3807 304.548 80.2207 305.168 80.2207 305.936V307.664C80.2207 308.488 80.3807 309.124 80.7007 309.572C81.0287 310.012 81.5167 310.232 82.1647 310.232ZM87.6403 302.6V308.168C87.6403 308.848 87.7963 309.364 88.1083 309.716C88.4283 310.06 88.8963 310.232 89.5123 310.232C90.1283 310.232 90.5923 310.06 90.9043 309.716C91.2243 309.364 91.3843 308.848 91.3843 308.168V302.6H92.3923V308.168C92.3923 309.144 92.1363 309.888 91.6243 310.4C91.1123 310.912 90.4083 311.168 89.5123 311.168C88.6163 311.168 87.9123 310.912 87.4003 310.4C86.8883 309.888 86.6323 309.144 86.6323 308.168V302.6H87.6403ZM99.488 311H98.48V308.192C98.48 307.984 98.432 307.824 98.336 307.712C98.24 307.6 98.072 307.544 97.832 307.544H95.216V311H94.208V302.6H97.208C97.64 302.6 98.016 302.664 98.336 302.792C98.656 302.912 98.92 303.076 99.128 303.284C99.344 303.492 99.504 303.736 99.608 304.016C99.72 304.288 99.776 304.576 99.776 304.88V305.24C99.776 305.552 99.688 305.864 99.512 306.176C99.344 306.488 99.08 306.728 98.72 306.896V307.04C98.96 307.08 99.148 307.176 99.284 307.328C99.42 307.48 99.488 307.696 99.488 307.976V311ZM95.216 306.608H97.088C97.656 306.608 98.076 306.488 98.348 306.248C98.628 306 98.768 305.64 98.768 305.168V304.952C98.768 304.528 98.628 304.188 98.348 303.932C98.076 303.668 97.656 303.536 97.088 303.536H95.216V306.608ZM104.256 310.232C104.6 310.232 104.892 310.176 105.132 310.064C105.38 309.944 105.58 309.788 105.732 309.596C105.892 309.396 106.008 309.172 106.08 308.924C106.16 308.668 106.2 308.4 106.2 308.12V307.976H107.208V308.12C107.208 308.544 107.144 308.944 107.016 309.32C106.888 309.688 106.7 310.012 106.452 310.292C106.204 310.564 105.896 310.78 105.528 310.94C105.16 311.092 104.736 311.168 104.256 311.168C103.328 311.168 102.604 310.876 102.084 310.292C101.564 309.708 101.304 308.856 101.304 307.736V305.864C101.304 304.776 101.564 303.932 102.084 303.332C102.604 302.732 103.328 302.432 104.256 302.432C104.736 302.432 105.16 302.512 105.528 302.672C105.896 302.824 106.204 303.04 106.452 303.32C106.7 303.592 106.888 303.916 107.016 304.292C107.144 304.66 107.208 305.056 107.208 305.48V305.624H106.2V305.48C106.192 305.208 106.148 304.944 106.068 304.688C105.996 304.432 105.88 304.208 105.72 304.016C105.568 303.816 105.372 303.66 105.132 303.548C104.892 303.428 104.6 303.368 104.256 303.368C103.608 303.368 103.12 303.604 102.792 304.076C102.472 304.548 102.312 305.168 102.312 305.936V307.664C102.312 308.488 102.472 309.124 102.792 309.572C103.12 310.012 103.608 310.232 104.256 310.232ZM109.011 302.6H114.099V303.536H110.019V306.32H114.027V307.256H110.019V310.064H114.171V311H109.011V302.6ZM120.883 305.024C120.883 304.752 120.827 304.512 120.715 304.304C120.611 304.096 120.467 303.924 120.283 303.788C120.099 303.652 119.887 303.548 119.647 303.476C119.407 303.404 119.155 303.368 118.891 303.368C118.659 303.368 118.439 303.4 118.231 303.464C118.023 303.52 117.835 303.604 117.667 303.716C117.507 303.828 117.379 303.968 117.283 304.136C117.187 304.296 117.139 304.484 117.139 304.7V304.772C117.139 305.004 117.187 305.204 117.283 305.372C117.379 305.532 117.519 305.672 117.703 305.792C117.895 305.904 118.131 306 118.411 306.08C118.691 306.152 119.019 306.216 119.395 306.272C120.275 306.408 120.923 306.668 121.339 307.052C121.755 307.428 121.963 307.936 121.963 308.576V308.72C121.963 309.08 121.899 309.412 121.771 309.716C121.651 310.012 121.467 310.268 121.219 310.484C120.979 310.7 120.679 310.868 120.319 310.988C119.959 311.108 119.543 311.168 119.071 311.168C118.535 311.168 118.059 311.092 117.643 310.94C117.235 310.78 116.891 310.564 116.611 310.292C116.339 310.012 116.131 309.688 115.987 309.32C115.843 308.944 115.771 308.536 115.771 308.096V307.736H116.779V308.024C116.779 308.76 116.979 309.312 117.379 309.68C117.787 310.048 118.351 310.232 119.071 310.232C119.695 310.232 120.163 310.096 120.475 309.824C120.795 309.544 120.955 309.176 120.955 308.72V308.648C120.955 308.208 120.791 307.872 120.463 307.64C120.143 307.408 119.619 307.24 118.891 307.136C118.467 307.08 118.083 306.996 117.739 306.884C117.403 306.764 117.115 306.612 116.875 306.428C116.635 306.236 116.451 306.008 116.323 305.744C116.195 305.48 116.131 305.168 116.131 304.808V304.664C116.131 304.336 116.199 304.036 116.335 303.764C116.471 303.492 116.659 303.256 116.899 303.056C117.147 302.856 117.439 302.704 117.775 302.6C118.119 302.488 118.495 302.432 118.903 302.432C119.375 302.432 119.795 302.5 120.163 302.636C120.539 302.772 120.855 302.956 121.111 303.188C121.367 303.412 121.559 303.68 121.687 303.992C121.823 304.296 121.891 304.616 121.891 304.952V305.456H120.883V305.024Z" fill="black"/>
<path d="M390.425 468.273H396.875V469.443H391.685V472.923H396.785V474.093H391.685V478.773H390.425V468.273ZM405.025 476.163H400.525L399.76 478.773H398.41L401.59 468.273H403.96L407.14 478.773H405.79L405.025 476.163ZM402.685 468.813L400.87 474.993H404.68L402.865 468.813H402.685ZM412.019 477.813C412.449 477.813 412.814 477.743 413.114 477.603C413.424 477.453 413.674 477.258 413.864 477.018C414.064 476.768 414.209 476.488 414.299 476.178C414.399 475.858 414.449 475.523 414.449 475.173V474.993H415.709V475.173C415.709 475.703 415.629 476.203 415.469 476.673C415.309 477.133 415.074 477.538 414.764 477.888C414.454 478.228 414.069 478.498 413.609 478.698C413.149 478.888 412.619 478.983 412.019 478.983C410.859 478.983 409.954 478.618 409.304 477.888C408.654 477.158 408.329 476.093 408.329 474.693V472.353C408.329 470.993 408.654 469.938 409.304 469.188C409.954 468.438 410.859 468.063 412.019 468.063C412.619 468.063 413.149 468.163 413.609 468.363C414.069 468.553 414.454 468.823 414.764 469.173C415.074 469.513 415.309 469.918 415.469 470.388C415.629 470.848 415.709 471.343 415.709 471.873V472.053H414.449V471.873C414.439 471.533 414.384 471.203 414.284 470.883C414.194 470.563 414.049 470.283 413.849 470.043C413.659 469.793 413.414 469.598 413.114 469.458C412.814 469.308 412.449 469.233 412.019 469.233C411.209 469.233 410.599 469.528 410.189 470.118C409.789 470.708 409.589 471.483 409.589 472.443V474.603C409.589 475.633 409.789 476.428 410.189 476.988C410.599 477.538 411.209 477.813 412.019 477.813ZM417.814 468.273H424.474V469.443H421.774V477.603H424.474V478.773H417.814V477.603H420.514V469.443H417.814V468.273ZM427.043 468.273H428.303V477.603H433.793V478.773H427.043V468.273ZM436.183 468.273H442.843V469.443H440.143V477.603H442.843V478.773H436.183V477.603H438.883V469.443H436.183V468.273ZM445.007 468.273H452.387V469.443H449.327V478.773H448.067V469.443H445.007V468.273ZM460.132 476.163H455.632L454.867 478.773H453.517L456.697 468.273H459.067L462.247 478.773H460.897L460.132 476.163ZM457.792 468.813L455.977 474.993H459.787L457.972 468.813H457.792ZM463.377 468.273H470.757V469.443H467.697V478.773H466.437V469.443H463.377V468.273ZM472.921 468.273H479.581V469.443H476.881V477.603H479.581V478.773H472.921V477.603H475.621V469.443H472.921V468.273ZM481.746 472.353C481.746 470.993 482.071 469.938 482.721 469.188C483.371 468.438 484.276 468.063 485.436 468.063C486.596 468.063 487.501 468.438 488.151 469.188C488.801 469.938 489.126 470.993 489.126 472.353V474.693C489.126 476.093 488.801 477.158 488.151 477.888C487.501 478.618 486.596 478.983 485.436 478.983C484.276 478.983 483.371 478.618 482.721 477.888C482.071 477.158 481.746 476.093 481.746 474.693V472.353ZM485.436 477.813C486.246 477.813 486.851 477.538 487.251 476.988C487.661 476.428 487.866 475.633 487.866 474.603V472.443C487.866 471.483 487.661 470.708 487.251 470.118C486.851 469.528 486.246 469.233 485.436 469.233C484.626 469.233 484.016 469.528 483.606 470.118C483.206 470.708 483.006 471.483 483.006 472.443V474.603C483.006 475.633 483.206 476.428 483.606 476.988C484.016 477.538 484.626 477.813 485.436 477.813ZM496.675 478.233H496.855V468.273H498.115V478.773H495.595L492.565 468.813H492.385V478.773H491.125V468.273H493.645L496.675 478.233Z" fill="black"/>
<path d="M5.28379 478.04C5.71379 478.04 6.07879 477.97 6.37879 477.83C6.68879 477.68 6.93879 477.485 7.12879 477.245C7.32879 476.995 7.47379 476.715 7.56379 476.405C7.66379 476.085 7.71379 475.75 7.71379 475.4V475.22H8.97379V475.4C8.97379 475.93 8.89379 476.43 8.73379 476.9C8.57379 477.36 8.33879 477.765 8.02879 478.115C7.71879 478.455 7.33379 478.725 6.87379 478.925C6.41379 479.115 5.88379 479.21 5.28379 479.21C4.12379 479.21 3.21879 478.845 2.56879 478.115C1.91879 477.385 1.59379 476.32 1.59379 474.92V472.58C1.59379 471.22 1.91879 470.165 2.56879 469.415C3.21879 468.665 4.12379 468.29 5.28379 468.29C5.88379 468.29 6.41379 468.39 6.87379 468.59C7.33379 468.78 7.71879 469.05 8.02879 469.4C8.33879 469.74 8.57379 470.145 8.73379 470.615C8.89379 471.075 8.97379 471.57 8.97379 472.1V472.28H7.71379V472.1C7.70379 471.76 7.64879 471.43 7.54879 471.11C7.45879 470.79 7.31379 470.51 7.11379 470.27C6.92379 470.02 6.67879 469.825 6.37879 469.685C6.07879 469.535 5.71379 469.46 5.28379 469.46C4.47379 469.46 3.86379 469.755 3.45379 470.345C3.05379 470.935 2.85379 471.71 2.85379 472.67V474.83C2.85379 475.86 3.05379 476.655 3.45379 477.215C3.86379 477.765 4.47379 478.04 5.28379 478.04ZM10.7184 472.58C10.7184 471.22 11.0434 470.165 11.6934 469.415C12.3434 468.665 13.2484 468.29 14.4084 468.29C15.5684 468.29 16.4734 468.665 17.1234 469.415C17.7734 470.165 18.0984 471.22 18.0984 472.58V474.92C18.0984 476.32 17.7734 477.385 17.1234 478.115C16.4734 478.845 15.5684 479.21 14.4084 479.21C13.2484 479.21 12.3434 478.845 11.6934 478.115C11.0434 477.385 10.7184 476.32 10.7184 474.92V472.58ZM14.4084 478.04C15.2184 478.04 15.8234 477.765 16.2234 477.215C16.6334 476.655 16.8384 475.86 16.8384 474.83V472.67C16.8384 471.71 16.6334 470.935 16.2234 470.345C15.8234 469.755 15.2184 469.46 14.4084 469.46C13.5984 469.46 12.9884 469.755 12.5784 470.345C12.1784 470.935 11.9784 471.71 11.9784 472.67V474.83C11.9784 475.86 12.1784 476.655 12.5784 477.215C12.9884 477.765 13.5984 478.04 14.4084 478.04ZM25.6479 478.46H25.8279V468.5H27.0879V479H24.5679L21.5379 469.04H21.3579V479H20.0979V468.5H22.6179L25.6479 478.46ZM35.2525 471.53C35.2525 471.19 35.1825 470.89 35.0425 470.63C34.9125 470.37 34.7325 470.155 34.5025 469.985C34.2725 469.815 34.0075 469.685 33.7075 469.595C33.4075 469.505 33.0925 469.46 32.7625 469.46C32.4725 469.46 32.1975 469.5 31.9375 469.58C31.6775 469.65 31.4425 469.755 31.2325 469.895C31.0325 470.035 30.8725 470.21 30.7525 470.42C30.6325 470.62 30.5725 470.855 30.5725 471.125V471.215C30.5725 471.505 30.6325 471.755 30.7525 471.965C30.8725 472.165 31.0475 472.34 31.2775 472.49C31.5175 472.63 31.8125 472.75 32.1625 472.85C32.5125 472.94 32.9225 473.02 33.3925 473.09C34.4925 473.26 35.3025 473.585 35.8225 474.065C36.3425 474.535 36.6025 475.17 36.6025 475.97V476.15C36.6025 476.6 36.5225 477.015 36.3625 477.395C36.2125 477.765 35.9825 478.085 35.6725 478.355C35.3725 478.625 34.9975 478.835 34.5475 478.985C34.0975 479.135 33.5775 479.21 32.9875 479.21C32.3175 479.21 31.7225 479.115 31.2025 478.925C30.6925 478.725 30.2625 478.455 29.9125 478.115C29.5725 477.765 29.3125 477.36 29.1325 476.9C28.9525 476.43 28.8625 475.92 28.8625 475.37V474.92H30.1225V475.28C30.1225 476.2 30.3725 476.89 30.8725 477.35C31.3825 477.81 32.0875 478.04 32.9875 478.04C33.7675 478.04 34.3525 477.87 34.7425 477.53C35.1425 477.18 35.3425 476.72 35.3425 476.15V476.06C35.3425 475.51 35.1375 475.09 34.7275 474.8C34.3275 474.51 33.6725 474.3 32.7625 474.17C32.2325 474.1 31.7525 473.995 31.3225 473.855C30.9025 473.705 30.5425 473.515 30.2425 473.285C29.9425 473.045 29.7125 472.76 29.5525 472.43C29.3925 472.1 29.3125 471.71 29.3125 471.26V471.08C29.3125 470.67 29.3975 470.295 29.5675 469.955C29.7375 469.615 29.9725 469.32 30.2725 469.07C30.5825 468.82 30.9475 468.63 31.3675 468.5C31.7975 468.36 32.2675 468.29 32.7775 468.29C33.3675 468.29 33.8925 468.375 34.3525 468.545C34.8225 468.715 35.2175 468.945 35.5375 469.235C35.8575 469.515 36.0975 469.85 36.2575 470.24C36.4275 470.62 36.5125 471.02 36.5125 471.44V472.07H35.2525V471.53ZM39.6221 468.5V475.46C39.6221 476.31 39.8171 476.955 40.2071 477.395C40.6071 477.825 41.1921 478.04 41.9621 478.04C42.7321 478.04 43.3121 477.825 43.7021 477.395C44.1021 476.955 44.3021 476.31 44.3021 475.46V468.5H45.5621V475.46C45.5621 476.68 45.2421 477.61 44.6021 478.25C43.9621 478.89 43.0821 479.21 41.9621 479.21C40.8421 479.21 39.9621 478.89 39.3221 478.25C38.6821 477.61 38.3621 476.68 38.3621 475.46V468.5H39.6221ZM47.8616 468.5H49.1216V477.83H54.6116V479H47.8616V468.5ZM56.6412 468.5H64.0212V469.67H60.9612V479H59.7012V469.67H56.6412V468.5ZM71.7658 476.39H67.2658L66.5008 479H65.1508L68.3308 468.5H70.7008L73.8808 479H72.5308L71.7658 476.39ZM69.4258 469.04L67.6108 475.22H71.4208L69.6058 469.04H69.4258ZM80.7554 478.46H80.9354V468.5H82.1954V479H79.6754L76.6454 469.04H76.4654V479H75.2054V468.5H77.7254L80.7554 478.46ZM87.9449 478.04C88.3749 478.04 88.7399 477.97 89.0399 477.83C89.3499 477.68 89.5999 477.485 89.7899 477.245C89.9899 476.995 90.1349 476.715 90.2249 476.405C90.3249 476.085 90.3749 475.75 90.3749 475.4V475.22H91.6349V475.4C91.6349 475.93 91.5549 476.43 91.3949 476.9C91.2349 477.36 90.9999 477.765 90.6899 478.115C90.3799 478.455 89.9949 478.725 89.5349 478.925C89.0749 479.115 88.5449 479.21 87.9449 479.21C86.7849 479.21 85.8799 478.845 85.2299 478.115C84.5799 477.385 84.2549 476.32 84.2549 474.92V472.58C84.2549 471.22 84.5799 470.165 85.2299 469.415C85.8799 468.665 86.7849 468.29 87.9449 468.29C88.5449 468.29 89.0749 468.39 89.5349 468.59C89.9949 468.78 90.3799 469.05 90.6899 469.4C90.9999 469.74 91.2349 470.145 91.3949 470.615C91.5549 471.075 91.6349 471.57 91.6349 472.1V472.28H90.3749V472.1C90.3649 471.76 90.3099 471.43 90.2099 471.11C90.1199 470.79 89.9749 470.51 89.7749 470.27C89.5849 470.02 89.3399 469.825 89.0399 469.685C88.7399 469.535 88.3749 469.46 87.9449 469.46C87.1349 469.46 86.5249 469.755 86.1149 470.345C85.7149 470.935 85.5149 471.71 85.5149 472.67V474.83C85.5149 475.86 85.7149 476.655 86.1149 477.215C86.5249 477.765 87.1349 478.04 87.9449 478.04ZM96.4395 475.31H96.1695L92.8845 468.5H94.2945L96.9795 474.23H97.1595L99.8445 468.5H101.254L97.9695 475.31H97.6995V479H96.4395V475.31Z" fill="black"/>
<path d="M134.495 5.5H137.945C139.245 5.5 140.195 5.81 140.795 6.43C141.395 7.05 141.695 8.04 141.695 9.4V12.1C141.695 13.46 141.395 14.45 140.795 15.07C140.195 15.69 139.245 16 137.945 16H134.495V14.815H135.395V6.67H134.495V5.5ZM137.765 14.83C138.225 14.83 138.62 14.785 138.95 14.695C139.29 14.605 139.57 14.455 139.79 14.245C140.01 14.025 140.17 13.735 140.27 13.375C140.38 13.015 140.435 12.56 140.435 12.01V9.49C140.435 8.94 140.38 8.485 140.27 8.125C140.17 7.765 140.01 7.48 139.79 7.27C139.57 7.05 139.29 6.895 138.95 6.805C138.62 6.715 138.225 6.67 137.765 6.67H136.655V14.83H137.765ZM143.845 5.5H150.505V6.67H147.805V14.83H150.505V16H143.845V14.83H146.545V6.67H143.845V5.5ZM155.355 10.96H160.035V16H158.865V14.74H158.685C158.515 15.18 158.215 15.535 157.785 15.805C157.355 16.075 156.855 16.21 156.285 16.21C155.155 16.21 154.265 15.845 153.615 15.115C152.975 14.385 152.655 13.32 152.655 11.92V9.58C152.655 8.22 152.98 7.165 153.63 6.415C154.28 5.665 155.185 5.29 156.345 5.29C156.945 5.29 157.475 5.39 157.935 5.59C158.395 5.78 158.78 6.05 159.09 6.4C159.4 6.74 159.635 7.145 159.795 7.615C159.955 8.075 160.035 8.57 160.035 9.1V9.28H158.775V9.1C158.775 8.76 158.725 8.43 158.625 8.11C158.535 7.79 158.39 7.51 158.19 7.27C158 7.02 157.75 6.825 157.44 6.685C157.14 6.535 156.775 6.46 156.345 6.46C155.535 6.46 154.925 6.755 154.515 7.345C154.115 7.935 153.915 8.71 153.915 9.67V11.83C153.915 12.86 154.115 13.655 154.515 14.215C154.925 14.765 155.545 15.04 156.375 15.04C157.125 15.04 157.71 14.8 158.13 14.32C158.56 13.84 158.775 13.17 158.775 12.31V12.13H155.355V10.96ZM162.214 5.5H168.874V6.67H166.174V14.83H168.874V16H162.214V14.83H164.914V6.67H162.214V5.5ZM171.039 5.5H178.419V6.67H175.359V16H174.099V6.67H171.039V5.5ZM186.163 13.39H181.663L180.898 16H179.548L182.728 5.5H185.098L188.278 16H186.928L186.163 13.39ZM183.823 6.04L182.008 12.22H185.818L184.003 6.04H183.823ZM189.813 5.5H191.073V14.83H196.563V16H189.813V5.5ZM208.137 5.5H214.797V6.67H212.097V14.83H214.797V16H208.137V14.83H210.837V6.67H208.137V5.5ZM222.707 15.46H222.887V5.5H224.147V16H221.627L218.597 6.04H218.417V16H217.157V5.5H219.677L222.707 15.46ZM226.671 5.5H233.121V6.67H227.931V10.15H233.031V11.32H227.931V16H226.671V5.5ZM242.306 16H241.046V12.49C241.046 12.23 240.986 12.03 240.866 11.89C240.746 11.75 240.536 11.68 240.236 11.68H236.966V16H235.706V5.5H239.456C239.996 5.5 240.466 5.58 240.866 5.74C241.266 5.89 241.596 6.095 241.856 6.355C242.126 6.615 242.326 6.92 242.456 7.27C242.596 7.61 242.666 7.97 242.666 8.35V8.8C242.666 9.19 242.556 9.58 242.336 9.97C242.126 10.36 241.796 10.66 241.346 10.87V11.05C241.646 11.1 241.881 11.22 242.051 11.41C242.221 11.6 242.306 11.87 242.306 12.22V16ZM236.966 10.51H239.306C240.016 10.51 240.541 10.36 240.881 10.06C241.231 9.75 241.406 9.3 241.406 8.71V8.44C241.406 7.91 241.231 7.485 240.881 7.165C240.541 6.835 240.016 6.67 239.306 6.67H236.966V10.51ZM250.455 13.39H245.955L245.19 16H243.84L247.02 5.5H249.39L252.57 16H251.22L250.455 13.39ZM248.115 6.04L246.3 12.22H250.11L248.295 6.04H248.115ZM259.865 8.53C259.865 8.19 259.795 7.89 259.655 7.63C259.525 7.37 259.345 7.155 259.115 6.985C258.885 6.815 258.62 6.685 258.32 6.595C258.02 6.505 257.705 6.46 257.375 6.46C257.085 6.46 256.81 6.5 256.55 6.58C256.29 6.65 256.055 6.755 255.845 6.895C255.645 7.035 255.485 7.21 255.365 7.42C255.245 7.62 255.185 7.855 255.185 8.125V8.215C255.185 8.505 255.245 8.755 255.365 8.965C255.485 9.165 255.66 9.34 255.89 9.49C256.13 9.63 256.425 9.75 256.775 9.85C257.125 9.94 257.535 10.02 258.005 10.09C259.105 10.26 259.915 10.585 260.435 11.065C260.955 11.535 261.215 12.17 261.215 12.97V13.15C261.215 13.6 261.135 14.015 260.975 14.395C260.825 14.765 260.595 15.085 260.285 15.355C259.985 15.625 259.61 15.835 259.16 15.985C258.71 16.135 258.19 16.21 257.6 16.21C256.93 16.21 256.335 16.115 255.815 15.925C255.305 15.725 254.875 15.455 254.525 15.115C254.185 14.765 253.925 14.36 253.745 13.9C253.565 13.43 253.475 12.92 253.475 12.37V11.92H254.735V12.28C254.735 13.2 254.985 13.89 255.485 14.35C255.995 14.81 256.7 15.04 257.6 15.04C258.38 15.04 258.965 14.87 259.355 14.53C259.755 14.18 259.955 13.72 259.955 13.15V13.06C259.955 12.51 259.75 12.09 259.34 11.8C258.94 11.51 258.285 11.3 257.375 11.17C256.845 11.1 256.365 10.995 255.935 10.855C255.515 10.705 255.155 10.515 254.855 10.285C254.555 10.045 254.325 9.76 254.165 9.43C254.005 9.1 253.925 8.71 253.925 8.26V8.08C253.925 7.67 254.01 7.295 254.18 6.955C254.35 6.615 254.585 6.32 254.885 6.07C255.195 5.82 255.56 5.63 255.98 5.5C256.41 5.36 256.88 5.29 257.39 5.29C257.98 5.29 258.505 5.375 258.965 5.545C259.435 5.715 259.83 5.945 260.15 6.235C260.47 6.515 260.71 6.85 260.87 7.24C261.04 7.62 261.125 8.02 261.125 8.44V9.07H259.865V8.53ZM262.884 5.5H270.264V6.67H267.204V16H265.944V6.67H262.884V5.5ZM279.044 16H277.784V12.49C277.784 12.23 277.724 12.03 277.604 11.89C277.484 11.75 277.274 11.68 276.974 11.68H273.704V16H272.444V5.5H276.194C276.734 5.5 277.204 5.58 277.604 5.74C278.004 5.89 278.334 6.095 278.594 6.355C278.864 6.615 279.064 6.92 279.194 7.27C279.334 7.61 279.404 7.97 279.404 8.35V8.8C279.404 9.19 279.294 9.58 279.074 9.97C278.864 10.36 278.534 10.66 278.084 10.87V11.05C278.384 11.1 278.619 11.22 278.789 11.41C278.959 11.6 279.044 11.87 279.044 12.22V16ZM273.704 10.51H276.044C276.754 10.51 277.279 10.36 277.619 10.06C277.969 9.75 278.144 9.3 278.144 8.71V8.44C278.144 7.91 277.969 7.485 277.619 7.165C277.279 6.835 276.754 6.67 276.044 6.67H273.704V10.51ZM282.604 5.5V12.46C282.604 13.31 282.799 13.955 283.189 14.395C283.589 14.825 284.174 15.04 284.944 15.04C285.714 15.04 286.294 14.825 286.684 14.395C287.084 13.955 287.284 13.31 287.284 12.46V5.5H288.544V12.46C288.544 13.68 288.224 14.61 287.584 15.25C286.944 15.89 286.064 16.21 284.944 16.21C283.824 16.21 282.944 15.89 282.304 15.25C281.664 14.61 281.344 13.68 281.344 12.46V5.5H282.604ZM294.188 15.04C294.618 15.04 294.983 14.97 295.283 14.83C295.593 14.68 295.843 14.485 296.033 14.245C296.233 13.995 296.378 13.715 296.468 13.405C296.568 13.085 296.618 12.75 296.618 12.4V12.22H297.878V12.4C297.878 12.93 297.798 13.43 297.638 13.9C297.478 14.36 297.243 14.765 296.933 15.115C296.623 15.455 296.238 15.725 295.778 15.925C295.318 16.115 294.788 16.21 294.188 16.21C293.028 16.21 292.123 15.845 291.473 15.115C290.823 14.385 290.498 13.32 290.498 11.92V9.58C290.498 8.22 290.823 7.165 291.473 6.415C292.123 5.665 293.028 5.29 294.188 5.29C294.788 5.29 295.318 5.39 295.778 5.59C296.238 5.78 296.623 6.05 296.933 6.4C297.243 6.74 297.478 7.145 297.638 7.615C297.798 8.075 297.878 8.57 297.878 9.1V9.28H296.618V9.1C296.608 8.76 296.553 8.43 296.453 8.11C296.363 7.79 296.218 7.51 296.018 7.27C295.828 7.02 295.583 6.825 295.283 6.685C294.983 6.535 294.618 6.46 294.188 6.46C293.378 6.46 292.768 6.755 292.358 7.345C291.958 7.935 291.758 8.71 291.758 9.67V11.83C291.758 12.86 291.958 13.655 292.358 14.215C292.768 14.765 293.378 15.04 294.188 15.04ZM299.623 5.5H307.003V6.67H303.943V16H302.683V6.67H299.623V5.5ZM310.157 5.5V12.46C310.157 13.31 310.352 13.955 310.742 14.395C311.142 14.825 311.727 15.04 312.497 15.04C313.267 15.04 313.847 14.825 314.237 14.395C314.637 13.955 314.837 13.31 314.837 12.46V5.5H316.097V12.46C316.097 13.68 315.777 14.61 315.137 15.25C314.497 15.89 313.617 16.21 312.497 16.21C311.377 16.21 310.497 15.89 309.857 15.25C309.217 14.61 308.897 13.68 308.897 12.46V5.5H310.157ZM324.967 16H323.707V12.49C323.707 12.23 323.647 12.03 323.527 11.89C323.407 11.75 323.197 11.68 322.897 11.68H319.627V16H318.367V5.5H322.117C322.657 5.5 323.127 5.58 323.527 5.74C323.927 5.89 324.257 6.095 324.517 6.355C324.787 6.615 324.987 6.92 325.117 7.27C325.257 7.61 325.327 7.97 325.327 8.35V8.8C325.327 9.19 325.217 9.58 324.997 9.97C324.787 10.36 324.457 10.66 324.007 10.87V11.05C324.307 11.1 324.542 11.22 324.712 11.41C324.882 11.6 324.967 11.87 324.967 12.22V16ZM319.627 10.51H321.967C322.677 10.51 323.202 10.36 323.542 10.06C323.892 9.75 324.067 9.3 324.067 8.71V8.44C324.067 7.91 323.892 7.485 323.542 7.165C323.202 6.835 322.677 6.67 321.967 6.67H319.627V10.51ZM327.686 5.5H334.046V6.67H328.946V10.15H333.956V11.32H328.946V14.83H334.136V16H327.686V5.5Z" fill="black"/>
<path d="M88.0115 171H87.0035V162.6H88.0115V166.32H88.2875L91.5155 162.6H92.7635V162.672L89.2835 166.728V166.872L92.9075 170.928V171H91.6355L88.2875 167.256H88.0115V171ZM98.5992 170.568H98.7432V162.6H99.7512V171H97.7352L95.3112 163.032H95.1672V171H94.1592V162.6H96.1752L98.5992 170.568ZM101.351 165.864C101.351 164.776 101.611 163.932 102.131 163.332C102.651 162.732 103.375 162.432 104.303 162.432C105.231 162.432 105.955 162.732 106.475 163.332C106.995 163.932 107.255 164.776 107.255 165.864V167.736C107.255 168.856 106.995 169.708 106.475 170.292C105.955 170.876 105.231 171.168 104.303 171.168C103.375 171.168 102.651 170.876 102.131 170.292C101.611 169.708 101.351 168.856 101.351 167.736V165.864ZM104.303 170.232C104.951 170.232 105.435 170.012 105.755 169.572C106.083 169.124 106.247 168.488 106.247 167.664V165.936C106.247 165.168 106.083 164.548 105.755 164.076C105.435 163.604 104.951 163.368 104.303 163.368C103.655 163.368 103.167 163.604 102.839 164.076C102.519 164.548 102.359 165.168 102.359 165.936V167.664C102.359 168.488 102.519 169.124 102.839 169.572C103.167 170.012 103.655 170.232 104.303 170.232ZM114.339 171H112.503L111.723 163.032H111.579L110.799 171H108.963L108.111 162.6H109.023L109.827 170.568H109.971L110.727 162.6H112.575L113.331 170.568H113.475L114.279 162.6H115.191L114.339 171ZM116.37 162.6H117.378V170.064H121.77V171H116.37V162.6ZM123.802 162.6H128.89V163.536H124.81V166.32H128.818V167.256H124.81V170.064H128.962V171H123.802V162.6ZM130.897 162.6H133.657C134.697 162.6 135.457 162.848 135.937 163.344C136.417 163.84 136.657 164.632 136.657 165.72V167.88C136.657 168.968 136.417 169.76 135.937 170.256C135.457 170.752 134.697 171 133.657 171H130.897V170.052H131.617V163.536H130.897V162.6ZM133.513 170.064C133.881 170.064 134.197 170.028 134.461 169.956C134.733 169.884 134.957 169.764 135.133 169.596C135.309 169.42 135.437 169.188 135.517 168.9C135.605 168.612 135.649 168.248 135.649 167.808V165.792C135.649 165.352 135.605 164.988 135.517 164.7C135.437 164.412 135.309 164.184 135.133 164.016C134.957 163.84 134.733 163.716 134.461 163.644C134.197 163.572 133.881 163.536 133.513 163.536H132.625V170.064H133.513ZM140.237 166.968H143.981V171H143.045V169.992H142.901C142.765 170.344 142.525 170.628 142.181 170.844C141.837 171.06 141.437 171.168 140.981 171.168C140.077 171.168 139.365 170.876 138.845 170.292C138.333 169.708 138.077 168.856 138.077 167.736V165.864C138.077 164.776 138.337 163.932 138.857 163.332C139.377 162.732 140.101 162.432 141.029 162.432C141.509 162.432 141.933 162.512 142.301 162.672C142.669 162.824 142.977 163.04 143.225 163.32C143.473 163.592 143.661 163.916 143.789 164.292C143.917 164.66 143.981 165.056 143.981 165.48V165.624H142.973V165.48C142.973 165.208 142.933 164.944 142.853 164.688C142.781 164.432 142.665 164.208 142.505 164.016C142.353 163.816 142.153 163.66 141.905 163.548C141.665 163.428 141.373 163.368 141.029 163.368C140.381 163.368 139.893 163.604 139.565 164.076C139.245 164.548 139.085 165.168 139.085 165.936V167.664C139.085 168.488 139.245 169.124 139.565 169.572C139.893 170.012 140.389 170.232 141.053 170.232C141.653 170.232 142.121 170.04 142.457 169.656C142.801 169.272 142.973 168.736 142.973 168.048V167.904H140.237V166.968ZM145.845 162.6H150.933V163.536H146.853V166.32H150.861V167.256H146.853V170.064H151.005V171H145.845V162.6ZM104.989 182.064H105.709V175.536H104.989V174.6H108.385C108.785 174.6 109.137 174.656 109.441 174.768C109.753 174.88 110.013 175.032 110.221 175.224C110.437 175.416 110.597 175.648 110.701 175.92C110.813 176.184 110.869 176.472 110.869 176.784V176.928C110.869 177.16 110.833 177.372 110.761 177.564C110.689 177.756 110.589 177.928 110.461 178.08C110.333 178.232 110.181 178.364 110.005 178.476C109.837 178.58 109.653 178.66 109.453 178.716V178.86C109.853 178.972 110.189 179.188 110.461 179.508C110.733 179.82 110.869 180.204 110.869 180.66V180.804C110.869 181.116 110.813 181.408 110.701 181.68C110.597 181.944 110.437 182.176 110.221 182.376C110.013 182.568 109.753 182.72 109.441 182.832C109.137 182.944 108.785 183 108.385 183H104.989V182.064ZM106.717 182.064H108.313C108.785 182.064 109.169 181.948 109.465 181.716C109.761 181.476 109.909 181.148 109.909 180.732V180.66C109.909 180.228 109.769 179.888 109.489 179.64C109.209 179.384 108.829 179.256 108.349 179.256H106.717V182.064ZM106.717 178.32H108.349C108.829 178.32 109.209 178.196 109.489 177.948C109.769 177.7 109.909 177.36 109.909 176.928V176.856C109.909 176.448 109.761 176.128 109.465 175.896C109.169 175.656 108.785 175.536 108.313 175.536H106.717V178.32ZM117.124 180.912H113.524L112.912 183H111.832L114.376 174.6H116.272L118.816 183H117.736L117.124 180.912ZM115.252 175.032L113.8 179.976H116.848L115.396 175.032H115.252ZM124.652 177.024C124.652 176.752 124.596 176.512 124.484 176.304C124.38 176.096 124.236 175.924 124.052 175.788C123.868 175.652 123.656 175.548 123.416 175.476C123.176 175.404 122.924 175.368 122.66 175.368C122.428 175.368 122.208 175.4 122 175.464C121.792 175.52 121.604 175.604 121.436 175.716C121.276 175.828 121.148 175.968 121.052 176.136C120.956 176.296 120.908 176.484 120.908 176.7V176.772C120.908 177.004 120.956 177.204 121.052 177.372C121.148 177.532 121.288 177.672 121.472 177.792C121.664 177.904 121.9 178 122.18 178.08C122.46 178.152 122.788 178.216 123.164 178.272C124.044 178.408 124.692 178.668 125.108 179.052C125.524 179.428 125.732 179.936 125.732 180.576V180.72C125.732 181.08 125.668 181.412 125.54 181.716C125.42 182.012 125.236 182.268 124.988 182.484C124.748 182.7 124.448 182.868 124.088 182.988C123.728 183.108 123.312 183.168 122.84 183.168C122.304 183.168 121.828 183.092 121.412 182.94C121.004 182.78 120.66 182.564 120.38 182.292C120.108 182.012 119.9 181.688 119.756 181.32C119.612 180.944 119.54 180.536 119.54 180.096V179.736H120.548V180.024C120.548 180.76 120.748 181.312 121.148 181.68C121.556 182.048 122.12 182.232 122.84 182.232C123.464 182.232 123.932 182.096 124.244 181.824C124.564 181.544 124.724 181.176 124.724 180.72V180.648C124.724 180.208 124.56 179.872 124.232 179.64C123.912 179.408 123.388 179.24 122.66 179.136C122.236 179.08 121.852 178.996 121.508 178.884C121.172 178.764 120.884 178.612 120.644 178.428C120.404 178.236 120.22 178.008 120.092 177.744C119.964 177.48 119.9 177.168 119.9 176.808V176.664C119.9 176.336 119.968 176.036 120.104 175.764C120.24 175.492 120.428 175.256 120.668 175.056C120.916 174.856 121.208 174.704 121.544 174.6C121.888 174.488 122.264 174.432 122.672 174.432C123.144 174.432 123.564 174.5 123.932 174.636C124.308 174.772 124.624 174.956 124.88 175.188C125.136 175.412 125.328 175.68 125.456 175.992C125.592 176.296 125.66 176.616 125.66 176.952V177.456H124.652V177.024ZM127.476 174.6H132.564V175.536H128.484V178.32H132.492V179.256H128.484V182.064H132.636V183H127.476V174.6Z" fill="black"/>
</svg>
