<svg xmlns="http://www.w3.org/2000/svg" viewBox="0 0 600 600"><title>what-we-do</title><g id="Layer_2" data-name="Layer 2"><circle cx="150.07" cy="209.19" r="56.11" fill="none" stroke="#000" stroke-width="2"/><circle cx="301.75" cy="135.89" r="56.11" fill="none" stroke="#000" stroke-width="2"/><circle cx="455.14" cy="209.19" r="56.11" fill="none" stroke="#000" stroke-width="2"/><circle cx="384.89" cy="504.5" r="56.11" fill="none" stroke="#000" stroke-width="2"/><circle cx="491.57" cy="372.18" r="56.11" fill="none" stroke="#000" stroke-width="2"/><circle cx="218.61" cy="504.5" r="56.11" fill="none" stroke="#000" stroke-width="2"/><circle cx="115.67" cy="372.18" r="56.11" fill="none" stroke="#000" stroke-width="2"/><polyline points="393.02 358.29 401.99 346.26 398.58 331.66" fill="none" stroke="#00e8a2" stroke-width="2"/><line x1="397.75" y1="328.1" x2="386.55" y2="280.09" fill="none" stroke="#00e8a2" stroke-width="2" stroke-dasharray="21.91 3.65"/><polyline points="386.14 278.31 382.73 263.7 369.12 257.4" fill="none" stroke="#00e8a2" stroke-width="2"/><path d="M364.54,255.29,264.51,209A82.42,82.42,0,0,1,222,164a78.67,78.67,0,0,1,1.75-62.1c12.94-28,41.59-46,73-46a83,83,0,0,1,35,7.74L480.4,132.36c.66.3,1.3.62,2,.95l.09.05a78.61,78.61,0,0,1,16.22,10A82.2,82.2,0,0,1,527,188.73l36.79,157.78a82.93,82.93,0,0,1,2.18,19.9,81.74,81.74,0,0,1-1.36,15.45v.51l-.46,1.83a82.93,82.93,0,0,1-14.7,32.26L451.6,547.78a82.24,82.24,0,0,1-66.12,33.44,78.11,78.11,0,0,1-47.07-15.61c-24.72-18.41-36.51-50.17-30-80.9A82.91,82.91,0,0,1,323.15,452l68.37-91.73" fill="none" stroke="#00e8a2" stroke-width="2" stroke-dasharray="30.23 5.04"/><polyline points="315.37 248.44 301.75 242.15 288.14 248.44" fill="none" stroke="#00e8a2" stroke-width="2"/><path d="M283.63,250.52,190.9,293.4a96.35,96.35,0,0,1-40.72,9c-36.7,0-70.21-21.18-85.37-54a92.16,92.16,0,0,1-2.08-72.76,96,96,0,0,1,49.5-52.42L260.89,54.51a96.5,96.5,0,0,1,40.72-9h.28a96.54,96.54,0,0,1,40.73,9l148.65,68.74a96,96,0,0,1,49.5,52.42,92.16,92.16,0,0,1-2.08,72.76c-15.16,32.78-48.66,54-85.36,54h0a96.35,96.35,0,0,1-40.72-9l-95-43.92" fill="none" stroke="#00e8a2" stroke-width="2" stroke-dasharray="29.78 4.96"/><polyline points="200.07 330.6 197.09 345.3 206.02 357.35" fill="none" stroke="#00e8a2" stroke-width="2"/><path d="M209,361.32l67.86,91.53a80.64,80.64,0,0,1,13.82,29.61l.06.1.77,3.73v.1c5.46,29.41-6.1,59.49-29.75,77a76.1,76.1,0,0,1-45.64,15.07h0a79.13,79.13,0,0,1-13.18-1.11,80.33,80.33,0,0,1-51.36-31.64l-92.68-125a80.35,80.35,0,0,1-20.7-59.25,79.37,79.37,0,0,1,1.89-13.2L71.85,191.7a80.18,80.18,0,0,1,26.33-44.93A75.76,75.76,0,0,1,146.3,128.6h.8A75.18,75.18,0,0,1,163,130.31c41.06,8.95,67.46,50.74,58.84,93.16l-21.25,104.7" fill="none" stroke="#00e8a2" stroke-width="2" stroke-dasharray="29.7 4.95"/><text transform="translate(274.21 139.94)" font-size="15" font-family="SpaceMono-Regular, Space Mono">DESIGN</text><text transform="translate(404.65 213.25)" font-size="15" font-family="SpaceMono-Regular, Space Mono">DEVELOPMENT</text><text transform="translate(454.85 367.24)" font-size="15" font-family="SpaceMono-Regular, Space Mono">PROJECT <tspan x="-9.18" y="18">MANAGEMENT</tspan></text><text transform="translate(177.3 508.56)" font-size="15" font-family="SpaceMono-Regular, Space Mono">WORKSHOPS</text><text transform="translate(348.17 508.56)" font-size="15" font-family="SpaceMono-Regular, Space Mono">STRATEGY</text><text transform="translate(74.36 376.24)" font-size="15" font-family="SpaceMono-Regular, Space Mono">RESOURCES</text><text transform="translate(104.17 204.25)" font-size="15" font-family="SpaceMono-Regular, Space Mono">KNOWLEDGE <tspan x="27.54" y="18">BASE</tspan></text><text transform="translate(13.63 585.66)" font-size="18" font-family="SpaceMono-Regular, Space Mono">FACILITATION</text><text transform="translate(464.82 585.66)" font-size="18" font-family="SpaceMono-Regular, Space Mono">CONSULTANCY</text><text transform="translate(179.64 28.3)" font-size="18" font-family="SpaceMono-Regular, Space Mono">DIGITAL INFRASTRUCTURE</text></g></svg>